<svg width="76" height="77" viewBox="0 0 76 77" fill="none" xmlns="http://www.w3.org/2000/svg">
<g filter="url(#filter0_d_360_4979)">
<circle cx="38" cy="35.147" r="23" fill="#FEA15E"/>
</g>
<g clip-path="url(#clip0_360_4979)">
<path d="M44.5004 32.6466H30.5C29.673 32.6466 29 33.3196 29 34.1466V35.1467C29 38.7147 30.971 41.9508 34.1431 43.5919C34.3881 43.7179 34.6901 43.6228 34.8171 43.3768C34.9431 43.1318 34.8481 42.8298 34.6021 42.7028C31.764 41.2348 30 38.3397 30 35.1466V34.1466C30 33.8706 30.224 33.6466 30.5 33.6466H44.5004C44.7764 33.6466 45.0004 33.8706 45.0004 34.1466V35.1466C45.0004 38.3397 43.2364 41.2347 40.3973 42.7018C40.1513 42.8288 40.0563 43.1308 40.1823 43.3758C40.2713 43.5478 40.4463 43.6468 40.6273 43.6468C40.7053 43.6468 40.7833 43.6288 40.8563 43.5908C44.0294 41.9507 46.0004 38.7157 46.0004 35.1466V34.1465C46.0004 33.3196 45.3274 32.6466 44.5004 32.6466Z" fill="white"/>
<path d="M48.963 42.9548C48.885 42.7678 48.7029 42.6458 48.501 42.6458H26.5005C26.2985 42.6458 26.1165 42.7678 26.0384 42.9548C25.9604 43.1417 26.0034 43.3568 26.1465 43.4998L27.2675 44.6218C27.9295 45.2828 28.8075 45.6469 29.7426 45.6469H45.2569C46.1919 45.6469 47.071 45.2829 47.734 44.6218L48.855 43.4998C48.998 43.3568 49.041 43.1417 48.963 42.9548ZM47.026 43.9148C46.554 44.3868 45.9249 44.6468 45.2579 44.6468H29.7426C29.0756 44.6468 28.4465 44.3868 27.9745 43.9148L27.7065 43.6468H47.2939L47.026 43.9148Z" fill="white"/>
<path d="M49.0322 35.0077C47.6851 34.1417 45.5331 35.0817 45.292 35.1907C45.041 35.3057 44.929 35.6017 45.044 35.8537C45.159 36.1057 45.4541 36.2167 45.707 36.1017C46.1891 35.8827 47.7351 35.3637 48.4911 35.8507C48.8321 36.0697 48.9991 36.4947 48.9991 37.1467C48.9991 39.1488 44.961 40.3588 43.402 40.6568L43.0479 40.7268C42.777 40.7798 42.6009 41.0428 42.654 41.3138C42.701 41.5518 42.9099 41.7168 43.144 41.7168C43.176 41.7168 43.2079 41.7138 43.2409 41.7068L43.5919 41.6378C43.8539 41.5878 49.9991 40.3828 49.9991 37.1467C49.9992 36.1407 49.6732 35.4217 49.0322 35.0077Z" fill="white"/>
<path d="M41.3925 28.4586C42.2055 27.4425 42.2055 25.8515 41.3925 24.8355C41.2195 24.6195 40.9065 24.5835 40.6895 24.7575C40.4735 24.9305 40.4385 25.2445 40.6115 25.4605C41.1265 26.1035 41.1265 27.1905 40.6105 27.8355C39.7965 28.8516 39.7965 30.4426 40.6105 31.4586C40.7095 31.5826 40.8545 31.6467 41.0015 31.6467C41.1105 31.6467 41.2215 31.6107 41.3135 31.5366C41.5295 31.3636 41.5645 31.0486 41.3915 30.8336C40.8755 30.1906 40.8755 29.1036 41.3925 28.4586Z" fill="white"/>
<path d="M38.3878 28.4585C39.2018 27.4425 39.2018 25.8515 38.3878 24.8354C38.2159 24.6194 37.9008 24.5844 37.6848 24.7574C37.4688 24.9304 37.4338 25.2454 37.6068 25.4604C38.1229 26.1034 38.1229 27.1905 37.6059 27.8355C36.7928 28.8515 36.7928 30.4425 37.6059 31.4586C37.7049 31.5826 37.8498 31.6466 37.9969 31.6466C38.1058 31.6466 38.2159 31.6106 38.3089 31.5366C38.5249 31.3636 38.5599 31.0496 38.3869 30.8336C37.8718 30.1905 37.8718 29.1035 38.3878 28.4585Z" fill="white"/>
<path d="M35.3925 28.4594C36.2055 27.4434 36.2055 25.8524 35.3925 24.8363C35.2205 24.6203 34.9065 24.5843 34.6895 24.7583C34.4745 24.9303 34.4395 25.2453 34.6115 25.4603C35.1265 26.1033 35.1265 27.1904 34.6105 27.8354C33.7965 28.8514 33.7965 30.4425 34.6105 31.4585C34.7095 31.5825 34.8545 31.6465 35.0015 31.6465C35.1105 31.6465 35.2215 31.6105 35.3135 31.5375C35.5295 31.3645 35.5645 31.0495 35.3915 30.8345C34.8755 30.1905 34.8755 29.1044 35.3925 28.4594Z" fill="white"/>
</g>
<defs>
<filter id="filter0_d_360_4979" x="0" y="0.146973" width="76" height="76" filterUnits="userSpaceOnUse" color-interpolation-filters="sRGB">
<feFlood flood-opacity="0" result="BackgroundImageFix"/>
<feColorMatrix in="SourceAlpha" type="matrix" values="0 0 0 0 0 0 0 0 0 0 0 0 0 0 0 0 0 0 127 0" result="hardAlpha"/>
<feOffset dy="3"/>
<feGaussianBlur stdDeviation="7.5"/>
<feComposite in2="hardAlpha" operator="out"/>
<feColorMatrix type="matrix" values="0 0 0 0 0.129412 0 0 0 0 0.176471 0 0 0 0 0.333333 0 0 0 0.15 0"/>
<feBlend mode="normal" in2="BackgroundImageFix" result="effect1_dropShadow_360_4979"/>
<feBlend mode="normal" in="SourceGraphic" in2="effect1_dropShadow_360_4979" result="shape"/>
</filter>
<clipPath id="clip0_360_4979">
<rect width="24" height="24" fill="white" transform="translate(26 23.147)"/>
</clipPath>
</defs>
</svg>
