<svg width="76" height="77" viewBox="0 0 76 77" fill="none" xmlns="http://www.w3.org/2000/svg">
<g filter="url(#filter0_d_360_5032)">
<circle cx="38" cy="35.147" r="23" fill="#BAADFF"/>
</g>
<path d="M38.8521 26.8503H29.952C29.6755 26.8503 29.4492 27.0766 29.4492 27.3532V33.2363C29.4492 33.5128 29.6755 33.7391 29.952 33.7391H38.8521C39.1287 33.7391 39.3549 33.5128 39.3549 33.2363V27.3532C39.3549 27.0766 39.1287 26.8503 38.8521 26.8503ZM38.3493 32.7334H30.4549V27.856H38.3493V32.7334Z" fill="white"/>
<path d="M49.4921 44.9019H41.0647V36.8566H41.8843C42.6285 36.8566 43.2319 37.465 43.2269 38.2092C43.2269 38.2143 43.2269 38.2143 43.2269 38.2193V39.6121C43.2269 41.0854 44.4186 42.2771 45.8919 42.2771C47.3652 42.2771 48.5569 41.0854 48.5569 39.6121V31.6574C48.5569 30.8327 48.2502 30.0383 47.687 29.4298L43.7549 24.9496L43.0006 25.6134L46.0478 29.0879C44.9466 29.274 44.2024 30.3148 44.3884 31.416C44.5493 32.3915 45.3941 33.1055 46.3847 33.1055C46.802 33.1005 47.2093 32.9748 47.5512 32.7334V39.6121C47.5512 40.5273 46.807 41.2715 45.8919 41.2715C44.9767 41.2715 44.2326 40.5273 44.2326 39.6121V38.2193C44.2376 36.917 43.1867 35.856 41.8894 35.851H41.8843H41.0647V26.4833C41.0647 25.3368 40.1395 24.3865 38.9931 24.3865H29.6505C28.5041 24.3865 27.5889 25.3418 27.5889 26.4833V44.9019H26.5028C26.2263 44.9019 26 45.1281 26 45.4047C26 45.6813 26.2263 45.9075 26.5028 45.9075H49.4972C49.7737 45.9075 50 45.6813 50 45.4047C50 45.1281 49.7737 44.9019 49.4921 44.9019ZM46.3847 32.0948C45.8215 32.0948 45.369 31.6373 45.369 31.0791C45.369 30.521 45.8265 30.0634 46.3847 30.0634C46.9478 30.0634 47.4004 30.521 47.4004 31.0791C47.4004 31.6373 46.9428 32.0948 46.3847 32.0948ZM40.0591 44.9019H28.5946V26.4833C28.5946 25.8899 29.0572 25.3921 29.6505 25.3921H38.9931C39.5864 25.3921 40.0591 25.895 40.0591 26.4833V44.9019Z" fill="white"/>
<defs>
<filter id="filter0_d_360_5032" x="0" y="0.146973" width="76" height="76" filterUnits="userSpaceOnUse" color-interpolation-filters="sRGB">
<feFlood flood-opacity="0" result="BackgroundImageFix"/>
<feColorMatrix in="SourceAlpha" type="matrix" values="0 0 0 0 0 0 0 0 0 0 0 0 0 0 0 0 0 0 127 0" result="hardAlpha"/>
<feOffset dy="3"/>
<feGaussianBlur stdDeviation="7.5"/>
<feComposite in2="hardAlpha" operator="out"/>
<feColorMatrix type="matrix" values="0 0 0 0 0.129412 0 0 0 0 0.176471 0 0 0 0 0.333333 0 0 0 0.15 0"/>
<feBlend mode="normal" in2="BackgroundImageFix" result="effect1_dropShadow_360_5032"/>
<feBlend mode="normal" in="SourceGraphic" in2="effect1_dropShadow_360_5032" result="shape"/>
</filter>
</defs>
</svg>
