<svg width="192" height="117" viewBox="0 0 192 117" fill="none" xmlns="http://www.w3.org/2000/svg">
<g filter="url(#filter0_d_2555_2)">
<rect x="15" y="12" width="162" height="27" rx="10" fill="white"/>
</g>
<path d="M39.3501 31H36.8861L33.4141 25.896V31H31.2061V25.896L27.7341 31H25.2861L29.1741 25.288L25.4461 19.8H27.8941L31.2061 24.792V19.8H33.4141V24.792L36.7261 19.8H39.1901L35.4461 25.288L39.3501 31ZM49.3389 31H46.7949L42.7949 25.752V31H40.5869V19.8H42.7949V24.744L46.6349 19.8H49.1789L45.0349 25.24L49.3389 31ZM54.1746 24.248L55.3746 19.8H57.0546L56.4146 24.248H54.1746ZM57.1346 24.248L58.3346 19.8H60.0146L59.3746 24.248H57.1346ZM69.1003 19.8V31H66.8923V27.112H65.6283L63.0523 31H60.5723L63.3083 26.872C62.5936 26.616 62.0123 26.1787 61.5643 25.56C61.1163 24.9413 60.8923 24.2587 60.8923 23.512C60.8923 22.488 61.2549 21.6133 61.9803 20.888C62.7056 20.1627 63.5856 19.8 64.6203 19.8H69.1003ZM64.6203 25.176H66.8923V21.864H64.6203C64.2043 21.864 63.8469 22.024 63.5483 22.344C63.2496 22.664 63.1003 23.0533 63.1003 23.512C63.1003 23.9707 63.2496 24.3653 63.5483 24.696C63.8469 25.016 64.2043 25.176 64.6203 25.176ZM74.8766 31.224C73.618 31.224 72.5993 30.8187 71.8206 30.008C71.0526 29.1973 70.6686 28.168 70.6686 26.92C70.6686 25.5547 70.8713 24.504 71.2766 23.768C71.682 23.0213 72.498 22.344 73.7246 21.736C73.906 21.6507 74.162 21.5333 74.4926 21.384C74.8233 21.224 75.0473 21.112 75.1646 21.048C75.2926 20.984 75.4633 20.888 75.6766 20.76C75.89 20.632 76.0393 20.52 76.1246 20.424C76.2206 20.3173 76.322 20.184 76.4286 20.024C76.5353 19.864 76.6206 19.688 76.6846 19.496L78.3806 20.472C78.242 21.1227 77.9273 21.6293 77.4366 21.992C76.9566 22.344 76.2313 22.7067 75.2606 23.08C74.578 23.3467 74.082 23.6133 73.7726 23.88C73.4633 24.1467 73.2393 24.4667 73.1006 24.84C73.698 24.232 74.498 23.928 75.5006 23.928C76.386 23.928 77.1753 24.2533 77.8686 24.904C78.562 25.544 78.9086 26.3973 78.9086 27.464C78.9086 28.5627 78.5353 29.464 77.7886 30.168C77.0526 30.872 76.082 31.224 74.8766 31.224ZM73.4046 28.792C73.7993 29.1547 74.2846 29.336 74.8606 29.336C75.4366 29.336 75.9113 29.16 76.2846 28.808C76.658 28.456 76.8446 28.008 76.8446 27.464C76.8446 26.92 76.658 26.472 76.2846 26.12C75.9113 25.7573 75.4313 25.576 74.8446 25.576C74.322 25.576 73.8526 25.7413 73.4366 26.072C73.0313 26.4027 72.8286 26.8453 72.8286 27.4C72.8286 27.9653 73.0206 28.4293 73.4046 28.792ZM86.8236 23V31H84.7596V24.984H82.5516V27.656C82.5516 30.1307 81.4263 31.2453 79.1756 31V29.064C79.6023 29.1707 79.9276 29.1013 80.1516 28.856C80.3756 28.6 80.4876 28.1627 80.4876 27.544V23H86.8236ZM95.51 30.008C94.6887 30.8187 93.686 31.224 92.502 31.224C91.318 31.224 90.3153 30.8187 89.494 30.008C88.6833 29.1867 88.278 28.184 88.278 27C88.278 25.816 88.6833 24.8187 89.494 24.008C90.3153 23.1867 91.318 22.776 92.502 22.776C93.686 22.776 94.6887 23.1867 95.51 24.008C96.3313 24.8187 96.742 25.816 96.742 27C96.742 28.184 96.3313 29.1867 95.51 30.008ZM90.95 28.584C91.366 29 91.8833 29.208 92.502 29.208C93.1207 29.208 93.638 29 94.054 28.584C94.47 28.168 94.678 27.64 94.678 27C94.678 26.36 94.47 25.832 94.054 25.416C93.638 25 93.1207 24.792 92.502 24.792C91.8833 24.792 91.366 25 90.95 25.416C90.5447 25.832 90.342 26.36 90.342 27C90.342 27.64 90.5447 28.168 90.95 28.584ZM103.442 23H105.506V31H103.442V27.96H100.258V31H98.194V23H100.258V26.024H103.442V23ZM114.213 30.008C113.392 30.8187 112.389 31.224 111.205 31.224C110.021 31.224 109.018 30.8187 108.197 30.008C107.386 29.1867 106.981 28.184 106.981 27C106.981 25.816 107.386 24.8187 108.197 24.008C109.018 23.1867 110.021 22.776 111.205 22.776C112.389 22.776 113.392 23.1867 114.213 24.008C115.034 24.8187 115.445 25.816 115.445 27C115.445 28.184 115.034 29.1867 114.213 30.008ZM109.653 28.584C110.069 29 110.586 29.208 111.205 29.208C111.824 29.208 112.341 29 112.757 28.584C113.173 28.168 113.381 27.64 113.381 27C113.381 26.36 113.173 25.832 112.757 25.416C112.341 25 111.824 24.792 111.205 24.792C110.586 24.792 110.069 25 109.653 25.416C109.248 25.832 109.045 26.36 109.045 27C109.045 27.64 109.248 28.168 109.653 28.584ZM122.657 26.904C123.404 27.2667 123.777 27.8747 123.777 28.728C123.777 29.4 123.542 29.9493 123.073 30.376C122.614 30.792 121.958 31 121.105 31H116.897V23H120.785C121.628 23 122.278 23.208 122.737 23.624C123.206 24.04 123.441 24.584 123.441 25.256C123.441 25.96 123.18 26.5093 122.657 26.904ZM120.593 24.696H118.833V26.136H120.593C121.18 26.136 121.473 25.896 121.473 25.416C121.473 24.936 121.18 24.696 120.593 24.696ZM120.865 29.256C121.462 29.256 121.761 29 121.761 28.488C121.761 28.264 121.681 28.088 121.521 27.96C121.361 27.832 121.142 27.768 120.865 27.768H118.833V29.256H120.865ZM128.877 31.224C127.672 31.224 126.664 30.8187 125.853 30.008C125.053 29.1973 124.653 28.1947 124.653 27C124.653 25.8053 125.053 24.8027 125.853 23.992C126.664 23.1813 127.672 22.776 128.877 22.776C129.656 22.776 130.365 22.9627 131.005 23.336C131.645 23.7093 132.13 24.2107 132.461 24.84L130.685 25.88C130.525 25.5493 130.28 25.288 129.949 25.096C129.629 24.904 129.266 24.808 128.861 24.808C128.242 24.808 127.73 25.016 127.325 25.432C126.92 25.8373 126.717 26.36 126.717 27C126.717 27.6293 126.92 28.152 127.325 28.568C127.73 28.9733 128.242 29.176 128.861 29.176C129.277 29.176 129.645 29.0853 129.965 28.904C130.296 28.712 130.541 28.4507 130.701 28.12L132.493 29.144C132.141 29.7733 131.645 30.28 131.005 30.664C130.365 31.0373 129.656 31.224 128.877 31.224ZM141.023 31H138.623L135.711 27.368V31H133.647V23H135.711V26.52L138.463 23H140.927L137.711 26.952L141.023 31ZM147.829 23H149.365V31H147.349V26.456L143.589 31H142.053V23H144.069V27.544L147.829 23ZM152.601 21.976V20.184H157.241V21.976H152.601ZM157.033 23H158.569V31H156.553V26.456L152.793 31H151.257V23H153.273V27.544L157.033 23ZM163.18 19.784L161.98 24.232H160.3L160.94 19.784H163.18ZM166.14 19.784L164.94 24.232H163.26L163.9 19.784H166.14Z" fill="#31BEF4"/>
<g filter="url(#filter1_d_2555_2)">
<circle cx="92.5" cy="73.5" r="25.5" fill="#31BEF4"/>
</g>
<path d="M92.4987 59C87.1686 59 82.832 63.3366 82.832 68.6667C82.832 70.2668 83.2321 71.8533 83.9926 73.2605L91.9701 87.6885C92.0763 87.8808 92.2787 88 92.4987 88C92.7188 88 92.9211 87.8808 93.0273 87.6885L101.008 73.2557C101.765 71.8533 102.165 70.2667 102.165 68.6666C102.165 63.3366 97.8288 59 92.4987 59ZM92.4987 73.5C89.8337 73.5 87.6654 71.3317 87.6654 68.6667C87.6654 66.0016 89.8337 63.8334 92.4987 63.8334C95.1638 63.8334 97.332 66.0016 97.332 68.6667C97.332 71.3317 95.1638 73.5 92.4987 73.5Z" fill="white"/>
<defs>
<filter id="filter0_d_2555_2" x="0" y="0" width="192" height="57" filterUnits="userSpaceOnUse" color-interpolation-filters="sRGB">
<feFlood flood-opacity="0" result="BackgroundImageFix"/>
<feColorMatrix in="SourceAlpha" type="matrix" values="0 0 0 0 0 0 0 0 0 0 0 0 0 0 0 0 0 0 127 0" result="hardAlpha"/>
<feOffset dy="3"/>
<feGaussianBlur stdDeviation="7.5"/>
<feComposite in2="hardAlpha" operator="out"/>
<feColorMatrix type="matrix" values="0 0 0 0 0.129412 0 0 0 0 0.176471 0 0 0 0 0.333333 0 0 0 0.15 0"/>
<feBlend mode="normal" in2="BackgroundImageFix" result="effect1_dropShadow_2555_2"/>
<feBlend mode="normal" in="SourceGraphic" in2="effect1_dropShadow_2555_2" result="shape"/>
</filter>
<filter id="filter1_d_2555_2" x="52" y="36" width="81" height="81" filterUnits="userSpaceOnUse" color-interpolation-filters="sRGB">
<feFlood flood-opacity="0" result="BackgroundImageFix"/>
<feColorMatrix in="SourceAlpha" type="matrix" values="0 0 0 0 0 0 0 0 0 0 0 0 0 0 0 0 0 0 127 0" result="hardAlpha"/>
<feOffset dy="3"/>
<feGaussianBlur stdDeviation="7.5"/>
<feComposite in2="hardAlpha" operator="out"/>
<feColorMatrix type="matrix" values="0 0 0 0 0.192157 0 0 0 0 0.745098 0 0 0 0 0.956863 0 0 0 0.5 0"/>
<feBlend mode="normal" in2="BackgroundImageFix" result="effect1_dropShadow_2555_2"/>
<feBlend mode="normal" in="SourceGraphic" in2="effect1_dropShadow_2555_2" result="shape"/>
</filter>
</defs>
</svg>
