<svg width="193" height="102" viewBox="0 0 193 102" fill="none" xmlns="http://www.w3.org/2000/svg">
<g clip-path="url(#clip0_2453_38)">
<g filter="url(#filter0_d_2453_38)">
<mask id="path-2-inside-1_2453_38" fill="white">
<path fill-rule="evenodd" clip-rule="evenodd" d="M168 15C173.523 15 178 19.4772 178 25V77C178 82.5229 173.523 87 168 87H25C19.4772 87 15 82.5229 15 77V59.9732C15.1667 59.9909 15.3351 60 15.5051 60C19.09 60 21.9961 55.9706 21.9961 51C21.9961 46.0294 19.09 42 15.5051 42C15.3351 42 15.1667 42.0091 15 42.0268V25C15 19.4772 19.4772 15 25 15H168Z"/>
</mask>
<path fill-rule="evenodd" clip-rule="evenodd" d="M168 15C173.523 15 178 19.4772 178 25V77C178 82.5229 173.523 87 168 87H25C19.4772 87 15 82.5229 15 77V59.9732C15.1667 59.9909 15.3351 60 15.5051 60C19.09 60 21.9961 55.9706 21.9961 51C21.9961 46.0294 19.09 42 15.5051 42C15.3351 42 15.1667 42.0091 15 42.0268V25C15 19.4772 19.4772 15 25 15H168Z" fill="white"/>
<path d="M15 59.9732H14V58.8608L15.1061 58.9788L15 59.9732ZM15 42.0268L15.1061 43.0212L14 43.1392V42.0268H15ZM177 25C177 20.0294 172.971 16 168 16V14C174.075 14 179 18.9249 179 25H177ZM177 77V25H179V77H177ZM168 86C172.971 86 177 81.9706 177 77H179C179 83.0751 174.075 88 168 88V86ZM25 86H168V88H25V86ZM16 77C16 81.9706 20.0294 86 25 86V88C18.9249 88 14 83.0751 14 77H16ZM16 59.9732V77H14V59.9732H16ZM15.1061 58.9788C15.2377 58.9928 15.3707 59 15.5051 59V61C15.2995 61 15.0957 60.989 14.8939 60.9675L15.1061 58.9788ZM15.5051 59C16.8951 59 18.2441 58.2207 19.2839 56.779C20.3226 55.3387 20.9961 53.2988 20.9961 51H22.9961C22.9961 53.6718 22.2165 56.1318 20.906 57.9489C19.5965 59.7646 17.7 61 15.5051 61V59ZM20.9961 51C20.9961 48.7012 20.3226 46.6613 19.2839 45.221C18.2441 43.7793 16.8951 43 15.5051 43V41C17.7 41 19.5965 42.2354 20.906 44.0511C22.2165 45.8682 22.9961 48.3282 22.9961 51H20.9961ZM15.5051 43C15.3707 43 15.2377 43.0072 15.1061 43.0212L14.8939 41.0325C15.0957 41.011 15.2995 41 15.5051 41V43ZM16 25V42.0268H14V25H16ZM25 16C20.0294 16 16 20.0294 16 25H14C14 18.9249 18.9249 14 25 14V16ZM168 16H25V14H168V16Z" fill="#31BEF4" mask="url(#path-2-inside-1_2453_38)"/>
</g>
</g>
<defs>
<filter id="filter0_d_2453_38" x="0" y="5" width="193" height="102" filterUnits="userSpaceOnUse" color-interpolation-filters="sRGB">
<feFlood flood-opacity="0" result="BackgroundImageFix"/>
<feColorMatrix in="SourceAlpha" type="matrix" values="0 0 0 0 0 0 0 0 0 0 0 0 0 0 0 0 0 0 127 0" result="hardAlpha"/>
<feOffset dy="5"/>
<feGaussianBlur stdDeviation="7.5"/>
<feComposite in2="hardAlpha" operator="out"/>
<feColorMatrix type="matrix" values="0 0 0 0 0.129412 0 0 0 0 0.176471 0 0 0 0 0.333333 0 0 0 0.1 0"/>
<feBlend mode="normal" in2="BackgroundImageFix" result="effect1_dropShadow_2453_38"/>
<feBlend mode="normal" in="SourceGraphic" in2="effect1_dropShadow_2453_38" result="shape"/>
</filter>
<clipPath id="clip0_2453_38">
<rect width="193" height="102" rx="10" fill="white"/>
</clipPath>
</defs>
</svg>
