<svg width="119" height="107" viewBox="0 0 119 107" fill="none" xmlns="http://www.w3.org/2000/svg">
<g clip-path="url(#clip0_2420_265)">
<g clip-path="url(#clip1_2420_265)">
<g filter="url(#filter0_d_2420_265)">
<path fill-rule="evenodd" clip-rule="evenodd" d="M28 19C22.4772 19 18 23.4772 18 29V46.3862C20.653 46.7685 22.7195 49.8076 22.7195 53.5C22.7195 57.1924 20.653 60.2315 18 60.6139V78C18 83.5229 22.4771 88 28 88H92.2748C97.7977 88 102.275 83.5228 102.275 78V29C102.275 23.4772 97.7977 19 92.2748 19H28Z" fill="white"/>
</g>
<path d="M81.1077 66.8594H78.6142L66.3418 42.1889L66.8827 40.3918C67.0214 39.9309 67.0593 39.4479 66.9942 38.9726C66.9291 38.4973 66.7623 38.0397 66.504 37.6278C66.2457 37.2159 65.9015 36.8586 65.4924 36.5776C65.0833 36.2967 64.618 36.0981 64.1251 35.9941L63.2536 35.8103C62.3322 35.6169 61.3677 35.7643 60.5568 36.2225C59.7458 36.6807 59.1495 37.4152 58.8892 38.2763L57.0583 44.3594H55.5703L54.4906 42.1889L55.0315 40.3918C55.1702 39.9309 55.2082 39.4479 55.1431 38.9726C55.0779 38.4973 54.9111 38.0397 54.6529 37.6278C54.3946 37.2159 54.0503 36.8586 53.6412 36.5776C53.2321 36.2967 52.7668 36.0981 52.2739 35.9941L51.3781 35.8052C50.4623 35.6145 49.5044 35.7596 48.6966 36.2114C47.8889 36.6632 47.291 37.3882 47.0229 38.2411L37.4343 70.1832C37.4078 70.272 37.4 70.365 37.4113 70.4567C37.4226 70.5485 37.4528 70.6372 37.5002 70.7179C37.5477 70.7986 37.6114 70.8696 37.6877 70.9268C37.7641 70.9841 37.8515 71.0266 37.9452 71.0518C38.0388 71.077 38.1367 71.0844 38.2334 71.0737C38.33 71.063 38.4235 71.0343 38.5085 70.9892C38.5934 70.9442 38.6682 70.8837 38.7286 70.8113C38.7889 70.7388 38.8336 70.6558 38.8602 70.5669L39.9673 66.8594H50.2862L49.2862 70.1817C49.2595 70.2704 49.2514 70.3634 49.2625 70.4551C49.2736 70.5468 49.3036 70.6356 49.3508 70.7163C49.398 70.7971 49.4615 70.8682 49.5377 70.9256C49.6139 70.9831 49.7012 71.0257 49.7947 71.0511C49.8882 71.0765 49.9861 71.0841 50.0828 71.0736C50.1794 71.0631 50.2729 71.0346 50.358 70.9898C50.443 70.945 50.5179 70.8847 50.5784 70.8124C50.6389 70.7401 50.6838 70.6572 50.7106 70.5684L55.4747 54.74L63.4019 70.6754C63.4618 70.7959 63.5566 70.8977 63.6752 70.969C63.7938 71.0403 63.9313 71.0782 64.0717 71.0781H81.1077C81.3041 71.0781 81.4925 71.0041 81.6314 70.8722C81.7703 70.7403 81.8484 70.5615 81.8484 70.375V67.5625C81.8484 67.376 81.7703 67.1972 81.6314 67.0653C81.4925 66.9335 81.3041 66.8594 81.1077 66.8594ZM60.3136 38.6627C60.4696 38.1459 60.8274 37.7051 61.314 37.4302C61.8006 37.1553 62.3793 37.0669 62.9322 37.1831L63.8037 37.3669C64.0994 37.4293 64.3786 37.5484 64.6241 37.717C64.8695 37.8856 65.0761 38.1 65.231 38.3471C65.386 38.5942 65.4861 38.8688 65.5252 39.154C65.5642 39.4392 65.5415 39.7289 65.4582 40.0055L64.9943 41.5469H59.4455L60.3136 38.6627ZM48.444 38.6395C48.6048 38.1279 48.9635 37.6929 49.4481 37.4218C49.9327 37.1508 50.5073 37.0636 51.0567 37.1779L51.9526 37.3669C52.2483 37.4293 52.5275 37.5484 52.773 37.717C53.0184 37.8856 53.225 38.1 53.3799 38.3471C53.5349 38.5943 53.635 38.8689 53.674 39.1541C53.7131 39.4393 53.6903 39.729 53.6071 40.0056L53.1432 41.5469H47.5388L48.444 38.6395ZM42.9074 57.0156L43.7474 54.2031H54.0955L53.249 57.0156H42.9074ZM52.8257 58.4219L51.9792 61.2344H41.6471L42.4871 58.4219H52.8257ZM44.1674 52.7969L45.0074 49.9844H53.1088L54.5079 52.7969H44.1674ZM45.4275 48.5781L46.2675 45.7656H51.0105L52.4096 48.5781H45.4275ZM40.3872 65.4531L41.2273 62.6406H51.556L50.7095 65.4531H40.3872ZM68.5158 69.6719H64.541L52.1496 44.7623C52.0896 44.6418 51.9949 44.5399 51.8763 44.4686C51.7577 44.3973 51.6202 44.3594 51.4798 44.3594H46.6875L47.1076 42.9531H53.2326L65.624 67.8628C65.6839 67.9833 65.7787 68.0851 65.8973 68.1564C66.0159 68.2278 66.1534 68.2656 66.2937 68.2656H68.5158V69.6719ZM69.9972 69.6719V67.5625C69.9972 67.376 69.9192 67.1972 69.7803 67.0653C69.6414 66.9335 69.453 66.8594 69.2565 66.8594H66.7631L56.2699 45.7656H62.8616L74.7539 69.6719H69.9972ZM80.367 69.6719H76.3921L64.0007 44.7623C63.9408 44.6418 63.846 44.5399 63.7274 44.4686C63.6088 44.3973 63.4713 44.3594 63.331 44.3594H58.599L59.0222 42.9531H65.0837L77.4751 67.8628C77.5351 67.9833 77.6298 68.0851 77.7484 68.1564C77.867 68.2278 78.0045 68.2656 78.1449 68.2656H80.367V69.6719Z" fill="#212D55"/>
</g>
</g>
<defs>
<filter id="filter0_d_2420_265" x="-2" y="4" width="124.273" height="109" filterUnits="userSpaceOnUse" color-interpolation-filters="sRGB">
<feFlood flood-opacity="0" result="BackgroundImageFix"/>
<feColorMatrix in="SourceAlpha" type="matrix" values="0 0 0 0 0 0 0 0 0 0 0 0 0 0 0 0 0 0 127 0" result="hardAlpha"/>
<feOffset dy="5"/>
<feGaussianBlur stdDeviation="10"/>
<feComposite in2="hardAlpha" operator="out"/>
<feColorMatrix type="matrix" values="0 0 0 0 0.129412 0 0 0 0 0.176471 0 0 0 0 0.333333 0 0 0 0.2 0"/>
<feBlend mode="normal" in2="BackgroundImageFix" result="effect1_dropShadow_2420_265"/>
<feBlend mode="normal" in="SourceGraphic" in2="effect1_dropShadow_2420_265" result="shape"/>
</filter>
<clipPath id="clip0_2420_265">
<rect width="119" height="107" fill="white"/>
</clipPath>
<clipPath id="clip1_2420_265">
<rect width="119" height="107" fill="white"/>
</clipPath>
</defs>
</svg>
