<svg width="119" height="107" viewBox="0 0 119 107" fill="none" xmlns="http://www.w3.org/2000/svg">
<g clip-path="url(#clip0_2420_265)">
<g clip-path="url(#clip1_2420_265)">
<g filter="url(#filter0_d_2420_265)">
<path fill-rule="evenodd" clip-rule="evenodd" d="M30 19C24.4772 19 20 23.4772 20 29V46.3892C22.509 46.7842 24.4606 49.8171 24.4606 53.5C24.4606 57.1829 22.509 60.2159 20 60.6109V78C20 83.5229 24.4772 88 30 88H90C95.5229 88 100 83.5228 100 78V29C100 23.4772 95.5229 19 90 19H30Z" fill="white"/>
</g>
<g clip-path="url(#clip2_2420_265)">
<path d="M47.072 75.0901C46.5789 75.0901 46.0893 74.9363 45.6715 74.6341C44.8932 74.07 44.5296 73.1005 44.7414 72.1649L47.6364 59.4125L37.8185 50.8025C37.0968 50.1725 36.8211 49.1747 37.1174 48.2618C37.4137 47.3506 38.2198 46.7055 39.1743 46.6173L52.1646 45.4379L57.3005 33.4189C57.6792 32.5358 58.5416 31.9656 59.4999 31.9656C60.4581 31.9656 61.3206 32.5359 61.6993 33.4168L66.8352 45.4379L79.8234 46.6173C80.7799 46.7034 81.586 47.3506 81.8823 48.2618C82.1786 49.173 81.9047 50.1725 81.183 50.8025L71.3651 59.4108L74.26 72.1628C74.4722 73.1005 74.1083 74.07 73.3303 74.6324C72.554 75.1948 71.5189 75.2381 70.7014 74.7468L59.4999 68.0528L48.2983 74.7505C47.9196 74.9754 47.4977 75.0901 47.072 75.0901V75.0901ZM59.4999 65.1692C59.9256 65.1692 60.3472 65.2835 60.7263 65.5084L71.2978 71.8312L68.5655 59.795C68.3705 58.9384 68.6613 58.044 69.3233 57.4645L78.5936 49.3344L66.3287 48.2206C65.4457 48.1399 64.6862 47.5848 64.3412 46.7711L59.4999 35.4288L54.6527 46.7728C54.3114 47.581 53.552 48.1362 52.671 48.2168L40.4045 49.3306L49.6744 57.4607C50.3384 58.042 50.6289 58.9346 50.4321 59.7933L47.702 71.8291L58.2735 65.5084C58.6522 65.2835 59.0741 65.1692 59.4999 65.1692V65.1692ZM52.0654 45.6703C52.0654 45.6703 52.0654 45.6724 52.0633 45.6741L52.0654 45.6703ZM66.9306 45.6649L66.9327 45.6686C66.9327 45.6666 66.9327 45.6666 66.9306 45.6649Z" fill="#212D55"/>
</g>
</g>
</g>
<defs>
<filter id="filter0_d_2420_265" x="0" y="4" width="120" height="109" filterUnits="userSpaceOnUse" color-interpolation-filters="sRGB">
<feFlood flood-opacity="0" result="BackgroundImageFix"/>
<feColorMatrix in="SourceAlpha" type="matrix" values="0 0 0 0 0 0 0 0 0 0 0 0 0 0 0 0 0 0 127 0" result="hardAlpha"/>
<feOffset dy="5"/>
<feGaussianBlur stdDeviation="10"/>
<feComposite in2="hardAlpha" operator="out"/>
<feColorMatrix type="matrix" values="0 0 0 0 0.129412 0 0 0 0 0.176471 0 0 0 0 0.333333 0 0 0 0.2 0"/>
<feBlend mode="normal" in2="BackgroundImageFix" result="effect1_dropShadow_2420_265"/>
<feBlend mode="normal" in="SourceGraphic" in2="effect1_dropShadow_2420_265" result="shape"/>
</filter>
<clipPath id="clip0_2420_265">
<rect width="119" height="107" fill="white"/>
</clipPath>
<clipPath id="clip1_2420_265">
<rect width="119" height="107" fill="white"/>
</clipPath>
<clipPath id="clip2_2420_265">
<rect width="45" height="45" fill="white" transform="translate(37 31)"/>
</clipPath>
</defs>
</svg>
