<svg width="119" height="107" viewBox="0 0 119 107" fill="none" xmlns="http://www.w3.org/2000/svg">
<g clip-path="url(#clip0_2420_265)">
<g filter="url(#filter0_d_2420_265)">
<path fill-rule="evenodd" clip-rule="evenodd" d="M30 19C24.4772 19 20 23.4772 20 29V46.3892C22.509 46.7842 24.4606 49.8171 24.4606 53.5C24.4606 57.1829 22.509 60.2159 20 60.6109V78C20 83.5229 24.4772 88 30 88H90C95.5229 88 100 83.5228 100 78V29C100 23.4772 95.5229 19 90 19H30Z" fill="white"/>
</g>
<g clip-path="url(#clip1_2420_265)">
<path d="M81.25 74.5H76.75V49.75C76.75 49.3358 76.4142 49 76 49H65.5V31.75C65.5 31.3358 65.1642 31 64.75 31H45.25C44.8358 31 44.5 31.3358 44.5 31.75V74.5H37.75C37.3358 74.5 37 74.8358 37 75.25C37 75.6642 37.3358 76 37.75 76H81.25C81.6642 76 82 75.6642 82 75.25C82 74.8358 81.6642 74.5 81.25 74.5ZM52.75 74.5H49.75V67.75C49.75 67.3358 50.0858 67 50.5 67H52C52.4142 67 52.75 67.3358 52.75 67.75V74.5ZM55.75 49.75V74.5H54.25V67.75C54.25 66.5073 53.2427 65.5 52 65.5H50.5C49.2573 65.5 48.25 66.5073 48.25 67.75V74.5H46V32.5H64V49H56.5C56.0858 49 55.75 49.3358 55.75 49.75ZM75.25 74.5H57.25V50.5H75.25V74.5Z" fill="#212D55"/>
<path d="M61 41.5H56.5C56.0858 41.5 55.75 41.8358 55.75 42.25V46.75C55.75 47.1642 56.0858 47.5 56.5 47.5H61C61.4142 47.5 61.75 47.1642 61.75 46.75V42.25C61.75 41.8358 61.4142 41.5 61 41.5ZM60.25 46H57.25V43H60.25V46Z" fill="#212D55"/>
<path d="M61 34H56.5C56.0858 34 55.75 34.3358 55.75 34.75V39.25C55.75 39.6642 56.0858 40 56.5 40H61C61.4142 40 61.75 39.6642 61.75 39.25V34.75C61.75 34.3358 61.4142 34 61 34ZM60.25 38.5H57.25V35.5H60.25V38.5Z" fill="#212D55"/>
<path d="M53.5 41.5H49C48.5858 41.5 48.25 41.8358 48.25 42.25V46.75C48.25 47.1642 48.5858 47.5 49 47.5H53.5C53.9142 47.5 54.25 47.1642 54.25 46.75V42.25C54.25 41.8358 53.9142 41.5 53.5 41.5ZM52.75 46H49.75V43H52.75V46Z" fill="#212D55"/>
<path d="M53.5 34H49C48.5858 34 48.25 34.3358 48.25 34.75V39.25C48.25 39.6642 48.5858 40 49 40H53.5C53.9142 40 54.25 39.6642 54.25 39.25V34.75C54.25 34.3358 53.9142 34 53.5 34ZM52.75 38.5H49.75V35.5H52.75V38.5Z" fill="#212D55"/>
<path d="M53.5 49H49C48.5858 49 48.25 49.3358 48.25 49.75V54.25C48.25 54.6642 48.5858 55 49 55H53.5C53.9142 55 54.25 54.6642 54.25 54.25V49.75C54.25 49.3358 53.9142 49 53.5 49ZM52.75 53.5H49.75V50.5H52.75V53.5Z" fill="#212D55"/>
<path d="M53.5 56.5H49C48.5858 56.5 48.25 56.8358 48.25 57.25V61.75C48.25 62.1642 48.5858 62.5 49 62.5H53.5C53.9142 62.5 54.25 62.1642 54.25 61.75V57.25C54.25 56.8358 53.9142 56.5 53.5 56.5ZM52.75 61H49.75V58H52.75V61Z" fill="#212D55"/>
<path d="M67.75 65.5H72.25C72.6642 65.5 73 65.1642 73 64.75V60.25C73 59.8358 72.6642 59.5 72.25 59.5H67.75C67.3358 59.5 67 59.8358 67 60.25V64.75C67 65.1642 67.3358 65.5 67.75 65.5ZM68.5 61H71.5V64H68.5V61Z" fill="#212D55"/>
<path d="M67.75 58H72.25C72.6642 58 73 57.6642 73 57.25V52.75C73 52.3358 72.6642 52 72.25 52H67.75C67.3358 52 67 52.3358 67 52.75V57.25C67 57.6642 67.3358 58 67.75 58ZM68.5 53.5H71.5V56.5H68.5V53.5Z" fill="#212D55"/>
<path d="M67.75 73H72.25C72.6642 73 73 72.6642 73 72.25V67.75C73 67.3358 72.6642 67 72.25 67H67.75C67.3358 67 67 67.3358 67 67.75V72.25C67 72.6642 67.3358 73 67.75 73ZM68.5 68.5H71.5V71.5H68.5V68.5Z" fill="#212D55"/>
<path d="M60.25 65.5H64.75C65.1642 65.5 65.5 65.1642 65.5 64.75V60.25C65.5 59.8358 65.1642 59.5 64.75 59.5H60.25C59.8358 59.5 59.5 59.8358 59.5 60.25V64.75C59.5 65.1642 59.8358 65.5 60.25 65.5ZM61 61H64V64H61V61Z" fill="#212D55"/>
<path d="M60.25 58H64.75C65.1642 58 65.5 57.6642 65.5 57.25V52.75C65.5 52.3358 65.1642 52 64.75 52H60.25C59.8358 52 59.5 52.3358 59.5 52.75V57.25C59.5 57.6642 59.8358 58 60.25 58ZM61 53.5H64V56.5H61V53.5Z" fill="#212D55"/>
<path d="M60.25 73H64.75C65.1642 73 65.5 72.6642 65.5 72.25V67.75C65.5 67.3358 65.1642 67 64.75 67H60.25C59.8358 67 59.5 67.3358 59.5 67.75V72.25C59.5 72.6642 59.8358 73 60.25 73ZM61 68.5H64V71.5H61V68.5Z" fill="#212D55"/>
</g>
</g>
<defs>
<filter id="filter0_d_2420_265" x="0" y="4" width="120" height="109" filterUnits="userSpaceOnUse" color-interpolation-filters="sRGB">
<feFlood flood-opacity="0" result="BackgroundImageFix"/>
<feColorMatrix in="SourceAlpha" type="matrix" values="0 0 0 0 0 0 0 0 0 0 0 0 0 0 0 0 0 0 127 0" result="hardAlpha"/>
<feOffset dy="5"/>
<feGaussianBlur stdDeviation="10"/>
<feComposite in2="hardAlpha" operator="out"/>
<feColorMatrix type="matrix" values="0 0 0 0 0.129412 0 0 0 0 0.176471 0 0 0 0 0.333333 0 0 0 0.2 0"/>
<feBlend mode="normal" in2="BackgroundImageFix" result="effect1_dropShadow_2420_265"/>
<feBlend mode="normal" in="SourceGraphic" in2="effect1_dropShadow_2420_265" result="shape"/>
</filter>
<clipPath id="clip0_2420_265">
<rect width="119" height="107" fill="white"/>
</clipPath>
<clipPath id="clip1_2420_265">
<rect width="45" height="45" fill="white" transform="translate(37 31)"/>
</clipPath>
</defs>
</svg>
