<svg width="73" height="73" viewBox="0 0 73 73" fill="none" xmlns="http://www.w3.org/2000/svg">
<path d="M71.2451 35.268L37.7477 1.66673C37.0694 0.986329 35.9697 0.986329 35.2914 1.66673L1.79397 35.268C1.11567 35.9484 1.11567 37.0515 1.79397 37.7319L35.2914 71.3332C35.9697 72.0136 37.0694 72.0136 37.7477 71.3332L71.2451 37.7319C71.9234 37.0515 71.9234 35.9484 71.2451 35.268Z" fill="url(#paint0_linear_2382_9)"/>
<path d="M49.1344 59.2236C44.9246 61.4186 45.8697 61.3338 40.7231 61.7705C35.5761 62.2069 30.398 61.3248 25.7739 59.2236C21.1498 57.1223 17.2646 53.8861 14.5578 49.881C11.851 45.8758 10.4306 41.2617 10.4574 36.5603C10.4842 31.859 11.9571 27.2585 14.7094 23.279C17.4617 19.2996 21.3836 16.1001 26.0314 14.0427C30.6792 11.9852 35.8672 11.1519 41.0086 11.6369C46.1501 12.122 47.4625 12.461 51.547 15.3422L49.1344 23.8114C46.4912 21.947 43.3273 20.7925 40.0004 20.4786C36.6735 20.1647 33.3161 20.704 30.3086 22.0354C27.3011 23.3667 24.7632 25.4371 22.9822 28.0121C21.2012 30.5872 20.2481 33.5642 20.2308 36.6065C20.2134 39.6486 21.1325 42.6343 22.8841 45.2261C24.6357 47.8179 27.1498 49.9119 30.142 51.2717C33.1342 52.6312 36.4849 53.202 39.8153 52.9195C43.146 52.6371 46.3227 51.5125 48.987 49.6732L49.1344 59.2236Z" fill="#D0D0D0"/>
<defs>
<linearGradient id="paint0_linear_2382_9" x1="54.4965" y1="18.4675" x2="18.4315" y2="54.421" gradientUnits="userSpaceOnUse">
<stop stop-color="#212D55"/>
<stop offset="0.491587" stop-color="#212D55" stop-opacity="0.38"/>
<stop offset="1" stop-color="#212D55"/>
</linearGradient>
</defs>
</svg>
