<svg width="267" height="92" viewBox="0 0 267 92" fill="none" xmlns="http://www.w3.org/2000/svg">
<g clip-path="url(#clip0_2468_20)">
<g filter="url(#filter0_d_2468_20)">
<path fill-rule="evenodd" clip-rule="evenodd" d="M19 10C13.4772 10 9 14.4772 9 20V38.0164C9.16526 38.0055 9.33199 38 9.5 38C13.6421 38 17 41.3579 17 45.5C17 49.6421 13.6421 53 9.5 53C9.33199 53 9.16526 52.9945 9 52.9836V71C9 76.5229 13.4772 81 19 81H248C253.523 81 258 76.5229 258 71V20C258 14.4772 253.523 10 248 10H19Z" fill="white"/>
</g>
</g>
<defs>
<filter id="filter0_d_2468_20" x="-6" y="0" width="279" height="101" filterUnits="userSpaceOnUse" color-interpolation-filters="sRGB">
<feFlood flood-opacity="0" result="BackgroundImageFix"/>
<feColorMatrix in="SourceAlpha" type="matrix" values="0 0 0 0 0 0 0 0 0 0 0 0 0 0 0 0 0 0 127 0" result="hardAlpha"/>
<feOffset dy="5"/>
<feGaussianBlur stdDeviation="7.5"/>
<feComposite in2="hardAlpha" operator="out"/>
<feColorMatrix type="matrix" values="0 0 0 0 0.129412 0 0 0 0 0.176471 0 0 0 0 0.333333 0 0 0 0.1 0"/>
<feBlend mode="normal" in2="BackgroundImageFix" result="effect1_dropShadow_2468_20"/>
<feBlend mode="normal" in="SourceGraphic" in2="effect1_dropShadow_2468_20" result="shape"/>
</filter>
<clipPath id="clip0_2468_20">
<rect width="267" height="92" fill="white"/>
</clipPath>
</defs>
</svg>
