<svg width="119" height="107" viewBox="0 0 119 107" fill="none" xmlns="http://www.w3.org/2000/svg">
<g clip-path="url(#clip0_2420_265)">
<g clip-path="url(#clip1_2420_265)">
<g filter="url(#filter0_d_2420_265)">
<path fill-rule="evenodd" clip-rule="evenodd" d="M30 19C24.4772 19 20 23.4772 20 29V46.3892C22.509 46.7842 24.4606 49.8171 24.4606 53.5C24.4606 57.1829 22.509 60.2159 20 60.6109V78C20 83.5229 24.4772 88 30 88H90C95.5229 88 100 83.5228 100 78V29C100 23.4772 95.5229 19 90 19H30Z" fill="white"/>
</g>
<path d="M37.7031 70.375H81.2969C81.6857 70.375 82 70.0607 82 69.6719V60.5298V55.6115C82 54.0597 80.7372 52.7969 79.1854 52.7969H71.3216C71.0291 51.9827 70.2578 51.3955 69.3438 51.3955H66.5453C66.5404 51.3955 66.5362 51.3927 66.5312 51.3927C65.3683 51.3927 64.4219 50.4463 64.4219 49.2834V41.5469C64.4219 38.8335 62.2134 36.625 59.5 36.625C56.7866 36.625 54.5781 38.8335 54.5781 41.5469V49.2834C54.5781 50.4463 53.6317 51.3927 52.4688 51.3927C52.4638 51.3927 52.4596 51.3955 52.4547 51.3955H49.6562C48.7422 51.3955 47.9709 51.9827 47.6784 52.7969H39.8146C39.8083 52.7969 39.8027 52.8004 39.7963 52.8004C38.2523 52.8102 37 54.066 37 55.6115V60.5298V69.6719C37 70.0607 37.3143 70.375 37.7031 70.375V70.375ZM80.5938 66.8594H38.4062V61.233H80.5938V66.8594ZM38.4062 68.9688V68.2656H80.5938V68.9688H38.4062ZM55.9844 49.2834V41.5469C55.9844 39.6084 57.5615 38.0312 59.5 38.0312C61.4385 38.0312 63.0156 39.6084 63.0156 41.5469V49.2834C63.0156 51.212 64.5787 52.7814 66.5038 52.7962C66.5137 52.7969 66.5214 52.8018 66.5312 52.8018H69.3438C69.7319 52.8018 70.0469 53.1168 70.0469 53.5049V57.0177H48.9531V53.5049C48.9531 53.1168 49.2681 52.8018 49.6562 52.8018H52.4688C52.4786 52.8018 52.4863 52.7969 52.4962 52.7962C54.4213 52.7814 55.9844 51.212 55.9844 49.2834V49.2834ZM39.8125 54.2052C39.816 54.2052 39.8195 54.2031 39.823 54.2031H47.5469V57.7209C47.5469 58.1097 47.8612 58.424 48.25 58.424H70.75C71.1388 58.424 71.4531 58.1097 71.4531 57.7209V54.2031H79.1854C79.9623 54.2031 80.5938 54.8345 80.5938 55.6115V59.8267H38.4062V55.6115C38.4062 54.8359 39.037 54.2052 39.8125 54.2052Z" fill="#212D55"/>
<path d="M59.5 43.6555C60.663 43.6555 61.6094 42.7091 61.6094 41.5461C61.6094 40.3832 60.663 39.4368 59.5 39.4368C58.337 39.4368 57.3906 40.3832 57.3906 41.5461C57.3906 42.7091 58.337 43.6555 59.5 43.6555ZM59.5 40.843C59.8881 40.843 60.2031 41.158 60.2031 41.5461C60.2031 41.9343 59.8881 42.2493 59.5 42.2493C59.1119 42.2493 58.7969 41.9343 58.7969 41.5461C58.7969 41.158 59.1119 40.843 59.5 40.843Z" fill="#212D55"/>
</g>
</g>
<defs>
<filter id="filter0_d_2420_265" x="0" y="4" width="120" height="109" filterUnits="userSpaceOnUse" color-interpolation-filters="sRGB">
<feFlood flood-opacity="0" result="BackgroundImageFix"/>
<feColorMatrix in="SourceAlpha" type="matrix" values="0 0 0 0 0 0 0 0 0 0 0 0 0 0 0 0 0 0 127 0" result="hardAlpha"/>
<feOffset dy="5"/>
<feGaussianBlur stdDeviation="10"/>
<feComposite in2="hardAlpha" operator="out"/>
<feColorMatrix type="matrix" values="0 0 0 0 0.129412 0 0 0 0 0.176471 0 0 0 0 0.333333 0 0 0 0.2 0"/>
<feBlend mode="normal" in2="BackgroundImageFix" result="effect1_dropShadow_2420_265"/>
<feBlend mode="normal" in="SourceGraphic" in2="effect1_dropShadow_2420_265" result="shape"/>
</filter>
<clipPath id="clip0_2420_265">
<rect width="119" height="107" fill="white"/>
</clipPath>
<clipPath id="clip1_2420_265">
<rect width="119" height="107" fill="white"/>
</clipPath>
</defs>
</svg>
