<svg width="119" height="107" viewBox="0 0 119 107" fill="none" xmlns="http://www.w3.org/2000/svg">
<g clip-path="url(#clip0_2420_342)">
<g filter="url(#filter0_d_2420_342)">
<path fill-rule="evenodd" clip-rule="evenodd" d="M30 19C24.4772 19 20 23.4772 20 29V46.3892C22.509 46.7842 24.4606 49.8171 24.4606 53.5C24.4606 57.1829 22.509 60.2159 20 60.6109V78C20 83.5229 24.4772 88 30 88H90C95.5229 88 100 83.5228 100 78V29C100 23.4772 95.5229 19 90 19H30Z" fill="white"/>
</g>
<path d="M68.0661 69.9688C67.9048 69.9688 67.7501 69.9048 67.6361 69.7907C67.522 69.6767 67.458 69.522 67.458 69.3607V37.0568L59.7508 33.8235L53.2787 36.3696V69.3607C53.2787 69.522 53.2146 69.6767 53.1006 69.7907C52.9866 69.9048 52.8319 69.9688 52.6706 69.9688C52.5093 69.9688 52.3547 69.9048 52.2406 69.7907C52.1266 69.6767 52.0625 69.522 52.0625 69.3607V35.9549C52.0625 35.8327 52.0992 35.7134 52.168 35.6124C52.2367 35.5114 52.3343 35.4335 52.448 35.3888L59.5355 32.6006C59.683 32.5425 59.8473 32.5442 59.9934 32.6054L68.3014 36.0917C68.4119 36.1381 68.5062 36.216 68.5725 36.3158C68.6388 36.4155 68.6742 36.5326 68.6742 36.6524V69.3607C68.6742 69.522 68.6101 69.6767 68.4961 69.7907C68.382 69.9048 68.2274 69.9688 68.0661 69.9688Z" fill="#212D55"/>
<path d="M59.7565 69.9688C59.5953 69.9688 59.4406 69.9047 59.3265 69.7907C59.2125 69.6767 59.1484 69.522 59.1484 69.3607V33.1667C59.1484 33.0054 59.2125 32.8507 59.3265 32.7367C59.4406 32.6227 59.5953 32.5586 59.7565 32.5586C59.9178 32.5586 60.0725 32.6227 60.1865 32.7367C60.3006 32.8507 60.3647 33.0054 60.3647 33.1667V69.3607C60.3647 69.522 60.3006 69.6767 60.1865 69.7907C60.0725 69.9047 59.9178 69.9688 59.7565 69.9688Z" fill="#212D55"/>
<path d="M77.883 69.9687C77.7218 69.9687 77.5671 69.9047 77.4531 69.7906C77.339 69.6766 77.2749 69.5219 77.2749 69.3606V50.2478L71.3289 46.7882H68.0651C67.9039 46.7882 67.7492 46.7242 67.6351 46.6101C67.5211 46.4961 67.457 46.3414 67.457 46.1801C67.457 46.0188 67.5211 45.8642 67.6351 45.7501C67.7492 45.6361 67.9039 45.572 68.0651 45.572H71.493C71.5999 45.5724 71.7048 45.6009 71.7971 45.6547L78.1877 49.3727C78.28 49.426 78.3566 49.5025 78.41 49.5947C78.4633 49.687 78.4915 49.7916 78.4918 49.8981V69.3576C78.4922 69.4377 78.4767 69.5172 78.4463 69.5914C78.4159 69.6655 78.3711 69.733 78.3145 69.7898C78.2579 69.8465 78.1907 69.8916 78.1167 69.9223C78.0426 69.953 77.9632 69.9688 77.883 69.9687V69.9687Z" fill="#212D55"/>
<path d="M71.4948 69.9687C71.3335 69.9687 71.1789 69.9047 71.0648 69.7906C70.9508 69.6766 70.8867 69.5219 70.8867 69.3606V46.1801C70.8867 46.0188 70.9508 45.8642 71.0648 45.7501C71.1789 45.6361 71.3335 45.572 71.4948 45.572C71.6561 45.572 71.8108 45.6361 71.9248 45.7501C72.0389 45.8642 72.1029 46.0188 72.1029 46.1801V69.3606C72.1029 69.5219 72.0389 69.6766 71.9248 69.7906C71.8108 69.9047 71.6561 69.9687 71.4948 69.9687Z" fill="#212D55"/>
<path d="M40.1784 69.9687C40.0171 69.9687 39.8625 69.9047 39.7484 69.7906C39.6344 69.6766 39.5703 69.5219 39.5703 69.3606V50.4211C39.5703 50.2598 39.6344 50.1051 39.7484 49.9911C39.8625 49.8771 40.0171 49.813 40.1784 49.813H52.6696C52.8308 49.813 52.9855 49.8771 53.0996 49.9911C53.2136 50.1051 53.2777 50.2598 53.2777 50.4211C53.2777 50.5824 53.2136 50.7371 53.0996 50.8511C52.9855 50.9651 52.8308 51.0292 52.6696 51.0292H40.7865V69.3606C40.7865 69.5219 40.7225 69.6766 40.6084 69.7906C40.4944 69.9047 40.3397 69.9687 40.1784 69.9687V69.9687Z" fill="#212D55"/>
<path d="M43.5292 53.365H42.237C42.0757 53.365 41.9211 53.301 41.807 53.1869C41.693 53.0729 41.6289 52.9182 41.6289 52.7569C41.6289 52.5956 41.693 52.441 41.807 52.3269C41.9211 52.2129 42.0757 52.1488 42.237 52.1488H43.5292C43.6905 52.1488 43.8452 52.2129 43.9592 52.3269C44.0733 52.441 44.1374 52.5956 44.1374 52.7569C44.1374 52.9182 44.0733 53.0729 43.9592 53.1869C43.8452 53.301 43.6905 53.365 43.5292 53.365Z" fill="#212D55"/>
<path d="M47.0728 53.365H45.78C45.6187 53.365 45.464 53.301 45.35 53.1869C45.2359 53.0729 45.1719 52.9182 45.1719 52.7569C45.1719 52.5956 45.2359 52.441 45.35 52.3269C45.464 52.2129 45.6187 52.1488 45.78 52.1488H47.0728C47.2341 52.1488 47.3888 52.2129 47.5028 52.3269C47.6169 52.441 47.6809 52.5956 47.6809 52.7569C47.6809 52.9182 47.6169 53.0729 47.5028 53.1869C47.3888 53.301 47.2341 53.365 47.0728 53.365Z" fill="#212D55"/>
<path d="M50.6152 53.365H49.323C49.1617 53.365 49.007 53.301 48.893 53.1869C48.7789 53.0729 48.7148 52.9182 48.7148 52.7569C48.7148 52.5956 48.7789 52.441 48.893 52.3269C49.007 52.2129 49.1617 52.1488 49.323 52.1488H50.6152C50.7765 52.1488 50.9311 52.2129 51.0452 52.3269C51.1592 52.441 51.2233 52.5956 51.2233 52.7569C51.2233 52.9182 51.1592 53.0729 51.0452 53.1869C50.9311 53.301 50.7765 53.365 50.6152 53.365Z" fill="#212D55"/>
<path d="M43.5292 56.2189H42.237C42.0757 56.2189 41.9211 56.1548 41.807 56.0408C41.693 55.9268 41.6289 55.7721 41.6289 55.6108C41.6289 55.4495 41.693 55.2948 41.807 55.1808C41.9211 55.0668 42.0757 55.0027 42.237 55.0027H43.5292C43.6905 55.0027 43.8452 55.0668 43.9592 55.1808C44.0733 55.2948 44.1374 55.4495 44.1374 55.6108C44.1374 55.7721 44.0733 55.9268 43.9592 56.0408C43.8452 56.1548 43.6905 56.2189 43.5292 56.2189Z" fill="#212D55"/>
<path d="M47.0728 56.2189H45.78C45.6187 56.2189 45.464 56.1548 45.35 56.0408C45.2359 55.9268 45.1719 55.7721 45.1719 55.6108C45.1719 55.4495 45.2359 55.2948 45.35 55.1808C45.464 55.0668 45.6187 55.0027 45.78 55.0027H47.0728C47.2341 55.0027 47.3888 55.0668 47.5028 55.1808C47.6169 55.2948 47.6809 55.4495 47.6809 55.6108C47.6809 55.7721 47.6169 55.9268 47.5028 56.0408C47.3888 56.1548 47.2341 56.2189 47.0728 56.2189Z" fill="#212D55"/>
<path d="M50.6152 56.2189H49.323C49.1617 56.2189 49.007 56.1548 48.893 56.0408C48.7789 55.9268 48.7148 55.7721 48.7148 55.6108C48.7148 55.4495 48.7789 55.2948 48.893 55.1808C49.007 55.0668 49.1617 55.0027 49.323 55.0027H50.6152C50.7765 55.0027 50.9311 55.0668 51.0452 55.1808C51.1592 55.2948 51.2233 55.4495 51.2233 55.6108C51.2233 55.7721 51.1592 55.9268 51.0452 56.0408C50.9311 56.1548 50.7765 56.2189 50.6152 56.2189Z" fill="#212D55"/>
<path d="M43.5292 59.0722H42.237C42.0757 59.0722 41.9211 59.0081 41.807 58.8941C41.693 58.78 41.6289 58.6253 41.6289 58.4641C41.6289 58.3028 41.693 58.1481 41.807 58.0341C41.9211 57.92 42.0757 57.856 42.237 57.856H43.5292C43.6905 57.856 43.8452 57.92 43.9592 58.0341C44.0733 58.1481 44.1374 58.3028 44.1374 58.4641C44.1374 58.6253 44.0733 58.78 43.9592 58.8941C43.8452 59.0081 43.6905 59.0722 43.5292 59.0722Z" fill="#212D55"/>
<path d="M47.0728 59.0721H45.78C45.6187 59.0721 45.464 59.008 45.35 58.8939C45.2359 58.7799 45.1719 58.6252 45.1719 58.4639C45.1719 58.3027 45.2359 58.148 45.35 58.0339C45.464 57.9199 45.6187 57.8558 45.78 57.8558H47.0728C47.2341 57.8558 47.3888 57.9199 47.5028 58.0339C47.6169 58.148 47.6809 58.3027 47.6809 58.4639C47.6809 58.6252 47.6169 58.7799 47.5028 58.8939C47.3888 59.008 47.2341 59.0721 47.0728 59.0721Z" fill="#212D55"/>
<path d="M50.6152 59.0722H49.323C49.1617 59.0722 49.007 59.0081 48.893 58.8941C48.7789 58.78 48.7148 58.6253 48.7148 58.4641C48.7148 58.3028 48.7789 58.1481 48.893 58.0341C49.007 57.92 49.1617 57.856 49.323 57.856H50.6152C50.7765 57.856 50.9311 57.92 51.0452 58.0341C51.1592 58.1481 51.2233 58.3028 51.2233 58.4641C51.2233 58.6253 51.1592 58.78 51.0452 58.8941C50.9311 59.0081 50.7765 59.0722 50.6152 59.0722Z" fill="#212D55"/>
<path d="M43.5292 61.9259H42.237C42.0757 61.9259 41.9211 61.8619 41.807 61.7478C41.693 61.6338 41.6289 61.4791 41.6289 61.3178C41.6289 61.1565 41.693 61.0019 41.807 60.8878C41.9211 60.7738 42.0757 60.7097 42.237 60.7097H43.5292C43.6905 60.7097 43.8452 60.7738 43.9592 60.8878C44.0733 61.0019 44.1374 61.1565 44.1374 61.3178C44.1374 61.4791 44.0733 61.6338 43.9592 61.7478C43.8452 61.8619 43.6905 61.9259 43.5292 61.9259Z" fill="#212D55"/>
<path d="M47.0728 61.9259H45.78C45.6187 61.9259 45.464 61.8619 45.35 61.7478C45.2359 61.6338 45.1719 61.4791 45.1719 61.3178C45.1719 61.1565 45.2359 61.0019 45.35 60.8878C45.464 60.7738 45.6187 60.7097 45.78 60.7097H47.0728C47.2341 60.7097 47.3888 60.7738 47.5028 60.8878C47.6169 61.0019 47.6809 61.1565 47.6809 61.3178C47.6809 61.4791 47.6169 61.6338 47.5028 61.7478C47.3888 61.8619 47.2341 61.9259 47.0728 61.9259Z" fill="#212D55"/>
<path d="M50.6152 61.9259H49.323C49.1617 61.9259 49.007 61.8619 48.893 61.7478C48.7789 61.6338 48.7148 61.4791 48.7148 61.3178C48.7148 61.1565 48.7789 61.0019 48.893 60.8878C49.007 60.7738 49.1617 60.7097 49.323 60.7097H50.6152C50.7765 60.7097 50.9311 60.7738 51.0452 60.8878C51.1592 61.0019 51.2233 61.1565 51.2233 61.3178C51.2233 61.4791 51.1592 61.6338 51.0452 61.7478C50.9311 61.8619 50.7765 61.9259 50.6152 61.9259Z" fill="#212D55"/>
<path d="M43.5292 64.7798H42.237C42.0757 64.7798 41.9211 64.7157 41.807 64.6017C41.693 64.4877 41.6289 64.333 41.6289 64.1717C41.6289 64.0104 41.693 63.8558 41.807 63.7417C41.9211 63.6277 42.0757 63.5636 42.237 63.5636H43.5292C43.6905 63.5636 43.8452 63.6277 43.9592 63.7417C44.0733 63.8558 44.1374 64.0104 44.1374 64.1717C44.1374 64.333 44.0733 64.4877 43.9592 64.6017C43.8452 64.7157 43.6905 64.7798 43.5292 64.7798Z" fill="#212D55"/>
<path d="M47.0728 64.7798H45.78C45.6187 64.7798 45.464 64.7157 45.35 64.6017C45.2359 64.4877 45.1719 64.333 45.1719 64.1717C45.1719 64.0104 45.2359 63.8558 45.35 63.7417C45.464 63.6277 45.6187 63.5636 45.78 63.5636H47.0728C47.2341 63.5636 47.3888 63.6277 47.5028 63.7417C47.6169 63.8558 47.6809 64.0104 47.6809 64.1717C47.6809 64.333 47.6169 64.4877 47.5028 64.6017C47.3888 64.7157 47.2341 64.7798 47.0728 64.7798Z" fill="#212D55"/>
<path d="M50.6152 64.7798H49.323C49.1617 64.7798 49.007 64.7157 48.893 64.6017C48.7789 64.4877 48.7148 64.333 48.7148 64.1717C48.7148 64.0104 48.7789 63.8558 48.893 63.7417C49.007 63.6277 49.1617 63.5636 49.323 63.5636H50.6152C50.7765 63.5636 50.9311 63.6277 51.0452 63.7417C51.1592 63.8558 51.2233 64.0104 51.2233 64.1717C51.2233 64.333 51.1592 64.4877 51.0452 64.6017C50.9311 64.7157 50.7765 64.7798 50.6152 64.7798Z" fill="#212D55"/>
<path d="M43.5292 67.6337H42.237C42.0757 67.6337 41.9211 67.5696 41.807 67.4556C41.693 67.3415 41.6289 67.1869 41.6289 67.0256C41.6289 66.8643 41.693 66.7096 41.807 66.5956C41.9211 66.4815 42.0757 66.4175 42.237 66.4175H43.5292C43.6905 66.4175 43.8452 66.4815 43.9592 66.5956C44.0733 66.7096 44.1374 66.8643 44.1374 67.0256C44.1374 67.1869 44.0733 67.3415 43.9592 67.4556C43.8452 67.5696 43.6905 67.6337 43.5292 67.6337Z" fill="#212D55"/>
<path d="M47.0728 67.6337H45.78C45.6187 67.6337 45.464 67.5696 45.35 67.4556C45.2359 67.3415 45.1719 67.1869 45.1719 67.0256C45.1719 66.8643 45.2359 66.7096 45.35 66.5956C45.464 66.4815 45.6187 66.4175 45.78 66.4175H47.0728C47.2341 66.4175 47.3888 66.4815 47.5028 66.5956C47.6169 66.7096 47.6809 66.8643 47.6809 67.0256C47.6809 67.1869 47.6169 67.3415 47.5028 67.4556C47.3888 67.5696 47.2341 67.6337 47.0728 67.6337Z" fill="#212D55"/>
<path d="M50.6152 67.6337H49.323C49.1617 67.6337 49.007 67.5696 48.893 67.4556C48.7789 67.3415 48.7148 67.1869 48.7148 67.0256C48.7148 66.8643 48.7789 66.7096 48.893 66.5956C49.007 66.4815 49.1617 66.4175 49.323 66.4175H50.6152C50.7765 66.4175 50.9311 66.4815 51.0452 66.5956C51.1592 66.7096 51.2233 66.8643 51.2233 67.0256C51.2233 67.1869 51.1592 67.3415 51.0452 67.4556C50.9311 67.5696 50.7765 67.6337 50.6152 67.6337Z" fill="#212D55"/>
<path d="M57.6159 39.1195C57.4546 39.1195 57.3 39.0554 57.1859 38.9413C57.0719 38.8273 57.0078 38.6726 57.0078 38.5113V37.3638C57.0078 37.2026 57.0719 37.0479 57.1859 36.9338C57.3 36.8198 57.4546 36.7557 57.6159 36.7557C57.7772 36.7557 57.9319 36.8198 58.0459 36.9338C58.16 37.0479 58.224 37.2026 58.224 37.3638V38.5113C58.224 38.6726 58.16 38.8273 58.0459 38.9413C57.9319 39.0554 57.7772 39.1195 57.6159 39.1195Z" fill="#212D55"/>
<path d="M54.8425 39.8266C54.6812 39.8266 54.5265 39.7625 54.4125 39.6485C54.2984 39.5345 54.2344 39.3798 54.2344 39.2185V38.071C54.2344 37.9097 54.2984 37.755 54.4125 37.641C54.5265 37.527 54.6812 37.4629 54.8425 37.4629C55.0038 37.4629 55.1584 37.527 55.2725 37.641C55.3865 37.755 55.4506 37.9097 55.4506 38.071V39.2185C55.4506 39.3798 55.3865 39.5345 55.2725 39.6485C55.1584 39.7625 55.0038 39.8266 54.8425 39.8266Z" fill="#212D55"/>
<path d="M57.6159 43.6937C57.4546 43.6937 57.3 43.6296 57.1859 43.5156C57.0719 43.4015 57.0078 43.2468 57.0078 43.0856V41.9381C57.0078 41.7768 57.0719 41.6221 57.1859 41.5081C57.3 41.394 57.4546 41.33 57.6159 41.33C57.7772 41.33 57.9319 41.394 58.0459 41.5081C58.16 41.6221 58.224 41.7768 58.224 41.9381V43.0856C58.224 43.2468 58.16 43.4015 58.0459 43.5156C57.9319 43.6296 57.7772 43.6937 57.6159 43.6937Z" fill="#212D55"/>
<path d="M54.8425 44.4008C54.6812 44.4008 54.5265 44.3368 54.4125 44.2227C54.2984 44.1087 54.2344 43.954 54.2344 43.7927V42.6452C54.2344 42.4839 54.2984 42.3293 54.4125 42.2152C54.5265 42.1012 54.6812 42.0371 54.8425 42.0371C55.0038 42.0371 55.1584 42.1012 55.2725 42.2152C55.3865 42.3293 55.4506 42.4839 55.4506 42.6452V43.7927C55.4506 43.954 55.3865 44.1087 55.2725 44.2227C55.1584 44.3368 55.0038 44.4008 54.8425 44.4008Z" fill="#212D55"/>
<path d="M57.6159 48.2702C57.4546 48.2702 57.3 48.2061 57.1859 48.0921C57.0719 47.978 57.0078 47.8234 57.0078 47.6621V46.5122C57.0078 46.3509 57.0719 46.1962 57.1859 46.0822C57.3 45.9681 57.4546 45.9041 57.6159 45.9041C57.7772 45.9041 57.9319 45.9681 58.0459 46.0822C58.16 46.1962 58.224 46.3509 58.224 46.5122V47.6621C58.224 47.8234 58.16 47.978 58.0459 48.0921C57.9319 48.2061 57.7772 48.2702 57.6159 48.2702Z" fill="#212D55"/>
<path d="M54.8425 48.975C54.6812 48.975 54.5265 48.911 54.4125 48.7969C54.2984 48.6829 54.2344 48.5282 54.2344 48.3669V47.2194C54.2344 47.0582 54.2984 46.9035 54.4125 46.7894C54.5265 46.6754 54.6812 46.6113 54.8425 46.6113C55.0038 46.6113 55.1584 46.6754 55.2725 46.7894C55.3865 46.9035 55.4506 47.0582 55.4506 47.2194V48.3669C55.4506 48.5282 55.3865 48.6829 55.2725 48.7969C55.1584 48.911 55.0038 48.975 54.8425 48.975Z" fill="#212D55"/>
<path d="M57.6159 52.8415C57.4546 52.8415 57.3 52.7774 57.1859 52.6634C57.0719 52.5494 57.0078 52.3947 57.0078 52.2334V51.0859C57.0078 50.9246 57.0719 50.7699 57.1859 50.6559C57.3 50.5419 57.4546 50.4778 57.6159 50.4778C57.7772 50.4778 57.9319 50.5419 58.0459 50.6559C58.16 50.7699 58.224 50.9246 58.224 51.0859V52.2334C58.224 52.3947 58.16 52.5494 58.0459 52.6634C57.9319 52.7774 57.7772 52.8415 57.6159 52.8415Z" fill="#212D55"/>
<path d="M54.8425 53.5486C54.6812 53.5486 54.5265 53.4846 54.4125 53.3705C54.2984 53.2565 54.2344 53.1018 54.2344 52.9405V51.793C54.2344 51.6318 54.2984 51.4771 54.4125 51.363C54.5265 51.249 54.6812 51.1849 54.8425 51.1849C55.0038 51.1849 55.1584 51.249 55.2725 51.363C55.3865 51.4771 55.4506 51.6318 55.4506 51.793V52.9405C55.4506 53.1018 55.3865 53.2565 55.2725 53.3705C55.1584 53.4846 55.0038 53.5486 54.8425 53.5486Z" fill="#212D55"/>
<path d="M57.6159 57.4156C57.4546 57.4156 57.3 57.3515 57.1859 57.2375C57.0719 57.1234 57.0078 56.9688 57.0078 56.8075V55.66C57.0078 55.4987 57.0719 55.344 57.1859 55.23C57.3 55.116 57.4546 55.0519 57.6159 55.0519C57.7772 55.0519 57.9319 55.116 58.0459 55.23C58.16 55.344 58.224 55.4987 58.224 55.66V56.8075C58.224 56.9688 58.16 57.1234 58.0459 57.2375C57.9319 57.3515 57.7772 57.4156 57.6159 57.4156Z" fill="#212D55"/>
<path d="M54.8425 58.1217C54.6812 58.1217 54.5265 58.0576 54.4125 57.9435C54.2984 57.8295 54.2344 57.6748 54.2344 57.5135V56.3673C54.2344 56.206 54.2984 56.0513 54.4125 55.9373C54.5265 55.8232 54.6812 55.7592 54.8425 55.7592C55.0038 55.7592 55.1584 55.8232 55.2725 55.9373C55.3865 56.0513 55.4506 56.206 55.4506 56.3673V57.5135C55.4506 57.6748 55.3865 57.8295 55.2725 57.9435C55.1584 58.0576 55.0038 58.1217 54.8425 58.1217Z" fill="#212D55"/>
<path d="M57.6159 61.9898C57.4546 61.9898 57.3 61.9257 57.1859 61.8117C57.0719 61.6977 57.0078 61.543 57.0078 61.3817V60.2342C57.0078 60.0729 57.0719 59.9183 57.1859 59.8042C57.3 59.6902 57.4546 59.6261 57.6159 59.6261C57.7772 59.6261 57.9319 59.6902 58.0459 59.8042C58.16 59.9183 58.224 60.0729 58.224 60.2342V61.3817C58.224 61.543 58.16 61.6977 58.0459 61.8117C57.9319 61.9257 57.7772 61.9898 57.6159 61.9898Z" fill="#212D55"/>
<path d="M54.8425 62.697C54.6812 62.697 54.5265 62.6329 54.4125 62.5189C54.2984 62.4048 54.2344 62.2501 54.2344 62.0889V60.9414C54.2344 60.7801 54.2984 60.6254 54.4125 60.5114C54.5265 60.3973 54.6812 60.3333 54.8425 60.3333C55.0038 60.3333 55.1584 60.3973 55.2725 60.5114C55.3865 60.6254 55.4506 60.7801 55.4506 60.9414V62.0889C55.4506 62.2501 55.3865 62.4048 55.2725 62.5189C55.1584 62.6329 55.0038 62.697 54.8425 62.697Z" fill="#212D55"/>
<path d="M57.6159 66.5633C57.4546 66.5633 57.3 66.4992 57.1859 66.3852C57.0719 66.2712 57.0078 66.1165 57.0078 65.9552V64.8107C57.0078 64.6495 57.0719 64.4948 57.1859 64.3807C57.3 64.2667 57.4546 64.2026 57.6159 64.2026C57.7772 64.2026 57.9319 64.2667 58.0459 64.3807C58.16 64.4948 58.224 64.6495 58.224 64.8107V65.9582C58.2232 66.119 58.1588 66.2729 58.0448 66.3863C57.9309 66.4997 57.7767 66.5633 57.6159 66.5633Z" fill="#212D55"/>
<path d="M54.8425 67.2713C54.6812 67.2713 54.5265 67.2072 54.4125 67.0932C54.2984 66.9792 54.2344 66.8245 54.2344 66.6632V65.5151C54.2344 65.3538 54.2984 65.1991 54.4125 65.0851C54.5265 64.9711 54.6812 64.907 54.8425 64.907C55.0038 64.907 55.1584 64.9711 55.2725 65.0851C55.3865 65.1991 55.4506 65.3538 55.4506 65.5151V66.6626C55.4507 66.7425 55.435 66.8216 55.4045 66.8955C55.374 66.9693 55.3292 67.0365 55.2727 67.093C55.2162 67.1495 55.1492 67.1944 55.0753 67.225C55.0015 67.2556 54.9224 67.2713 54.8425 67.2713V67.2713Z" fill="#212D55"/>
<path d="M61.8112 38.5405C61.65 38.5405 61.4953 38.4764 61.3812 38.3624C61.2672 38.2483 61.2031 38.0936 61.2031 37.9324V36.7861C61.2031 36.6248 61.2672 36.4701 61.3812 36.3561C61.4953 36.242 61.65 36.178 61.8112 36.178C61.9725 36.178 62.1272 36.242 62.2412 36.3561C62.3553 36.4701 62.4193 36.6248 62.4193 36.7861V37.9324C62.4193 38.0936 62.3553 38.2483 62.2412 38.3624C62.1272 38.4764 61.9725 38.5405 61.8112 38.5405Z" fill="#212D55"/>
<path d="M63.8659 39.3159C63.7046 39.3159 63.55 39.2518 63.4359 39.1378C63.3219 39.0237 63.2578 38.869 63.2578 38.7078V37.5609C63.2578 37.3996 63.3219 37.2449 63.4359 37.1309C63.55 37.0168 63.7046 36.9528 63.8659 36.9528C64.0272 36.9528 64.1819 37.0168 64.2959 37.1309C64.41 37.2449 64.474 37.3996 64.474 37.5609V38.7084C64.4739 38.8695 64.4097 39.0241 64.2957 39.138C64.1817 39.2519 64.0271 39.3159 63.8659 39.3159V39.3159Z" fill="#212D55"/>
<path d="M65.9167 40.0906C65.7554 40.0906 65.6007 40.0266 65.4867 39.9125C65.3727 39.7985 65.3086 39.6438 65.3086 39.4825V38.3356C65.3086 38.1744 65.3727 38.0197 65.4867 37.9056C65.6007 37.7916 65.7554 37.7275 65.9167 37.7275C66.078 37.7275 66.2327 37.7916 66.3467 37.9056C66.4607 38.0197 66.5248 38.1744 66.5248 38.3356V39.4831C66.5247 39.6443 66.4605 39.7988 66.3465 39.9128C66.2325 40.0267 66.0779 40.0906 65.9167 40.0906V40.0906Z" fill="#212D55"/>
<path d="M61.8112 43.1014C61.65 43.1014 61.4953 43.0373 61.3812 42.9233C61.2672 42.8092 61.2031 42.6546 61.2031 42.4933V41.3439C61.2031 41.1827 61.2672 41.028 61.3812 40.914C61.4953 40.7999 61.65 40.7358 61.8112 40.7358C61.9725 40.7358 62.1272 40.7999 62.2412 40.914C62.3553 41.028 62.4193 41.1827 62.4193 41.3439V42.4933C62.4193 42.6546 62.3553 42.8092 62.2412 42.9233C62.1272 43.0373 61.9725 43.1014 61.8112 43.1014Z" fill="#212D55"/>
<path d="M63.8659 43.8736C63.7046 43.8736 63.55 43.8095 63.4359 43.6955C63.3219 43.5815 63.2578 43.4268 63.2578 43.2655V42.1186C63.2578 41.9573 63.3219 41.8027 63.4359 41.6886C63.55 41.5746 63.7046 41.5105 63.8659 41.5105C64.0272 41.5105 64.1819 41.5746 64.2959 41.6886C64.41 41.8027 64.474 41.9573 64.474 42.1186V43.2655C64.474 43.4268 64.41 43.5815 64.2959 43.6955C64.1819 43.8095 64.0272 43.8736 63.8659 43.8736Z" fill="#212D55"/>
<path d="M65.9167 44.6484C65.7554 44.6484 65.6007 44.5843 65.4867 44.4703C65.3727 44.3562 65.3086 44.2016 65.3086 44.0403V42.8934C65.3086 42.7321 65.3727 42.5774 65.4867 42.4634C65.6007 42.3493 65.7554 42.2853 65.9167 42.2853C66.078 42.2853 66.2327 42.3493 66.3467 42.4634C66.4607 42.5774 66.5248 42.7321 66.5248 42.8934V44.0409C66.5247 44.2021 66.4605 44.3566 66.3465 44.4705C66.2325 44.5844 66.0779 44.6484 65.9167 44.6484Z" fill="#212D55"/>
<path d="M61.8112 47.6573C61.65 47.6573 61.4953 47.5932 61.3812 47.4792C61.2672 47.3651 61.2031 47.2105 61.2031 47.0492V45.8986C61.2031 45.7374 61.2672 45.5827 61.3812 45.4686C61.4953 45.3546 61.65 45.2905 61.8112 45.2905C61.9725 45.2905 62.1272 45.3546 62.2412 45.4686C62.3553 45.5827 62.4193 45.7374 62.4193 45.8986V47.0461C62.4197 47.1262 62.4043 47.2056 62.3739 47.2798C62.3436 47.3539 62.2988 47.4213 62.2423 47.4781C62.1858 47.5349 62.1186 47.58 62.0447 47.6107C61.9707 47.6415 61.8914 47.6573 61.8112 47.6573V47.6573Z" fill="#212D55"/>
<path d="M63.8659 48.4321C63.7046 48.4321 63.55 48.368 63.4359 48.254C63.3219 48.1399 63.2578 47.9852 63.2578 47.824V46.6765C63.2578 46.5152 63.3219 46.3605 63.4359 46.2465C63.55 46.1324 63.7046 46.0684 63.8659 46.0684C64.0272 46.0684 64.1819 46.1324 64.2959 46.2465C64.41 46.3605 64.474 46.5152 64.474 46.6765V47.824C64.474 47.9852 64.41 48.1399 64.2959 48.254C64.1819 48.368 64.0272 48.4321 63.8659 48.4321Z" fill="#212D55"/>
<path d="M65.9167 49.2061C65.7554 49.2061 65.6007 49.1421 65.4867 49.028C65.3727 48.914 65.3086 48.7593 65.3086 48.598V47.4511C65.3086 47.2898 65.3727 47.1352 65.4867 47.0211C65.6007 46.9071 65.7554 46.843 65.9167 46.843C66.078 46.843 66.2327 46.9071 66.3467 47.0211C66.4607 47.1352 66.5248 47.2898 66.5248 47.4511V48.5986C66.5247 48.7598 66.4605 48.9143 66.3465 49.0282C66.2325 49.1421 66.0779 49.2061 65.9167 49.2061Z" fill="#212D55"/>
<path d="M61.8112 52.215C61.65 52.215 61.4953 52.151 61.3812 52.0369C61.2672 51.9229 61.2031 51.7682 61.2031 51.6069V50.4594C61.2031 50.2981 61.2672 50.1435 61.3812 50.0294C61.4953 49.9154 61.65 49.8513 61.8112 49.8513C61.9725 49.8513 62.1272 49.9154 62.2412 50.0294C62.3553 50.1435 62.4193 50.2981 62.4193 50.4594V51.6069C62.4193 51.7682 62.3553 51.9229 62.2412 52.0369C62.1272 52.151 61.9725 52.215 61.8112 52.215Z" fill="#212D55"/>
<path d="M63.8659 52.9898C63.7046 52.9898 63.55 52.9258 63.4359 52.8117C63.3219 52.6977 63.2578 52.543 63.2578 52.3817V51.2342C63.2578 51.0729 63.3219 50.9183 63.4359 50.8042C63.55 50.6902 63.7046 50.6261 63.8659 50.6261C64.0272 50.6261 64.1819 50.6902 64.2959 50.8042C64.41 50.9183 64.474 51.0729 64.474 51.2342V52.3817C64.474 52.543 64.41 52.6977 64.2959 52.8117C64.1819 52.9258 64.0272 52.9898 63.8659 52.9898Z" fill="#212D55"/>
<path d="M65.9167 53.7645C65.7554 53.7645 65.6007 53.7004 65.4867 53.5864C65.3727 53.4723 65.3086 53.3176 65.3086 53.1564V52.0089C65.3086 51.8476 65.3727 51.6929 65.4867 51.5789C65.6007 51.4648 65.7554 51.4008 65.9167 51.4008C66.078 51.4008 66.2327 51.4648 66.3467 51.5789C66.4607 51.6929 66.5248 51.8476 66.5248 52.0089V53.1564C66.5248 53.3176 66.4607 53.4723 66.3467 53.5864C66.2327 53.7004 66.078 53.7645 65.9167 53.7645Z" fill="#212D55"/>
<path d="M61.8112 56.7728C61.65 56.7728 61.4953 56.7087 61.3812 56.5947C61.2672 56.4806 61.2031 56.326 61.2031 56.1647V55.0202C61.2031 54.8589 61.2672 54.7043 61.3812 54.5902C61.4953 54.4762 61.65 54.4121 61.8112 54.4121C61.9725 54.4121 62.1272 54.4762 62.2412 54.5902C62.3553 54.7043 62.4193 54.8589 62.4193 55.0202V56.1677C62.4185 56.3285 62.3541 56.4824 62.2402 56.5957C62.1262 56.7091 61.972 56.7728 61.8112 56.7728V56.7728Z" fill="#212D55"/>
<path d="M63.8659 57.5475C63.7046 57.5475 63.55 57.4835 63.4359 57.3694C63.3219 57.2554 63.2578 57.1007 63.2578 56.9394V55.7919C63.2578 55.6307 63.3219 55.476 63.4359 55.3619C63.55 55.2479 63.7046 55.1838 63.8659 55.1838C64.0272 55.1838 64.1819 55.2479 64.2959 55.3619C64.41 55.476 64.474 55.6307 64.474 55.7919V56.9394C64.474 57.1007 64.41 57.2554 64.2959 57.3694C64.1819 57.4835 64.0272 57.5475 63.8659 57.5475Z" fill="#212D55"/>
<path d="M65.9167 58.3223C65.7554 58.3223 65.6007 58.2583 65.4867 58.1442C65.3727 58.0302 65.3086 57.8755 65.3086 57.7142V56.5667C65.3086 56.4054 65.3727 56.2508 65.4867 56.1367C65.6007 56.0227 65.7554 55.9586 65.9167 55.9586C66.078 55.9586 66.2327 56.0227 66.3467 56.1367C66.4607 56.2508 66.5248 56.4054 66.5248 56.5667V57.7142C66.5248 57.8755 66.4607 58.0302 66.3467 58.1442C66.2327 58.2583 66.078 58.3223 65.9167 58.3223Z" fill="#212D55"/>
<path d="M61.8112 61.3306C61.65 61.3306 61.4953 61.2666 61.3812 61.1525C61.2672 61.0385 61.2031 60.8838 61.2031 60.7225V59.575C61.2031 59.4137 61.2672 59.2591 61.3812 59.145C61.4953 59.031 61.65 58.9669 61.8112 58.9669C61.9725 58.9669 62.1272 59.031 62.2412 59.145C62.3553 59.2591 62.4193 59.4137 62.4193 59.575V60.7225C62.4193 60.8838 62.3553 61.0385 62.2412 61.1525C62.1272 61.2666 61.9725 61.3306 61.8112 61.3306Z" fill="#212D55"/>
<path d="M63.8659 62.1054C63.7046 62.1054 63.55 62.0413 63.4359 61.9273C63.3219 61.8133 63.2578 61.6586 63.2578 61.4973V60.3498C63.2578 60.1885 63.3219 60.0339 63.4359 59.9198C63.55 59.8058 63.7046 59.7417 63.8659 59.7417C64.0272 59.7417 64.1819 59.8058 64.2959 59.9198C64.41 60.0339 64.474 60.1885 64.474 60.3498V61.4973C64.474 61.6586 64.41 61.8133 64.2959 61.9273C64.1819 62.0413 64.0272 62.1054 63.8659 62.1054Z" fill="#212D55"/>
<path d="M65.9167 62.8801C65.7554 62.8801 65.6007 62.816 65.4867 62.702C65.3727 62.5879 65.3086 62.4332 65.3086 62.272V61.1245C65.3086 60.9632 65.3727 60.8085 65.4867 60.6945C65.6007 60.5804 65.7554 60.5164 65.9167 60.5164C66.078 60.5164 66.2327 60.5804 66.3467 60.6945C66.4607 60.8085 66.5248 60.9632 66.5248 61.1245V62.272C66.5248 62.4332 66.4607 62.5879 66.3467 62.702C66.2327 62.816 66.078 62.8801 65.9167 62.8801Z" fill="#212D55"/>
<path d="M61.8112 65.8884C61.65 65.8884 61.4953 65.8243 61.3812 65.7103C61.2672 65.5962 61.2031 65.4415 61.2031 65.2803V64.1328C61.2031 63.9715 61.2672 63.8168 61.3812 63.7028C61.4953 63.5887 61.65 63.5247 61.8112 63.5247C61.9725 63.5247 62.1272 63.5887 62.2412 63.7028C62.3553 63.8168 62.4193 63.9715 62.4193 64.1328V65.2803C62.4193 65.4415 62.3553 65.5962 62.2412 65.7103C62.1272 65.8243 61.9725 65.8884 61.8112 65.8884Z" fill="#212D55"/>
<path d="M63.8659 66.663C63.7046 66.663 63.55 66.599 63.4359 66.4849C63.3219 66.3709 63.2578 66.2162 63.2578 66.0549V64.9074C63.2578 64.7461 63.3219 64.5915 63.4359 64.4774C63.55 64.3634 63.7046 64.2993 63.8659 64.2993C64.0272 64.2993 64.1819 64.3634 64.2959 64.4774C64.41 64.5915 64.474 64.7461 64.474 64.9074V66.0549C64.474 66.2162 64.41 66.3709 64.2959 66.4849C64.1819 66.599 64.0272 66.663 63.8659 66.663Z" fill="#212D55"/>
<path d="M65.9167 67.4378C65.7554 67.4378 65.6007 67.3737 65.4867 67.2597C65.3727 67.1457 65.3086 66.991 65.3086 66.8297V65.6822C65.3086 65.5209 65.3727 65.3662 65.4867 65.2522C65.6007 65.1382 65.7554 65.0741 65.9167 65.0741C66.078 65.0741 66.2327 65.1382 66.3467 65.2522C66.4607 65.3662 66.5248 65.5209 66.5248 65.6822V66.8297C66.5248 66.991 66.4607 67.1457 66.3467 67.2597C66.2327 67.3737 66.078 67.4378 65.9167 67.4378Z" fill="#212D55"/>
<path d="M73.6081 51.4629C73.4468 51.4629 73.2922 51.3988 73.1781 51.2847C73.0641 51.1707 73 51.016 73 50.8547V50.2399C73 50.0787 73.0641 49.924 73.1781 49.8099C73.2922 49.6959 73.4468 49.6318 73.6081 49.6318C73.7694 49.6318 73.9241 49.6959 74.0381 49.8099C74.1521 49.924 74.2162 50.0787 74.2162 50.2399V50.8547C74.2162 51.016 74.1521 51.1707 74.0381 51.2847C73.9241 51.3988 73.7694 51.4629 73.6081 51.4629Z" fill="#212D55"/>
<path d="M75.6589 52.7508C75.4976 52.7508 75.3429 52.6867 75.2289 52.5727C75.1148 52.4587 75.0508 52.304 75.0508 52.1427V51.5279C75.0508 51.3666 75.1148 51.212 75.2289 51.0979C75.3429 50.9839 75.4976 50.9198 75.6589 50.9198C75.8202 50.9198 75.9748 50.9839 76.0889 51.0979C76.2029 51.212 76.267 51.3666 76.267 51.5279V52.1427C76.267 52.304 76.2029 52.4587 76.0889 52.5727C75.9748 52.6867 75.8202 52.7508 75.6589 52.7508V52.7508Z" fill="#212D55"/>
<path d="M73.6081 54.4657C73.4468 54.4657 73.2922 54.4016 73.1781 54.2876C73.0641 54.1735 73 54.0188 73 53.8576V53.2434C73 53.0821 73.0641 52.9274 73.1781 52.8134C73.2922 52.6993 73.4468 52.6353 73.6081 52.6353C73.7694 52.6353 73.9241 52.6993 74.0381 52.8134C74.1521 52.9274 74.2162 53.0821 74.2162 53.2434V53.8582C74.2161 54.0193 74.1519 54.1739 74.0379 54.2878C73.9239 54.4017 73.7693 54.4657 73.6081 54.4657V54.4657Z" fill="#212D55"/>
<path d="M75.6589 55.7536C75.4976 55.7536 75.3429 55.6896 75.2289 55.5755C75.1148 55.4615 75.0508 55.3068 75.0508 55.1455V54.5338C75.0508 54.3725 75.1148 54.2178 75.2289 54.1038C75.3429 53.9897 75.4976 53.9257 75.6589 53.9257C75.8202 53.9257 75.9748 53.9897 76.0889 54.1038C76.2029 54.2178 76.267 54.3725 76.267 54.5338V55.1486C76.2662 55.3093 76.2018 55.4632 76.0878 55.5766C75.9739 55.69 75.8196 55.7536 75.6589 55.7536V55.7536Z" fill="#212D55"/>
<path d="M73.6081 57.4692C73.4468 57.4692 73.2922 57.4051 73.1781 57.2911C73.0641 57.177 73 57.0224 73 56.8611V56.2463C73 56.085 73.0641 55.9303 73.1781 55.8163C73.2922 55.7023 73.4468 55.6382 73.6081 55.6382C73.7694 55.6382 73.9241 55.7023 74.0381 55.8163C74.1521 55.9303 74.2162 56.085 74.2162 56.2463V56.8611C74.2162 57.0224 74.1521 57.177 74.0381 57.2911C73.9241 57.4051 73.7694 57.4692 73.6081 57.4692Z" fill="#212D55"/>
<path d="M75.6589 58.757C75.4976 58.757 75.3429 58.693 75.2289 58.5789C75.1148 58.4649 75.0508 58.3102 75.0508 58.1489V57.5341C75.0508 57.3729 75.1148 57.2182 75.2289 57.1041C75.3429 56.9901 75.4976 56.926 75.6589 56.926C75.8202 56.926 75.9748 56.9901 76.0889 57.1041C76.2029 57.2182 76.267 57.3729 76.267 57.5341V58.1489C76.267 58.3102 76.2029 58.4649 76.0889 58.5789C75.9748 58.693 75.8202 58.757 75.6589 58.757V58.757Z" fill="#212D55"/>
<path d="M73.6081 60.4726C73.4468 60.4726 73.2922 60.4085 73.1781 60.2945C73.0641 60.1805 73 60.0258 73 59.8645V59.2497C73 59.0884 73.0641 58.9338 73.1781 58.8197C73.2922 58.7057 73.4468 58.6416 73.6081 58.6416C73.7694 58.6416 73.9241 58.7057 74.0381 58.8197C74.1521 58.9338 74.2162 59.0884 74.2162 59.2497V59.8645C74.2162 60.0258 74.1521 60.1805 74.0381 60.2945C73.9241 60.4085 73.7694 60.4726 73.6081 60.4726Z" fill="#212D55"/>
<path d="M75.6589 61.76C75.4976 61.76 75.3429 61.6959 75.2289 61.5819C75.1148 61.4678 75.0508 61.3131 75.0508 61.1519V60.5371C75.0508 60.3758 75.1148 60.2211 75.2289 60.1071C75.3429 59.993 75.4976 59.929 75.6589 59.929C75.8202 59.929 75.9748 59.993 76.0889 60.1071C76.2029 60.2211 76.267 60.3758 76.267 60.5371V61.1519C76.267 61.3131 76.2029 61.4678 76.0889 61.5819C75.9748 61.6959 75.8202 61.76 75.6589 61.76V61.76Z" fill="#212D55"/>
<path d="M73.6081 63.473C73.4468 63.473 73.2922 63.4089 73.1781 63.2949C73.0641 63.1808 73 63.0262 73 62.8649V62.2525C73 62.0912 73.0641 61.9366 73.1781 61.8225C73.2922 61.7085 73.4468 61.6444 73.6081 61.6444C73.7694 61.6444 73.9241 61.7085 74.0381 61.8225C74.1521 61.9366 74.2162 62.0912 74.2162 62.2525V62.8649C74.2162 63.0262 74.1521 63.1808 74.0381 63.2949C73.9241 63.4089 73.7694 63.473 73.6081 63.473Z" fill="#212D55"/>
<path d="M75.6589 64.7634C75.4976 64.7634 75.3429 64.6993 75.2289 64.5853C75.1148 64.4712 75.0508 64.3166 75.0508 64.1553V63.5405C75.0508 63.3792 75.1148 63.2245 75.2289 63.1105C75.3429 62.9964 75.4976 62.9324 75.6589 62.9324C75.8202 62.9324 75.9748 62.9964 76.0889 63.1105C76.2029 63.2245 76.267 63.3792 76.267 63.5405V64.1553C76.267 64.3166 76.2029 64.4712 76.0889 64.5853C75.9748 64.6993 75.8202 64.7634 75.6589 64.7634V64.7634Z" fill="#212D55"/>
<path d="M73.6081 66.4788C73.4468 66.4788 73.2922 66.4148 73.1781 66.3007C73.0641 66.1867 73 66.032 73 65.8707V65.2559C73 65.0947 73.0641 64.94 73.1781 64.8259C73.2922 64.7119 73.4468 64.6478 73.6081 64.6478C73.7694 64.6478 73.9241 64.7119 74.0381 64.8259C74.1521 64.94 74.2162 65.0947 74.2162 65.2559V65.8707C74.2162 66.032 74.1521 66.1867 74.0381 66.3007C73.9241 66.4148 73.7694 66.4788 73.6081 66.4788Z" fill="#212D55"/>
<path d="M75.6589 67.7663C75.4976 67.7663 75.3429 67.7022 75.2289 67.5882C75.1148 67.4742 75.0508 67.3195 75.0508 67.1582V66.5434C75.0508 66.3821 75.1148 66.2275 75.2289 66.1134C75.3429 65.9994 75.4976 65.9353 75.6589 65.9353C75.8202 65.9353 75.9748 65.9994 76.0889 66.1134C76.2029 66.2275 76.267 66.3821 76.267 66.5434V67.1582C76.267 67.3195 76.2029 67.4742 76.0889 67.5882C75.9748 67.7022 75.8202 67.7663 75.6589 67.7663V67.7663Z" fill="#212D55"/>
<path d="M79.7095 69.959H38.3581C38.1968 69.959 38.0422 69.8949 37.9281 69.7809C37.8141 69.6669 37.75 69.5122 37.75 69.3509C37.75 69.1896 37.8141 69.035 37.9281 68.9209C38.0422 68.8069 38.1968 68.7428 38.3581 68.7428H79.7095C79.8707 68.7428 80.0254 68.8069 80.1395 68.9209C80.2535 69.035 80.3176 69.1896 80.3176 69.3509C80.3176 69.5122 80.2535 69.6669 80.1395 69.7809C80.0254 69.8949 79.8707 69.959 79.7095 69.959Z" fill="#212D55"/>
</g>
<defs>
<filter id="filter0_d_2420_342" x="0" y="4" width="120" height="109" filterUnits="userSpaceOnUse" color-interpolation-filters="sRGB">
<feFlood flood-opacity="0" result="BackgroundImageFix"/>
<feColorMatrix in="SourceAlpha" type="matrix" values="0 0 0 0 0 0 0 0 0 0 0 0 0 0 0 0 0 0 127 0" result="hardAlpha"/>
<feOffset dy="5"/>
<feGaussianBlur stdDeviation="10"/>
<feComposite in2="hardAlpha" operator="out"/>
<feColorMatrix type="matrix" values="0 0 0 0 0.129412 0 0 0 0 0.176471 0 0 0 0 0.333333 0 0 0 0.2 0"/>
<feBlend mode="normal" in2="BackgroundImageFix" result="effect1_dropShadow_2420_342"/>
<feBlend mode="normal" in="SourceGraphic" in2="effect1_dropShadow_2420_342" result="shape"/>
</filter>
<clipPath id="clip0_2420_342">
<rect width="119" height="107" fill="white"/>
</clipPath>
</defs>
</svg>
