<svg width="119" height="107" viewBox="0 0 119 107" fill="none" xmlns="http://www.w3.org/2000/svg">
<g clip-path="url(#clip0_2420_265)">
<g clip-path="url(#clip1_2420_265)">
<g filter="url(#filter0_d_2420_265)">
<path fill-rule="evenodd" clip-rule="evenodd" d="M30 18C24.4772 18 20 22.4772 20 28V45.3892C22.509 45.7842 24.4606 48.8171 24.4606 52.5C24.4606 56.1829 22.509 59.2159 20 59.6109V77C20 82.5229 24.4772 87 30 87H90C95.5229 87 100 82.5228 100 77V28C100 22.4772 95.5229 18 90 18H30Z" fill="white"/>
</g>
<g clip-path="url(#clip2_2420_265)">
<path d="M37.7502 75.0869H73.7501C74.1645 75.0869 74.5002 74.7512 74.5002 74.3371V67.587H79.75C80.1644 67.587 80.5002 67.2513 80.5002 66.8372V59.337C80.5002 58.9229 80.1644 58.5871 79.75 58.5871H74.5002V51.8371C74.5002 51.4227 74.1645 51.0869 73.7501 51.0869H72.3737C72.4794 50.5966 72.3675 50.0844 72.0671 49.6827L68.6781 45.1652L70.243 43.9914C70.9383 43.4709 71.3265 42.6367 71.2775 41.7694L71.2023 40.4188C71.1817 40.0525 71.3458 39.7002 71.6393 39.4801L73.2038 38.3067L73.8623 39.1842C73.9815 39.3432 74.159 39.4486 74.356 39.4767C74.3911 39.4815 74.4264 39.4843 74.4621 39.4839C74.6245 39.4843 74.7824 39.4314 74.9122 39.3339L81.1003 34.6918C82.0939 33.9464 82.2954 32.5364 81.55 31.5425L81.1333 30.9863C80.3869 29.9938 78.9775 29.7929 77.9833 30.5372L71.7959 35.179C71.4646 35.4275 71.3973 35.8979 71.6458 36.2292L72.304 37.1067L70.7395 38.2806C70.0442 38.801 69.6556 39.635 69.705 40.5022L69.7799 41.8528C69.8008 42.2192 69.6367 42.5718 69.3432 42.7915L67.7786 43.9653L64.3893 39.4479C64.0347 38.9676 63.4586 38.7029 62.8629 38.7465C62.2947 38.7877 61.787 39.1172 61.5174 39.6195L55.3548 51.0869H37.7502C37.3358 51.0869 37 51.4227 37 51.8371V59.337C37 59.7514 37.3358 60.0871 37.7502 60.0871H42.9999V66.0871H37.7502C37.3358 66.0871 37 66.4228 37 66.8372V74.3371C37 74.7512 37.3358 75.0869 37.7502 75.0869V75.0869ZM78.8835 31.7368C79.2144 31.4882 79.6844 31.5552 79.9333 31.8865L80.3501 32.4427C80.5984 32.774 80.5311 33.2437 80.2001 33.4922L74.6118 37.6846L73.2952 35.9288L78.8835 31.7368ZM50.5002 67.587H61.0001V73.587H50.5002V67.587ZM56.5001 60.0871H67V66.0871H56.5001V60.0871ZM73.0003 73.587H62.5V67.587H73.0003V73.587ZM79.0002 66.0871H68.5V60.0871H79.0002V66.0871ZM73.0003 58.5871H62.5V54.2197L70.1768 52.5869H73.0003V58.5871ZM62.8392 40.3302C62.8646 40.2777 62.9175 40.244 62.9759 40.2423L62.9906 40.2416C63.0703 40.243 63.1441 40.2825 63.1894 40.3477L66.578 44.8652L63.484 47.1864C63.1527 47.435 63.0854 47.905 63.334 48.2366C63.5825 48.5679 64.0525 48.6349 64.3842 48.3866L67.4782 46.0654L70.8672 50.5829C70.9211 50.6488 70.9369 50.7377 70.9084 50.8177C70.8905 50.8733 70.8435 50.9142 70.7858 50.9245L55.9065 54.0886C55.8141 54.103 55.7215 54.0635 55.6682 53.9866C55.6085 53.9145 55.5965 53.8143 55.6373 53.7298L62.8392 40.3302ZM54.4687 54.8868C54.8683 55.4365 55.5543 55.6984 56.2186 55.5556L61.0001 54.5387V58.5871H50.5002V52.5869H54.5483L54.3159 53.0195C53.9945 53.6179 54.0546 54.3488 54.4687 54.8868V54.8868ZM38.5 55.5872H40C40.4144 55.5872 40.7501 55.2514 40.7501 54.837C40.7501 54.423 40.4144 54.0872 40 54.0872H38.5V52.5869H49.0002V58.5871H38.5V55.5872ZM44.4999 60.0871H55.0001V66.0871H44.4999V60.0871ZM38.5 67.587H49.0002V73.587H38.5V67.587Z" fill="#212D55"/>
<path d="M46.7499 54.837C46.7499 54.4229 46.4142 54.0872 45.9998 54.0872H42.9998C42.5858 54.0872 42.25 54.4229 42.25 54.837C42.25 55.2514 42.5858 55.5871 42.9998 55.5871H45.9998C46.4142 55.5871 46.7499 55.2514 46.7499 54.837V54.837Z" fill="#212D55"/>
</g>
</g>
</g>
<defs>
<filter id="filter0_d_2420_265" x="0" y="3" width="120" height="109" filterUnits="userSpaceOnUse" color-interpolation-filters="sRGB">
<feFlood flood-opacity="0" result="BackgroundImageFix"/>
<feColorMatrix in="SourceAlpha" type="matrix" values="0 0 0 0 0 0 0 0 0 0 0 0 0 0 0 0 0 0 127 0" result="hardAlpha"/>
<feOffset dy="5"/>
<feGaussianBlur stdDeviation="10"/>
<feComposite in2="hardAlpha" operator="out"/>
<feColorMatrix type="matrix" values="0 0 0 0 0.129412 0 0 0 0 0.176471 0 0 0 0 0.333333 0 0 0 0.2 0"/>
<feBlend mode="normal" in2="BackgroundImageFix" result="effect1_dropShadow_2420_265"/>
<feBlend mode="normal" in="SourceGraphic" in2="effect1_dropShadow_2420_265" result="shape"/>
</filter>
<clipPath id="clip0_2420_265">
<rect width="119" height="107" fill="white"/>
</clipPath>
<clipPath id="clip1_2420_265">
<rect width="119" height="107" fill="white"/>
</clipPath>
<clipPath id="clip2_2420_265">
<rect width="45" height="45" fill="white" transform="translate(37 30)"/>
</clipPath>
</defs>
</svg>
