<svg width="119" height="107" viewBox="0 0 119 107" fill="none" xmlns="http://www.w3.org/2000/svg">
<g clip-path="url(#clip0_2420_177)">
<g filter="url(#filter0_d_2420_177)">
<path fill-rule="evenodd" clip-rule="evenodd" d="M30 19C24.4772 19 20 23.4772 20 29V46.3892C22.509 46.7842 24.4606 49.8171 24.4606 53.5C24.4606 57.1829 22.509 60.2159 20 60.6109V78C20 83.5229 24.4772 88 30 88H90C95.5229 88 100 83.5228 100 78V29C100 23.4772 95.5229 19 90 19H30Z" fill="white"/>
</g>
<path d="M66.0421 74.7838C65.9589 74.7839 65.8766 74.7668 65.8002 74.7338C65.7239 74.7007 65.6551 74.6524 65.5982 74.5917L62.6793 71.4788C62.5735 71.3661 62.5146 71.2174 62.5145 71.0628V69.5869C62.5145 69.4989 62.5337 69.4119 62.5707 69.332C62.6076 69.2521 62.6615 69.1812 62.7285 69.1242L63.7623 68.2412L62.8106 67.2311C62.7065 67.1207 62.6474 66.9752 62.6451 66.8234C62.6427 66.6716 62.6972 66.5244 62.7979 66.4108L63.7994 65.2791L62.9547 64.37C62.853 64.2606 62.795 64.1175 62.792 63.9681C62.789 63.8187 62.8411 63.6734 62.9383 63.56L63.8402 62.5086L62.7352 61.5964C62.666 61.5393 62.6102 61.4676 62.5719 61.3865C62.5337 61.3053 62.5138 61.2167 62.5139 61.1269V57.4728C60.9768 56.6909 59.75 55.4113 59.0335 53.8427C58.317 52.2741 58.153 50.5091 58.5683 48.8353C58.9837 47.1616 59.9538 45.6779 61.3205 44.6263C62.6872 43.5746 64.3699 43.017 66.0942 43.0444C67.8185 43.0718 69.4827 43.6825 70.8153 44.7771C72.1479 45.8716 73.0705 47.3853 73.4324 49.0714C73.7944 50.7575 73.5745 52.5164 72.8085 54.0615C72.0425 55.6066 70.7757 56.8465 69.2146 57.5792V70.9157C69.2146 71.052 69.1687 71.1843 69.0845 71.2915L66.5201 74.5515C66.4658 74.6208 66.3971 74.6774 66.3188 74.7175C66.2404 74.7576 66.1544 74.7802 66.0664 74.7838H66.0421ZM63.7313 70.822L66.0026 73.2435L67.9996 70.7052V57.1809C67.9996 57.0599 68.0357 56.9415 68.1033 56.8411C68.1709 56.7407 68.2669 56.6627 68.3791 56.6172C69.7529 56.0625 70.8926 55.05 71.6053 53.7511C72.318 52.4523 72.5598 50.947 72.2896 49.4903C72.0195 48.0336 71.254 46.7151 70.123 45.7582C68.992 44.8012 67.5649 44.2647 66.0836 44.2396C64.6023 44.2144 63.1578 44.7021 61.9949 45.6201C60.832 46.538 60.0222 47.8297 59.7027 49.2764C59.3832 50.7231 59.5737 52.2357 60.2418 53.5581C60.91 54.8804 62.0147 55.9311 63.3689 56.5321C63.4771 56.5793 63.5692 56.657 63.634 56.7557C63.6988 56.8544 63.7334 56.9698 63.7337 57.0879V60.8417L65.0935 61.9649C65.1558 62.0163 65.2073 62.0797 65.2448 62.1512C65.2824 62.2228 65.3053 62.3011 65.3123 62.3816C65.3193 62.4621 65.3101 62.5432 65.2854 62.6201C65.2607 62.697 65.2208 62.7683 65.1683 62.8296L64.2166 63.9394L65.0679 64.8552C65.1707 64.9658 65.2287 65.1106 65.2306 65.2616C65.2325 65.4125 65.1782 65.5588 65.0783 65.6719L64.0791 66.8012L65.0886 67.8727C65.145 67.9327 65.1886 68.0035 65.2168 68.0809C65.245 68.1582 65.2572 68.2405 65.2527 68.3228C65.2481 68.405 65.2269 68.4854 65.1904 68.5592C65.1538 68.633 65.1026 68.6986 65.0399 68.752L63.7325 69.8679L63.7313 70.822Z" fill="#212D55"/>
<path d="M68.6042 57.7854C68.4436 57.7854 68.2894 57.7218 68.1755 57.6085C68.0616 57.4953 67.9971 57.3416 67.9961 57.1809V57.1736C67.9968 57.0535 68.0331 56.9363 68.1003 56.8368C68.1676 56.7372 68.2628 56.6599 68.374 56.6144C68.4852 56.5689 68.6073 56.5574 68.7251 56.5813C68.8428 56.6052 68.9508 56.6634 69.0355 56.7486C69.1202 56.8337 69.1777 56.9421 69.2009 57.06C69.2241 57.1778 69.2118 57.2999 69.1657 57.4108C69.1195 57.5217 69.0416 57.6165 68.9417 57.6831C68.8417 57.7498 68.7243 57.7854 68.6042 57.7854Z" fill="#212D55"/>
<path d="M65.9697 51.8028C65.3816 51.8028 64.8067 51.6284 64.3177 51.3016C63.8287 50.9749 63.4475 50.5104 63.2224 49.9671C62.9974 49.4237 62.9385 48.8258 63.0532 48.249C63.168 47.6722 63.4512 47.1423 63.8671 46.7264C64.2829 46.3106 64.8128 46.0273 65.3896 45.9126C65.9664 45.7979 66.5643 45.8568 67.1077 46.0818C67.6511 46.3069 68.1155 46.688 68.4422 47.177C68.769 47.6661 68.9434 48.241 68.9434 48.8291C68.9426 49.6175 68.629 50.3734 68.0715 50.9309C67.514 51.4884 66.7582 51.802 65.9697 51.8028V51.8028ZM65.9697 47.0717C65.6222 47.0717 65.2824 47.1748 64.9934 47.3679C64.7044 47.561 64.4791 47.8354 64.3461 48.1566C64.2131 48.4777 64.1783 48.8311 64.2461 49.172C64.3139 49.5129 64.4813 49.826 64.7271 50.0718C64.9728 50.3176 65.286 50.485 65.6269 50.5528C65.9678 50.6206 66.3212 50.5858 66.6423 50.4528C66.9634 50.3198 67.2379 50.0945 67.431 49.8055C67.6241 49.5165 67.7272 49.1767 67.7272 48.8291C67.7267 48.3632 67.5414 47.9164 67.2119 47.587C66.8824 47.2575 66.4357 47.0722 65.9697 47.0717Z" fill="#212D55"/>
<path d="M46.9068 70.9831C46.7678 70.9832 46.633 70.9357 46.5248 70.8485C46.4166 70.7613 46.3415 70.6397 46.3121 70.5039L45.4084 66.3311C45.3754 66.1793 45.4018 66.0207 45.482 65.8877L46.247 64.6211C46.2925 64.5457 46.3537 64.4811 46.4266 64.4318C46.4995 64.3825 46.5822 64.3495 46.669 64.3352L48.0068 64.1145L47.7156 62.7529C47.6839 62.605 47.7085 62.4505 47.7847 62.3197C47.8608 62.1889 47.9829 62.0912 48.1273 62.0457L49.5654 61.5933L49.3137 60.3771C49.2833 60.2308 49.3079 60.0785 49.3827 59.9491C49.4576 59.8198 49.5774 59.7226 49.7193 59.6759L51.0304 59.2442L50.556 57.8905C50.5264 57.8062 50.5157 57.7164 50.5248 57.6275C50.5338 57.5385 50.5623 57.4527 50.6083 57.3761L52.4886 54.2443C51.5768 52.7895 51.1821 51.0697 51.3684 49.3628C51.5546 47.656 52.311 46.0618 53.5152 44.8379C54.7194 43.6141 56.3011 42.832 58.0047 42.618C59.7083 42.4041 61.4342 42.7708 62.9037 43.659L62.9906 43.7125C63.066 43.7581 63.1384 43.8025 63.2114 43.8505C63.278 43.8947 63.3352 43.9515 63.3799 44.0178C63.4245 44.0841 63.4556 44.1585 63.4715 44.2369C63.4874 44.3152 63.4877 44.3959 63.4723 44.4743C63.457 44.5527 63.4264 44.6274 63.3823 44.694C63.3381 44.7606 63.2812 44.8178 63.215 44.8624C63.1487 44.9071 63.0742 44.9382 62.9959 44.9541C62.9176 44.97 62.8369 44.9702 62.7585 44.9549C62.6801 44.9396 62.6054 44.909 62.5388 44.8648C62.478 44.8259 62.4208 44.79 62.3564 44.7529L62.267 44.6982C61.0067 43.9401 59.5242 43.6379 58.0677 43.8423C56.6112 44.0467 55.2691 44.7452 54.2662 45.8209C53.2632 46.8966 52.6602 48.2843 52.5581 49.7515C52.456 51.2187 52.8611 52.6764 53.7054 53.8807C53.773 53.9769 53.8112 54.0907 53.8154 54.2083C53.8196 54.3258 53.7897 54.442 53.7291 54.5429L51.8002 57.7567L52.3858 59.426C52.4126 59.5023 52.4239 59.5832 52.419 59.6639C52.4142 59.7446 52.3933 59.8235 52.3575 59.8961C52.3218 59.9686 52.272 60.0333 52.2109 60.0863C52.1499 60.1394 52.0789 60.1797 52.0021 60.205L50.6175 60.6611L50.8704 61.8834C50.9009 62.0309 50.8755 62.1844 50.7992 62.3143C50.7229 62.4442 50.6012 62.5411 50.4575 62.5863L49.0224 63.0382L49.3319 64.4824C49.3495 64.563 49.3505 64.6464 49.3349 64.7274C49.3192 64.8085 49.2872 64.8855 49.2408 64.9537C49.1945 65.022 49.1347 65.0801 49.0652 65.1245C48.9956 65.169 48.9177 65.1988 48.8363 65.2121L47.1433 65.4913L46.6483 66.311L47.3513 69.554L50.3718 68.4108L57.3389 56.8215C57.4008 56.7174 57.4926 56.6343 57.6024 56.583C57.7121 56.5317 57.8347 56.5146 57.9543 56.5338C59.2611 56.7427 60.6004 56.5381 61.7854 55.9488C61.857 55.9126 61.935 55.8909 62.015 55.8849C62.095 55.879 62.1754 55.889 62.2516 55.9142C62.3277 55.9395 62.3981 55.9796 62.4587 56.0322C62.5193 56.0848 62.5689 56.1489 62.6046 56.2208C62.6403 56.2926 62.6614 56.3708 62.6668 56.4509C62.6721 56.531 62.6615 56.6113 62.6357 56.6872C62.6099 56.7632 62.5692 56.8333 62.5162 56.8935C62.4631 56.9537 62.3987 57.0028 62.3266 57.038C61.0427 57.6767 59.6037 57.9369 58.1775 57.7884L51.3058 69.2208C51.2358 69.3373 51.1288 69.427 51.0018 69.4756L47.1239 70.9436C47.0546 70.9702 46.981 70.9836 46.9068 70.9831V70.9831Z" fill="#212D55"/>
<path d="M57.863 57.7416C57.7557 57.7411 57.6504 57.7122 57.5578 57.6578C57.4653 57.6034 57.3888 57.5255 57.3361 57.432C57.2834 57.3385 57.2564 57.2327 57.2579 57.1254C57.2593 57.018 57.2891 56.913 57.3443 56.8209L57.3486 56.8142C57.3901 56.746 57.4446 56.6866 57.5091 56.6394C57.5736 56.5923 57.6467 56.5583 57.7243 56.5394C57.802 56.5205 57.8825 56.5171 57.9615 56.5294C58.0404 56.5416 58.1162 56.5693 58.1844 56.6108C58.2526 56.6523 58.312 56.7069 58.3592 56.7714C58.4063 56.8359 58.4403 56.909 58.4592 56.9866C58.4781 57.0642 58.4815 57.1448 58.4693 57.2237C58.457 57.3027 58.4293 57.3784 58.3878 57.4467C58.3329 57.5367 58.2558 57.611 58.1639 57.6627C58.072 57.7143 57.9684 57.7415 57.863 57.7416V57.7416Z" fill="#212D55"/>
<path d="M68.2425 48.7816C68.1058 48.7832 67.9725 48.7386 67.8643 48.6551C67.756 48.5716 67.679 48.454 67.6458 48.3214C67.6125 48.1888 67.6249 48.0488 67.681 47.9241C67.7371 47.7994 67.8336 47.6972 67.9549 47.6341C69.1538 46.8201 70.1008 45.6867 70.6887 44.3622C71.2766 43.0377 71.482 41.5751 71.2815 40.1399C71.081 38.7047 70.4827 37.3543 69.5543 36.2417C68.6259 35.129 67.4046 34.2985 66.0285 33.8442C64.6525 33.3899 63.1767 33.3299 61.7683 33.6711C60.36 34.0122 59.0752 34.7409 58.0596 35.7746C57.044 36.8083 56.3381 38.1056 56.0219 39.5198C55.7056 40.934 55.7916 42.4085 56.2701 43.7763C56.3003 43.8523 56.3148 43.9336 56.3128 44.0154C56.3108 44.0971 56.2924 44.1777 56.2586 44.2521C56.2248 44.3266 56.1763 44.3935 56.116 44.4487C56.0557 44.504 55.9849 44.5466 55.9078 44.5739C55.8308 44.6012 55.7489 44.6126 55.6673 44.6076C55.5857 44.6025 55.5059 44.5811 55.4328 44.5445C55.3596 44.5079 55.2946 44.4569 55.2417 44.3946C55.1887 44.3323 55.1488 44.26 55.1244 44.1819C54.5675 42.5957 54.4669 40.885 54.834 39.2445C55.2011 37.6039 56.0212 36.0993 57.201 34.9017C58.3808 33.7041 59.873 32.8617 61.5079 32.4701C63.1428 32.0785 64.8548 32.1536 66.4491 32.6868C68.0435 33.22 69.4562 34.1899 70.5267 35.4861C71.5971 36.7824 72.2824 38.353 72.5044 40.0194C72.7265 41.6858 72.4765 43.3811 71.7828 44.9125C71.0892 46.4438 69.9797 47.7498 68.5806 48.6819C68.4804 48.748 68.3626 48.7827 68.2425 48.7816V48.7816Z" fill="#212D55"/>
</g>
<defs>
<filter id="filter0_d_2420_177" x="5" y="3" width="120" height="109" filterUnits="userSpaceOnUse" color-interpolation-filters="sRGB">
<feFlood flood-opacity="0" result="BackgroundImageFix"/>
<feColorMatrix in="SourceAlpha" type="matrix" values="0 0 0 0 0 0 0 0 0 0 0 0 0 0 0 0 0 0 127 0" result="hardAlpha"/>
<feOffset dx="5" dy="4"/>
<feGaussianBlur stdDeviation="10"/>
<feComposite in2="hardAlpha" operator="out"/>
<feColorMatrix type="matrix" values="0 0 0 0 0.129412 0 0 0 0 0.176471 0 0 0 0 0.333333 0 0 0 0.2 0"/>
<feBlend mode="normal" in2="BackgroundImageFix" result="effect1_dropShadow_2420_177"/>
<feBlend mode="normal" in="SourceGraphic" in2="effect1_dropShadow_2420_177" result="shape"/>
</filter>
<clipPath id="clip0_2420_177">
<rect width="119" height="107" fill="white"/>
</clipPath>
</defs>
</svg>
