<svg width="185" height="94" viewBox="0 0 185 94" fill="none" xmlns="http://www.w3.org/2000/svg">
<g clip-path="url(#clip0_360_134)">
<path d="M88.0827 45.5341L46.211 5.55286C45.3631 4.74327 43.9884 4.74327 43.1406 5.55286L1.26883 45.5341C0.420952 46.3437 0.420953 47.6563 1.26883 48.4659L43.1406 88.4471C43.9884 89.2567 45.3631 89.2567 46.211 88.4471L88.0827 48.4659C88.9306 47.6563 88.9306 46.3437 88.0827 45.5341Z" fill="url(#paint0_linear_360_134)"/>
<path d="M61.4171 74.0381C56.1548 76.6499 57.3361 76.5491 50.9029 77.0687C44.4692 77.5879 37.9965 76.5383 32.2164 74.0381C26.4363 71.5379 21.5798 67.6872 18.1962 62.9216C14.8127 58.156 13.0373 52.6657 13.0708 47.0717C13.1043 41.4778 14.9454 36.0037 18.3858 31.2687C21.8262 26.5336 26.7285 22.7267 32.5382 20.2786C38.348 17.8305 44.833 16.8389 51.2598 17.4161C57.6866 17.9932 59.3272 18.3965 64.4328 21.8249L61.4171 31.9022C58.113 29.6837 54.1581 28.31 49.9995 27.9366C45.8409 27.5631 41.6442 28.2047 37.8848 29.7889C34.1253 31.373 30.953 33.8365 28.7268 36.9005C26.5005 39.9645 25.3092 43.5068 25.2875 47.1267C25.2658 50.7464 26.4147 54.2991 28.6041 57.383C30.7936 60.4669 33.9362 62.9584 37.6765 64.5764C41.4167 66.194 45.6052 66.8732 49.7681 66.5371C53.9315 66.201 57.9024 64.8629 61.2328 62.6744L61.4171 74.0381Z" fill="#D0D0D0"/>
<path d="M91.2802 19.1953C90.2506 19.1953 89.4535 19.566 88.8885 20.3075C88.324 21.0434 88.0415 22.0713 88.0415 23.3913C88.0415 26.1382 89.1211 27.5116 91.2802 27.5116C92.1857 27.5116 93.2829 27.2953 94.5712 26.8628V29.0535C93.5126 29.4748 92.3303 29.6854 91.0239 29.6854C89.1472 29.6854 87.7119 29.1434 86.718 28.0592C85.7235 26.9695 85.2266 25.4079 85.2266 23.3745C85.2266 22.0938 85.4705 20.9731 85.959 20.0126C86.4474 19.0464 87.1474 18.3078 88.0591 17.7966C88.977 17.2798 90.0504 17.0214 91.2802 17.0214C92.5329 17.0214 93.7917 17.3107 95.0568 17.8893L94.1741 20.0126C93.6919 19.7935 93.2068 19.6025 92.7184 19.4397C92.2299 19.2768 91.7505 19.1953 91.2802 19.1953ZM105.275 20.0969V22.0264H102.045V29.5169H99.3541V22.0264H96.1154V20.0969H105.275ZM112.538 29.6854C111.379 29.6854 110.47 29.2838 109.811 28.4805H109.669C109.764 29.2669 109.811 29.7219 109.811 29.8455V33.6624H107.119V20.0969H109.308L109.687 21.3186H109.811C110.44 20.3861 111.373 19.9199 112.608 19.9199C113.773 19.9199 114.685 20.3496 115.344 21.2091C116.003 22.0685 116.332 23.2621 116.332 24.79C116.332 25.7955 116.176 26.669 115.864 27.4104C115.558 28.1519 115.12 28.7165 114.549 29.104C113.979 29.4916 113.308 29.6854 112.538 29.6854ZM111.743 21.9758C111.079 21.9758 110.593 22.1724 110.287 22.5656C109.981 22.9532 109.823 23.5964 109.811 24.4951V24.7732C109.811 25.7843 109.967 26.5089 110.279 26.947C110.596 27.3852 111.096 27.6043 111.779 27.6043C112.985 27.6043 113.588 26.6549 113.588 24.7563C113.588 23.8295 113.437 23.1358 113.137 22.6752C112.843 22.2089 112.379 21.9758 111.743 21.9758ZM120.7 24.79C120.7 25.7225 120.859 26.4274 121.176 26.9049C121.5 27.3824 122.023 27.6211 122.747 27.6211C123.465 27.6211 123.98 27.3852 124.292 26.9133C124.609 26.4359 124.768 25.7281 124.768 24.79C124.768 23.8576 124.609 23.1582 124.292 22.692C123.974 22.2258 123.453 21.9927 122.729 21.9927C122.012 21.9927 121.494 22.2258 121.176 22.692C120.859 23.1526 120.7 23.852 120.7 24.79ZM127.521 24.79C127.521 26.3235 127.097 27.5228 126.25 28.3879C125.403 29.2529 124.224 29.6854 122.712 29.6854C121.765 29.6854 120.929 29.4888 120.206 29.0956C119.482 28.6968 118.926 28.1267 118.538 27.3852C118.15 26.6437 117.955 25.7787 117.955 24.79C117.955 23.2509 118.376 22.0544 119.218 21.2006C120.059 20.3468 121.241 19.9199 122.765 19.9199C123.712 19.9199 124.547 20.1165 125.271 20.5097C125.995 20.9029 126.551 21.4675 126.939 22.2033C127.327 22.9392 127.521 23.8014 127.521 24.79ZM132.348 20.0969V23.8211C132.348 24.2143 132.28 25.1748 132.145 26.7027L136.698 20.0969H139.937V29.5169H137.333V25.759C137.333 25.0906 137.392 24.1469 137.51 22.9279L132.974 29.5169H129.745V20.0969H132.348ZM150.932 20.0969V22.0264H147.702V29.5169H145.011V22.0264H141.772V20.0969H150.932ZM156.862 21.7483C156.291 21.7483 155.844 21.9224 155.52 22.2707C155.197 22.6134 155.012 23.1021 154.964 23.7368H158.741C158.729 23.1021 158.556 22.6134 158.22 22.2707C157.885 21.9224 157.432 21.7483 156.862 21.7483ZM157.241 29.6854C155.653 29.6854 154.411 29.2669 153.517 28.43C152.623 27.593 152.176 26.4078 152.176 24.8743C152.176 23.2959 152.587 22.0769 153.411 21.2175C154.241 20.3525 155.385 19.9199 156.844 19.9199C158.238 19.9199 159.324 20.2991 160.1 21.0574C160.876 21.8157 161.265 22.8633 161.265 24.2002V25.4473H154.903C154.932 26.1775 155.158 26.7476 155.582 27.1577C156.005 27.5677 156.6 27.7728 157.365 27.7728C157.959 27.7728 158.52 27.7138 159.05 27.5958C159.579 27.4779 160.133 27.2897 160.709 27.0313V29.0198C160.238 29.2445 159.735 29.4102 159.2 29.5169C158.664 29.6293 158.011 29.6854 157.241 29.6854ZM172.286 29.5169H169.595V22.0264H167.115C166.927 24.1328 166.697 25.7056 166.427 26.7448C166.156 27.7784 165.794 28.5283 165.342 28.9945C164.895 29.4551 164.306 29.6854 163.577 29.6854C162.953 29.6854 162.441 29.5956 162.042 29.4158V27.3599C162.33 27.4722 162.618 27.5284 162.906 27.5284C163.241 27.5284 163.521 27.2981 163.745 26.8375C163.974 26.3769 164.177 25.6101 164.353 24.5373C164.535 23.4588 164.691 21.9786 164.821 20.0969H172.286V29.5169ZM177.81 23.7368H179.707C181.225 23.7368 182.349 23.9671 183.078 24.4277C183.808 24.8883 184.173 25.5848 184.173 26.5173C184.173 28.5171 182.719 29.5169 179.813 29.5169H175.119V20.0969H177.81V23.7368ZM181.481 26.551C181.481 26.1859 181.328 25.9219 181.022 25.759C180.716 25.5961 180.26 25.5146 179.655 25.5146H177.81V27.7391H179.69C180.884 27.7391 181.481 27.3431 181.481 26.551Z" fill="#212D55"/>
<path d="M105.068 38.0975C104.398 38.0975 103.872 38.3241 103.488 38.7773C103.104 39.2305 102.912 39.856 102.912 40.6538C102.912 41.4889 103.096 42.1206 103.464 42.5489C103.834 42.9773 104.369 43.1915 105.068 43.1915C105.37 43.1915 105.663 43.1636 105.946 43.1077C106.229 43.0487 106.523 42.9743 106.828 42.8842V43.8388C106.269 44.0405 105.635 44.1414 104.927 44.1414C103.883 44.1414 103.081 43.8403 102.523 43.2381C101.963 42.6328 101.684 41.7682 101.684 40.6445C101.684 39.9367 101.819 39.3174 102.088 38.7866C102.361 38.2558 102.755 37.8491 103.269 37.5667C103.782 37.2842 104.385 37.1429 105.078 37.1429C105.806 37.1429 106.479 37.2888 107.097 37.5806L106.677 38.5073C106.437 38.3986 106.182 38.3039 105.911 38.2232C105.645 38.1394 105.364 38.0975 105.068 38.0975ZM112.295 38.8984V39.7551H110.539V44.0483H109.388V39.7551H107.633V38.8984H112.295ZM116.069 44.1414C115.386 44.1414 114.857 43.9071 114.48 43.4383H114.411C114.457 43.8729 114.48 44.1368 114.48 44.2299V46.3393H113.334V38.8984H114.26C114.286 38.9946 114.34 39.2243 114.421 39.5875H114.48C114.837 39.066 115.374 38.8052 116.089 38.8052C116.762 38.8052 117.285 39.0381 117.659 39.5037C118.036 39.9693 118.225 40.6228 118.225 41.464C118.225 42.3053 118.033 42.9618 117.649 43.4337C117.269 43.9055 116.742 44.1414 116.069 44.1414ZM115.792 39.6993C115.337 39.6993 115.003 39.8265 114.792 40.0811C114.584 40.3356 114.48 40.7423 114.48 41.3011V41.464C114.48 42.0911 114.584 42.5459 114.792 42.8284C115 43.1077 115.339 43.2474 115.811 43.2474C116.208 43.2474 116.513 43.0922 116.728 42.7818C116.942 42.4713 117.05 42.029 117.05 41.4547C117.05 40.8773 116.942 40.4412 116.728 40.1463C116.516 39.8483 116.204 39.6993 115.792 39.6993ZM124.34 41.464C124.34 42.3053 124.114 42.9618 123.662 43.4337C123.21 43.9055 122.581 44.1414 121.775 44.1414C121.271 44.1414 120.826 44.0328 120.439 43.8155C120.052 43.5982 119.755 43.2862 119.546 42.8796C119.338 42.4729 119.234 42.0011 119.234 41.464C119.234 40.629 119.459 39.9771 119.907 39.5083C120.356 39.0396 120.988 38.8052 121.804 38.8052C122.584 38.8052 123.202 39.0458 123.657 39.527C124.112 40.005 124.34 40.6507 124.34 41.464ZM120.414 41.464C120.414 42.6529 120.875 43.2474 121.794 43.2474C122.705 43.2474 123.16 42.6529 123.16 41.464C123.16 40.2875 122.701 39.6993 121.785 39.6993C121.304 39.6993 120.954 39.8514 120.736 40.1556C120.522 40.4598 120.414 40.8959 120.414 41.464ZM126.759 38.8984V41.5385C126.759 41.8458 126.733 42.2975 126.681 42.8935L129.387 38.8984H130.787V44.0483H129.685V41.4547C129.685 41.3119 129.693 41.0806 129.709 40.7609C129.728 40.4412 129.745 40.2083 129.758 40.0625L127.061 44.0483H125.661V38.8984H126.759ZM135.517 43.0006L135.58 42.7771C135.714 42.3146 135.829 41.9591 135.927 41.7108L137.136 38.8984H138.662V44.0483H137.604V39.8902L137.517 40.1696C137.37 40.6694 137.246 41.0372 137.146 41.2731L135.966 44.0483H135.098L133.917 41.2545C133.755 40.8509 133.605 40.3962 133.469 39.8902V44.0483H132.42V38.8984H133.937L135.107 41.627C135.211 41.8785 135.348 42.3363 135.517 43.0006ZM147.577 40.2161C147.577 40.8246 147.205 41.1924 146.46 41.3197V41.3569C146.876 41.4035 147.195 41.5292 147.416 41.7341C147.637 41.939 147.747 42.2044 147.747 42.5303C147.747 43.0177 147.552 43.3933 147.162 43.6572C146.775 43.9179 146.211 44.0483 145.47 44.0483H142.895V38.8984H145.46C146.871 38.8984 147.577 39.3376 147.577 40.2161ZM146.572 42.4652C146.572 42.2168 146.471 42.0414 146.27 41.939C146.068 41.8335 145.766 41.7806 145.363 41.7806H144.041V43.2381H145.392C146.179 43.2381 146.572 42.9804 146.572 42.4652ZM146.431 40.3092C146.431 40.1043 146.346 39.9569 146.177 39.8669C146.011 39.7738 145.763 39.7272 145.431 39.7272H144.041V40.9658H145.26C145.644 40.9658 145.935 40.9192 146.133 40.8261C146.331 40.7299 146.431 40.5576 146.431 40.3092ZM155.959 44.0483H154.804V39.7551H153.316C153.225 40.8603 153.102 41.7232 152.946 42.3441C152.793 42.9649 152.591 43.4181 152.341 43.7037C152.094 43.9893 151.772 44.1321 151.375 44.1321C151.125 44.1321 150.915 44.098 150.747 44.0297V43.1729C150.866 43.2164 150.987 43.2381 151.107 43.2381C151.439 43.2381 151.699 42.8827 151.888 42.1718C152.079 41.4578 152.229 40.3667 152.336 38.8984H155.959V44.0483ZM164.806 41.464C164.806 42.3084 164.589 42.9665 164.157 43.4383C163.728 43.9071 163.128 44.1414 162.357 44.1414C161.649 44.1414 161.085 43.9428 160.665 43.5454C160.249 43.145 160.007 42.5722 159.939 41.8272H158.749V44.0483H157.603V38.8984H158.749V40.9658H159.949C160.03 40.2829 160.28 39.7521 160.7 39.3733C161.122 38.9946 161.681 38.8052 162.377 38.8052C163.125 38.8052 163.717 39.0458 164.152 39.527C164.588 40.005 164.806 40.6507 164.806 41.464ZM161.109 41.464C161.109 42.0507 161.207 42.4946 161.402 42.7957C161.6 43.0969 161.922 43.2474 162.367 43.2474C162.809 43.2474 163.13 43.0969 163.328 42.7957C163.526 42.4946 163.625 42.0507 163.625 41.464C163.625 40.8835 163.526 40.4443 163.328 40.1463C163.13 39.8483 162.809 39.6993 162.367 39.6993C161.922 39.6993 161.6 39.8483 161.402 40.1463C161.207 40.4443 161.109 40.8835 161.109 41.464ZM165.825 40.9565C165.825 39.8079 166.028 38.9248 166.434 38.307C166.844 37.6893 167.494 37.2919 168.385 37.115C169.058 36.9846 169.833 36.8574 170.711 36.7332L170.872 37.697C169.805 37.8523 169.025 37.9733 168.531 38.0602C168.021 38.1502 167.652 38.3505 167.424 38.6609C167.2 38.9713 167.07 39.4385 167.034 40.0625H167.107C167.292 39.8048 167.535 39.6062 167.834 39.4665C168.133 39.3237 168.453 39.2523 168.794 39.2523C169.458 39.2523 169.975 39.4525 170.345 39.8529C170.716 40.2534 170.901 40.8153 170.901 41.5385C170.901 42.3673 170.675 43.0084 170.223 43.4616C169.775 43.9148 169.152 44.1414 168.355 44.1414C167.565 44.1414 166.946 43.862 166.498 43.3033C166.049 42.7445 165.825 41.9622 165.825 40.9565ZM168.433 43.2474C169.285 43.2474 169.711 42.7135 169.711 41.6456C169.711 40.615 169.326 40.0997 168.556 40.0997C168.344 40.0997 168.139 40.1432 167.941 40.2301C167.743 40.317 167.559 40.4319 167.39 40.5747C167.224 40.7174 167.096 40.8649 167.005 41.017C167.005 41.7496 167.127 42.3053 167.37 42.684C167.614 43.0596 167.969 43.2474 168.433 43.2474ZM173.368 40.9565H174.461C175.215 40.9565 175.773 41.0806 176.133 41.329C176.494 41.5773 176.675 41.9498 176.675 42.4465C176.675 42.9773 176.486 43.3778 176.109 43.6479C175.735 43.9148 175.186 44.0483 174.461 44.0483H172.223V38.8984H173.368V40.9565ZM175.539 42.4745C175.539 42.2168 175.438 42.0368 175.237 41.9343C175.038 41.8319 174.752 41.7806 174.378 41.7806H173.368V43.2381H174.232C174.693 43.2381 175.027 43.176 175.231 43.0519C175.436 42.9277 175.539 42.7352 175.539 42.4745ZM178.675 44.0483H177.524V38.8984H178.675V44.0483ZM181.518 41.4174L179.708 38.8984H181.015L182.244 40.7004L183.483 38.8984H184.78L182.966 41.4174L184.872 44.0483H183.575L182.244 42.1206L180.917 44.0483H179.62L181.518 41.4174ZM113.982 52.0674V54.1349H116.523V52.0674H117.669V57.2174H116.523V54.9964H113.982V57.2174H112.836V52.0674H113.982ZM122.687 57.2174L122.458 56.5004H122.419C122.159 56.8137 121.897 57.028 121.634 57.1429C121.37 57.2546 121.032 57.3105 120.619 57.3105C120.089 57.3105 119.675 57.1738 119.376 56.9009C119.08 56.6275 118.932 56.2411 118.932 55.7415C118.932 55.2107 119.138 54.8102 119.551 54.54C119.964 54.2698 120.593 54.1227 121.439 54.0977L122.37 54.0695V53.7948C122.37 53.466 122.289 53.2208 122.126 53.0591C121.967 52.8948 121.718 52.8126 121.38 52.8126C121.103 52.8126 120.838 52.8512 120.585 52.9288C120.331 53.0065 120.088 53.0982 119.854 53.2035L119.483 52.4211C119.776 52.2754 120.096 52.1655 120.444 52.0905C120.791 52.0133 121.12 51.9743 121.429 51.9743C122.114 51.9743 122.631 52.1173 122.98 52.4025C123.33 52.6881 123.506 53.1368 123.506 53.7485V57.2174H122.687ZM120.98 56.4722C121.396 56.4722 121.729 56.3623 121.98 56.1416C122.233 55.9182 122.36 55.6062 122.36 55.2057V54.7589L121.668 54.7866C121.128 54.8052 120.735 54.8924 120.487 55.0477C120.244 55.1998 120.122 55.4341 120.122 55.7506C120.122 55.9804 120.193 56.1589 120.336 56.286C120.479 56.4104 120.694 56.4722 120.98 56.4722ZM129.821 52.0674V57.2174H128.67V52.9334H126.252V57.2174H125.106V52.0674H129.821ZM134.2 57.3105C133.518 57.3105 132.988 57.0762 132.61 56.6075H132.542C132.588 57.0421 132.61 57.3059 132.61 57.399V59.5084H131.465V52.0674H132.391C132.417 52.1636 132.471 52.3934 132.552 52.7567H132.61C132.968 52.2349 133.505 51.9743 134.22 51.9743C134.893 51.9743 135.416 52.2072 135.79 52.6727C136.167 53.1386 136.356 53.7921 136.356 54.6331C136.356 55.4745 136.164 56.1307 135.78 56.6025C135.4 57.0748 134.873 57.3105 134.2 57.3105ZM133.923 52.8684C133.467 52.8684 133.134 52.9956 132.923 53.2503C132.715 53.5046 132.61 53.9115 132.61 54.47V54.6331C132.61 55.2602 132.715 55.7148 132.923 55.9972C133.131 56.2769 133.47 56.4163 133.942 56.4163C134.339 56.4163 134.644 56.2615 134.859 55.9509C135.073 55.6403 135.18 55.198 135.18 54.624C135.18 54.0464 135.073 53.6104 134.859 53.3153C134.647 53.0174 134.335 52.8684 133.923 52.8684ZM141.061 57.2174L140.832 56.5004H140.793C140.533 56.8137 140.272 57.028 140.008 57.1429C139.745 57.2546 139.407 57.3105 138.994 57.3105C138.464 57.3105 138.05 57.1738 137.751 56.9009C137.455 56.6275 137.307 56.2411 137.307 55.7415C137.307 55.2107 137.513 54.8102 137.926 54.54C138.339 54.2698 138.968 54.1227 139.813 54.0977L140.745 54.0695V53.7948C140.745 53.466 140.663 53.2208 140.501 53.0591C140.341 52.8948 140.093 52.8126 139.755 52.8126C139.478 52.8126 139.213 52.8512 138.96 52.9288C138.706 53.0065 138.462 53.0982 138.228 53.2035L137.858 52.4211C138.15 52.2754 138.471 52.1655 138.819 52.0905C139.166 52.0133 139.494 51.9743 139.804 51.9743C140.489 51.9743 141.006 52.1173 141.354 52.4025C141.705 52.6881 141.881 53.1368 141.881 53.7485V57.2174H141.061ZM139.355 56.4722C139.771 56.4722 140.104 56.3623 140.354 56.1416C140.608 55.9182 140.735 55.6062 140.735 55.2057V54.7589L140.042 54.7866C139.503 54.8052 139.109 54.8924 138.862 55.0477C138.618 55.1998 138.497 55.4341 138.497 55.7506C138.497 55.9804 138.568 56.1589 138.711 56.286C138.854 56.4104 139.069 56.4722 139.355 56.4722ZM148.162 53.3852C148.162 53.9937 147.789 54.3615 147.045 54.4887V54.5259C147.461 54.5727 147.78 54.6985 148.001 54.9033C148.222 55.1081 148.333 55.3733 148.333 55.6993C148.333 56.1866 148.138 56.5626 147.747 56.8264C147.361 57.0871 146.796 57.2174 146.055 57.2174H143.48V52.0674H146.046C147.457 52.0674 148.162 52.5065 148.162 53.3852ZM147.157 55.6344C147.157 55.386 147.057 55.2107 146.855 55.1081C146.653 55.0027 146.351 54.9496 145.948 54.9496H144.626V56.4073H145.977C146.764 56.4073 147.157 56.1493 147.157 55.6344ZM147.016 53.4783C147.016 53.2735 146.932 53.1259 146.762 53.036C146.596 52.9429 146.348 52.8961 146.016 52.8961H144.626V54.1349H145.845C146.229 54.1349 146.52 54.0881 146.718 53.9951C146.917 53.8988 147.016 53.7267 147.016 53.4783ZM153.95 57.2174H152.794V52.9243H151.307C151.216 54.0291 151.093 54.8924 150.936 55.5131C150.784 56.1339 150.582 56.5871 150.332 56.8727C150.085 57.1584 149.763 57.3014 149.367 57.3014C149.116 57.3014 148.906 57.2669 148.737 57.1988V56.3419C148.858 56.3855 148.978 56.4073 149.098 56.4073C149.43 56.4073 149.69 56.0517 149.878 55.341C150.07 54.6267 150.22 53.5359 150.327 52.0674H153.95V57.2174ZM157.949 57.3105C157.11 57.3105 156.454 57.0775 155.979 56.6121C155.508 56.1434 155.272 55.4991 155.272 54.6798C155.272 53.8384 155.491 53.1772 155.93 52.6959C156.369 52.215 156.972 51.9743 157.74 51.9743C158.451 51.9743 159.014 52.1809 159.427 52.5937C159.84 53.0065 160.046 53.5745 160.046 54.2979V54.8892H156.452C156.468 55.3892 156.61 55.7738 156.876 56.044C157.143 56.311 157.518 56.4445 158.003 56.4445C158.321 56.4445 158.617 56.4163 158.89 56.3605C159.167 56.3015 159.463 56.2052 159.778 56.0721V56.9613C159.498 57.0884 159.215 57.1788 158.929 57.2315C158.643 57.2841 158.316 57.3105 157.949 57.3105ZM157.74 52.803C157.375 52.803 157.083 52.9134 156.862 53.1336C156.644 53.3543 156.514 53.6754 156.472 54.0977H158.919C158.913 53.6722 158.806 53.3511 158.597 53.1336C158.39 52.9134 158.103 52.803 157.74 52.803ZM162.494 52.0674V54.1349H165.035V52.0674H166.181V57.2174H165.035V54.9964H162.494V57.2174H161.348V52.0674H162.494ZM168.921 52.0674V54.7075C168.921 55.015 168.895 55.4668 168.843 56.0626L171.55 52.0674H172.949V57.2174H171.847V54.624C171.847 54.4809 171.855 54.2498 171.871 53.9301C171.891 53.6104 171.907 53.3775 171.92 53.2317L169.224 57.2174H167.824V52.0674H168.921ZM175.134 57.2174H173.852L175.354 55.1081C174.989 55.0086 174.703 54.832 174.495 54.5772C174.287 54.3197 174.183 54.0014 174.183 53.6227C174.183 53.1354 174.365 52.7549 174.729 52.482C175.093 52.2054 175.591 52.0674 176.221 52.0674H178.679V57.2174H177.528V55.2339H176.441L175.134 57.2174ZM175.3 53.6318C175.3 53.8961 175.404 54.0945 175.612 54.228C175.823 54.3583 176.106 54.4237 176.46 54.4237H177.528V52.8961H176.28C175.968 52.8961 175.725 52.9601 175.553 53.0873C175.384 53.2144 175.3 53.3961 175.3 53.6318ZM181.518 54.5868L179.708 52.0674H181.015L182.244 53.8693L183.483 52.0674H184.78L182.966 54.5868L184.872 57.2174H183.575L182.244 55.2897L180.917 57.2174H179.62L181.518 54.5868Z" fill="#212D55"/>
</g>
<defs>
<linearGradient id="paint0_linear_360_134" x1="67.147" y1="25.5436" x2="24.2797" y2="70.4379" gradientUnits="userSpaceOnUse">
<stop stop-color="#212D55"/>
<stop offset="0.491587" stop-color="#212D55" stop-opacity="0.38"/>
<stop offset="1" stop-color="#212D55"/>
</linearGradient>
<clipPath id="clip0_360_134">
<rect width="185" height="94" fill="white"/>
</clipPath>
</defs>
</svg>
