<svg width="119" height="107" viewBox="0 0 119 107" fill="none" xmlns="http://www.w3.org/2000/svg">
<g clip-path="url(#clip0_2420_342)">
<g filter="url(#filter0_d_2420_342)">
<path fill-rule="evenodd" clip-rule="evenodd" d="M30 19C24.4772 19 20 23.4772 20 29V46.3892C22.509 46.7842 24.4606 49.8171 24.4606 53.5C24.4606 57.1829 22.509 60.2159 20 60.6109V78C20 83.5229 24.4772 88 30 88H90C95.5229 88 100 83.5228 100 78V29C100 23.4772 95.5229 19 90 19H30Z" fill="white"/>
</g>
<g clip-path="url(#clip1_2420_342)">
<path d="M61.7447 41.9187H53.6992V65.0814H56.3359V57.7389H61.7447C66.0318 57.7389 69.5195 54.2512 69.5195 49.9642V49.6933C69.5195 45.4065 66.0318 41.9187 61.7447 41.9187ZM66.8828 49.9643C66.8828 52.7974 64.5779 55.1023 61.7447 55.1023H56.3359V44.5554H61.7447C64.5779 44.5554 66.8828 46.8604 66.8828 49.6934V49.9643Z" fill="#212D55"/>
<path d="M75.41 37.59C71.1602 33.3404 65.51 31 59.5 31C53.49 31 47.8398 33.3404 43.59 37.59C39.3404 41.8398 37 47.4901 37 53.5C37 59.5099 39.3404 65.1602 43.5901 69.4099C47.8398 73.6596 53.49 76 59.5 76C65.51 76 71.1602 73.6596 75.41 69.41C79.6596 65.1602 82 59.5099 82 53.5C82 47.4901 79.6596 41.8398 75.41 37.59ZM73.5455 67.5455C69.7938 71.2971 64.8056 73.3633 59.5 73.3633C54.1943 73.3633 49.2063 71.2971 45.4546 67.5454C41.7029 63.7937 39.6367 58.8056 39.6367 53.5C39.6367 48.1944 41.7029 43.2063 45.4546 39.4545C49.2063 35.7029 54.1943 33.6367 59.5 33.6367C64.8056 33.6367 69.7938 35.7029 73.5455 39.4545C77.2971 43.2063 79.3633 48.1944 79.3633 53.5C79.3633 58.8056 77.2971 63.7938 73.5455 67.5455Z" fill="#212D55"/>
</g>
</g>
<defs>
<filter id="filter0_d_2420_342" x="0" y="4" width="120" height="109" filterUnits="userSpaceOnUse" color-interpolation-filters="sRGB">
<feFlood flood-opacity="0" result="BackgroundImageFix"/>
<feColorMatrix in="SourceAlpha" type="matrix" values="0 0 0 0 0 0 0 0 0 0 0 0 0 0 0 0 0 0 127 0" result="hardAlpha"/>
<feOffset dy="5"/>
<feGaussianBlur stdDeviation="10"/>
<feComposite in2="hardAlpha" operator="out"/>
<feColorMatrix type="matrix" values="0 0 0 0 0.129412 0 0 0 0 0.176471 0 0 0 0 0.333333 0 0 0 0.2 0"/>
<feBlend mode="normal" in2="BackgroundImageFix" result="effect1_dropShadow_2420_342"/>
<feBlend mode="normal" in="SourceGraphic" in2="effect1_dropShadow_2420_342" result="shape"/>
</filter>
<clipPath id="clip0_2420_342">
<rect width="119" height="107" fill="white"/>
</clipPath>
<clipPath id="clip1_2420_342">
<rect width="45" height="45" fill="white" transform="translate(37 31)"/>
</clipPath>
</defs>
</svg>
