<svg width="292" height="169" viewBox="0 0 292 169" fill="none" xmlns="http://www.w3.org/2000/svg">
<g filter="url(#filter0_d_360_322)">
<rect x="15" y="10" width="262" height="139" rx="10" fill="#F9FCFD"/>
</g>
<g filter="url(#filter1_d_360_322)">
<path fill-rule="evenodd" clip-rule="evenodd" d="M40 45C34.4772 45 30 49.4772 30 55V72.3892C32.509 72.7842 34.4606 75.8171 34.4606 79.5C34.4606 83.1829 32.509 86.2159 30 86.6109V104C30 109.523 34.4772 114 40 114H100C105.523 114 110 109.523 110 104V55C110 49.4772 105.523 45 100 45H40Z" fill="white"/>
</g>
<path d="M78.0661 95.9688C77.9048 95.9688 77.7501 95.9047 77.6361 95.7907C77.522 95.6766 77.458 95.5219 77.458 95.3607V63.0567L69.7508 59.8234L63.2787 62.3696V95.3607C63.2787 95.5219 63.2146 95.6766 63.1006 95.7907C62.9866 95.9047 62.8319 95.9688 62.6706 95.9688C62.5093 95.9688 62.3547 95.9047 62.2406 95.7907C62.1266 95.6766 62.0625 95.5219 62.0625 95.3607V61.9548C62.0625 61.8327 62.0992 61.7133 62.168 61.6123C62.2367 61.5113 62.3343 61.4334 62.448 61.3887L69.5355 58.6005C69.683 58.5424 69.8473 58.5442 69.9934 58.6054L78.3014 62.0917C78.4119 62.138 78.5062 62.216 78.5725 62.3157C78.6388 62.4155 78.6742 62.5326 78.6742 62.6523V95.3607C78.6742 95.5219 78.6101 95.6766 78.4961 95.7907C78.382 95.9047 78.2274 95.9688 78.0661 95.9688Z" fill="#212D55"/>
<path d="M69.7565 95.9688C69.5953 95.9688 69.4406 95.9047 69.3265 95.7907C69.2125 95.6767 69.1484 95.522 69.1484 95.3607V59.1667C69.1484 59.0054 69.2125 58.8507 69.3265 58.7367C69.4406 58.6227 69.5953 58.5586 69.7565 58.5586C69.9178 58.5586 70.0725 58.6227 70.1865 58.7367C70.3006 58.8507 70.3647 59.0054 70.3647 59.1667V95.3607C70.3647 95.522 70.3006 95.6767 70.1865 95.7907C70.0725 95.9047 69.9178 95.9688 69.7565 95.9688Z" fill="#212D55"/>
<path d="M87.883 95.9688C87.7218 95.9688 87.5671 95.9047 87.453 95.7907C87.339 95.6766 87.2749 95.522 87.2749 95.3607V76.2478L81.3289 72.7883H78.0651C77.9039 72.7883 77.7492 72.7242 77.6351 72.6102C77.5211 72.4961 77.457 72.3415 77.457 72.1802C77.457 72.0189 77.5211 71.8642 77.6351 71.7502C77.7492 71.6362 77.9039 71.5721 78.0651 71.5721H81.493C81.5999 71.5725 81.7048 71.601 81.7971 71.6548L88.1877 75.3728C88.28 75.426 88.3566 75.5026 88.41 75.5948C88.4633 75.687 88.4915 75.7916 88.4918 75.8982V95.3576C88.4922 95.4378 88.4767 95.5172 88.4463 95.5914C88.4159 95.6656 88.3711 95.733 88.3145 95.7898C88.2579 95.8466 88.1907 95.8917 88.1167 95.9224C88.0426 95.9531 87.9632 95.9689 87.883 95.9688Z" fill="#212D55"/>
<path d="M81.4948 95.9688C81.3335 95.9688 81.1789 95.9047 81.0648 95.7907C80.9508 95.6766 80.8867 95.522 80.8867 95.3607V72.1802C80.8867 72.0189 80.9508 71.8642 81.0648 71.7502C81.1789 71.6362 81.3335 71.5721 81.4948 71.5721C81.6561 71.5721 81.8108 71.6362 81.9248 71.7502C82.0389 71.8642 82.1029 72.0189 82.1029 72.1802V95.3607C82.1029 95.522 82.0389 95.6766 81.9248 95.7907C81.8108 95.9047 81.6561 95.9688 81.4948 95.9688Z" fill="#212D55"/>
<path d="M50.1784 95.9688C50.0171 95.9688 49.8625 95.9047 49.7484 95.7907C49.6344 95.6766 49.5703 95.522 49.5703 95.3607V76.4212C49.5703 76.2599 49.6344 76.1052 49.7484 75.9912C49.8625 75.8771 50.0171 75.813 50.1784 75.813H62.6696C62.8308 75.813 62.9855 75.8771 63.0996 75.9912C63.2136 76.1052 63.2777 76.2599 63.2777 76.4212C63.2777 76.5824 63.2136 76.7371 63.0996 76.8512C62.9855 76.9652 62.8308 77.0293 62.6696 77.0293H50.7865V95.3607C50.7865 95.522 50.7225 95.6766 50.6084 95.7907C50.4944 95.9047 50.3397 95.9688 50.1784 95.9688Z" fill="#212D55"/>
<path d="M53.5292 79.365H52.237C52.0757 79.365 51.9211 79.301 51.807 79.1869C51.693 79.0729 51.6289 78.9182 51.6289 78.7569C51.6289 78.5956 51.693 78.441 51.807 78.3269C51.9211 78.2129 52.0757 78.1488 52.237 78.1488H53.5292C53.6905 78.1488 53.8452 78.2129 53.9592 78.3269C54.0733 78.441 54.1374 78.5956 54.1374 78.7569C54.1374 78.9182 54.0733 79.0729 53.9592 79.1869C53.8452 79.301 53.6905 79.365 53.5292 79.365Z" fill="#212D55"/>
<path d="M57.0728 79.365H55.78C55.6187 79.365 55.464 79.301 55.35 79.1869C55.2359 79.0729 55.1719 78.9182 55.1719 78.7569C55.1719 78.5956 55.2359 78.441 55.35 78.3269C55.464 78.2129 55.6187 78.1488 55.78 78.1488H57.0728C57.2341 78.1488 57.3888 78.2129 57.5028 78.3269C57.6169 78.441 57.6809 78.5956 57.6809 78.7569C57.6809 78.9182 57.6169 79.0729 57.5028 79.1869C57.3888 79.301 57.2341 79.365 57.0728 79.365Z" fill="#212D55"/>
<path d="M60.6152 79.365H59.323C59.1617 79.365 59.007 79.301 58.893 79.1869C58.7789 79.0729 58.7148 78.9182 58.7148 78.7569C58.7148 78.5956 58.7789 78.441 58.893 78.3269C59.007 78.2129 59.1617 78.1488 59.323 78.1488H60.6152C60.7765 78.1488 60.9311 78.2129 61.0452 78.3269C61.1592 78.441 61.2233 78.5956 61.2233 78.7569C61.2233 78.9182 61.1592 79.0729 61.0452 79.1869C60.9311 79.301 60.7765 79.365 60.6152 79.365Z" fill="#212D55"/>
<path d="M53.5292 82.2188H52.237C52.0757 82.2188 51.9211 82.1548 51.807 82.0407C51.693 81.9267 51.6289 81.772 51.6289 81.6107C51.6289 81.4495 51.693 81.2948 51.807 81.1807C51.9211 81.0667 52.0757 81.0026 52.237 81.0026H53.5292C53.6905 81.0026 53.8452 81.0667 53.9592 81.1807C54.0733 81.2948 54.1374 81.4495 54.1374 81.6107C54.1374 81.772 54.0733 81.9267 53.9592 82.0407C53.8452 82.1548 53.6905 82.2188 53.5292 82.2188Z" fill="#212D55"/>
<path d="M57.0728 82.2188H55.78C55.6187 82.2188 55.464 82.1548 55.35 82.0407C55.2359 81.9267 55.1719 81.772 55.1719 81.6107C55.1719 81.4495 55.2359 81.2948 55.35 81.1807C55.464 81.0667 55.6187 81.0026 55.78 81.0026H57.0728C57.2341 81.0026 57.3888 81.0667 57.5028 81.1807C57.6169 81.2948 57.6809 81.4495 57.6809 81.6107C57.6809 81.772 57.6169 81.9267 57.5028 82.0407C57.3888 82.1548 57.2341 82.2188 57.0728 82.2188Z" fill="#212D55"/>
<path d="M60.6152 82.2188H59.323C59.1617 82.2188 59.007 82.1548 58.893 82.0407C58.7789 81.9267 58.7148 81.772 58.7148 81.6107C58.7148 81.4495 58.7789 81.2948 58.893 81.1807C59.007 81.0667 59.1617 81.0026 59.323 81.0026H60.6152C60.7765 81.0026 60.9311 81.0667 61.0452 81.1807C61.1592 81.2948 61.2233 81.4495 61.2233 81.6107C61.2233 81.772 61.1592 81.9267 61.0452 82.0407C60.9311 82.1548 60.7765 82.2188 60.6152 82.2188Z" fill="#212D55"/>
<path d="M53.5292 85.0721H52.237C52.0757 85.0721 51.9211 85.008 51.807 84.894C51.693 84.78 51.6289 84.6253 51.6289 84.464C51.6289 84.3027 51.693 84.1481 51.807 84.034C51.9211 83.92 52.0757 83.8559 52.237 83.8559H53.5292C53.6905 83.8559 53.8452 83.92 53.9592 84.034C54.0733 84.1481 54.1374 84.3027 54.1374 84.464C54.1374 84.6253 54.0733 84.78 53.9592 84.894C53.8452 85.008 53.6905 85.0721 53.5292 85.0721Z" fill="#212D55"/>
<path d="M57.0728 85.0721H55.78C55.6187 85.0721 55.464 85.008 55.35 84.894C55.2359 84.78 55.1719 84.6253 55.1719 84.464C55.1719 84.3027 55.2359 84.1481 55.35 84.034C55.464 83.92 55.6187 83.8559 55.78 83.8559H57.0728C57.2341 83.8559 57.3888 83.92 57.5028 84.034C57.6169 84.1481 57.6809 84.3027 57.6809 84.464C57.6809 84.6253 57.6169 84.78 57.5028 84.894C57.3888 85.008 57.2341 85.0721 57.0728 85.0721Z" fill="#212D55"/>
<path d="M60.6152 85.0721H59.323C59.1617 85.0721 59.007 85.008 58.893 84.894C58.7789 84.78 58.7148 84.6253 58.7148 84.464C58.7148 84.3027 58.7789 84.1481 58.893 84.034C59.007 83.92 59.1617 83.8559 59.323 83.8559H60.6152C60.7765 83.8559 60.9311 83.92 61.0452 84.034C61.1592 84.1481 61.2233 84.3027 61.2233 84.464C61.2233 84.6253 61.1592 84.78 61.0452 84.894C60.9311 85.008 60.7765 85.0721 60.6152 85.0721Z" fill="#212D55"/>
<path d="M53.5292 87.9259H52.237C52.0757 87.9259 51.9211 87.8619 51.807 87.7478C51.693 87.6338 51.6289 87.4791 51.6289 87.3178C51.6289 87.1565 51.693 87.0019 51.807 86.8878C51.9211 86.7738 52.0757 86.7097 52.237 86.7097H53.5292C53.6905 86.7097 53.8452 86.7738 53.9592 86.8878C54.0733 87.0019 54.1374 87.1565 54.1374 87.3178C54.1374 87.4791 54.0733 87.6338 53.9592 87.7478C53.8452 87.8619 53.6905 87.9259 53.5292 87.9259Z" fill="#212D55"/>
<path d="M57.0728 87.9259H55.78C55.6187 87.9259 55.464 87.8619 55.35 87.7478C55.2359 87.6338 55.1719 87.4791 55.1719 87.3178C55.1719 87.1565 55.2359 87.0019 55.35 86.8878C55.464 86.7738 55.6187 86.7097 55.78 86.7097H57.0728C57.2341 86.7097 57.3888 86.7738 57.5028 86.8878C57.6169 87.0019 57.6809 87.1565 57.6809 87.3178C57.6809 87.4791 57.6169 87.6338 57.5028 87.7478C57.3888 87.8619 57.2341 87.9259 57.0728 87.9259Z" fill="#212D55"/>
<path d="M60.6152 87.9259H59.323C59.1617 87.9259 59.007 87.8619 58.893 87.7478C58.7789 87.6338 58.7148 87.4791 58.7148 87.3178C58.7148 87.1565 58.7789 87.0019 58.893 86.8878C59.007 86.7738 59.1617 86.7097 59.323 86.7097H60.6152C60.7765 86.7097 60.9311 86.7738 61.0452 86.8878C61.1592 87.0019 61.2233 87.1565 61.2233 87.3178C61.2233 87.4791 61.1592 87.6338 61.0452 87.7478C60.9311 87.8619 60.7765 87.9259 60.6152 87.9259Z" fill="#212D55"/>
<path d="M53.5292 90.7798H52.237C52.0757 90.7798 51.9211 90.7157 51.807 90.6017C51.693 90.4877 51.6289 90.333 51.6289 90.1717C51.6289 90.0104 51.693 89.8558 51.807 89.7417C51.9211 89.6277 52.0757 89.5636 52.237 89.5636H53.5292C53.6905 89.5636 53.8452 89.6277 53.9592 89.7417C54.0733 89.8558 54.1374 90.0104 54.1374 90.1717C54.1374 90.333 54.0733 90.4877 53.9592 90.6017C53.8452 90.7157 53.6905 90.7798 53.5292 90.7798Z" fill="#212D55"/>
<path d="M57.0728 90.7798H55.78C55.6187 90.7798 55.464 90.7157 55.35 90.6017C55.2359 90.4877 55.1719 90.333 55.1719 90.1717C55.1719 90.0104 55.2359 89.8558 55.35 89.7417C55.464 89.6277 55.6187 89.5636 55.78 89.5636H57.0728C57.2341 89.5636 57.3888 89.6277 57.5028 89.7417C57.6169 89.8558 57.6809 90.0104 57.6809 90.1717C57.6809 90.333 57.6169 90.4877 57.5028 90.6017C57.3888 90.7157 57.2341 90.7798 57.0728 90.7798Z" fill="#212D55"/>
<path d="M60.6152 90.7798H59.323C59.1617 90.7798 59.007 90.7157 58.893 90.6017C58.7789 90.4877 58.7148 90.333 58.7148 90.1717C58.7148 90.0104 58.7789 89.8558 58.893 89.7417C59.007 89.6277 59.1617 89.5636 59.323 89.5636H60.6152C60.7765 89.5636 60.9311 89.6277 61.0452 89.7417C61.1592 89.8558 61.2233 90.0104 61.2233 90.1717C61.2233 90.333 61.1592 90.4877 61.0452 90.6017C60.9311 90.7157 60.7765 90.7798 60.6152 90.7798Z" fill="#212D55"/>
<path d="M53.5292 93.6336H52.237C52.0757 93.6336 51.9211 93.5696 51.807 93.4555C51.693 93.3415 51.6289 93.1868 51.6289 93.0255C51.6289 92.8642 51.693 92.7096 51.807 92.5955C51.9211 92.4815 52.0757 92.4174 52.237 92.4174H53.5292C53.6905 92.4174 53.8452 92.4815 53.9592 92.5955C54.0733 92.7096 54.1374 92.8642 54.1374 93.0255C54.1374 93.1868 54.0733 93.3415 53.9592 93.4555C53.8452 93.5696 53.6905 93.6336 53.5292 93.6336Z" fill="#212D55"/>
<path d="M57.0728 93.6336H55.78C55.6187 93.6336 55.464 93.5696 55.35 93.4555C55.2359 93.3415 55.1719 93.1868 55.1719 93.0255C55.1719 92.8642 55.2359 92.7096 55.35 92.5955C55.464 92.4815 55.6187 92.4174 55.78 92.4174H57.0728C57.2341 92.4174 57.3888 92.4815 57.5028 92.5955C57.6169 92.7096 57.6809 92.8642 57.6809 93.0255C57.6809 93.1868 57.6169 93.3415 57.5028 93.4555C57.3888 93.5696 57.2341 93.6336 57.0728 93.6336Z" fill="#212D55"/>
<path d="M60.6152 93.6336H59.323C59.1617 93.6336 59.007 93.5696 58.893 93.4555C58.7789 93.3415 58.7148 93.1868 58.7148 93.0255C58.7148 92.8642 58.7789 92.7096 58.893 92.5955C59.007 92.4815 59.1617 92.4174 59.323 92.4174H60.6152C60.7765 92.4174 60.9311 92.4815 61.0452 92.5955C61.1592 92.7096 61.2233 92.8642 61.2233 93.0255C61.2233 93.1868 61.1592 93.3415 61.0452 93.4555C60.9311 93.5696 60.7765 93.6336 60.6152 93.6336Z" fill="#212D55"/>
<path d="M67.6159 65.1195C67.4546 65.1195 67.3 65.0554 67.1859 64.9413C67.0719 64.8273 67.0078 64.6726 67.0078 64.5113V63.3638C67.0078 63.2026 67.0719 63.0479 67.1859 62.9338C67.3 62.8198 67.4546 62.7557 67.6159 62.7557C67.7772 62.7557 67.9319 62.8198 68.0459 62.9338C68.16 63.0479 68.224 63.2026 68.224 63.3638V64.5113C68.224 64.6726 68.16 64.8273 68.0459 64.9413C67.9319 65.0554 67.7772 65.1195 67.6159 65.1195Z" fill="#212D55"/>
<path d="M64.8425 65.8267C64.6812 65.8267 64.5265 65.7626 64.4125 65.6486C64.2984 65.5345 64.2344 65.3798 64.2344 65.2186V64.0711C64.2344 63.9098 64.2984 63.7551 64.4125 63.6411C64.5265 63.527 64.6812 63.463 64.8425 63.463C65.0038 63.463 65.1584 63.527 65.2725 63.6411C65.3865 63.7551 65.4506 63.9098 65.4506 64.0711V65.2186C65.4506 65.3798 65.3865 65.5345 65.2725 65.6486C65.1584 65.7626 65.0038 65.8267 64.8425 65.8267Z" fill="#212D55"/>
<path d="M67.6159 69.6937C67.4546 69.6937 67.3 69.6296 67.1859 69.5156C67.0719 69.4015 67.0078 69.2468 67.0078 69.0856V67.9381C67.0078 67.7768 67.0719 67.6221 67.1859 67.5081C67.3 67.394 67.4546 67.33 67.6159 67.33C67.7772 67.33 67.9319 67.394 68.0459 67.5081C68.16 67.6221 68.224 67.7768 68.224 67.9381V69.0856C68.224 69.2468 68.16 69.4015 68.0459 69.5156C67.9319 69.6296 67.7772 69.6937 67.6159 69.6937Z" fill="#212D55"/>
<path d="M64.8425 70.4009C64.6812 70.4009 64.5265 70.3368 64.4125 70.2228C64.2984 70.1087 64.2344 69.9541 64.2344 69.7928V68.6453C64.2344 68.484 64.2984 68.3293 64.4125 68.2153C64.5265 68.1012 64.6812 68.0372 64.8425 68.0372C65.0038 68.0372 65.1584 68.1012 65.2725 68.2153C65.3865 68.3293 65.4506 68.484 65.4506 68.6453V69.7928C65.4506 69.9541 65.3865 70.1087 65.2725 70.2228C65.1584 70.3368 65.0038 70.4009 64.8425 70.4009Z" fill="#212D55"/>
<path d="M67.6159 74.2703C67.4546 74.2703 67.3 74.2062 67.1859 74.0921C67.0719 73.9781 67.0078 73.8234 67.0078 73.6622V72.5122C67.0078 72.3509 67.0719 72.1963 67.1859 72.0822C67.3 71.9682 67.4546 71.9041 67.6159 71.9041C67.7772 71.9041 67.9319 71.9682 68.0459 72.0822C68.16 72.1963 68.224 72.3509 68.224 72.5122V73.6622C68.224 73.8234 68.16 73.9781 68.0459 74.0921C67.9319 74.2062 67.7772 74.2703 67.6159 74.2703Z" fill="#212D55"/>
<path d="M64.8425 74.975C64.6812 74.975 64.5265 74.911 64.4125 74.7969C64.2984 74.6829 64.2344 74.5282 64.2344 74.3669V73.2194C64.2344 73.0582 64.2984 72.9035 64.4125 72.7894C64.5265 72.6754 64.6812 72.6113 64.8425 72.6113C65.0038 72.6113 65.1584 72.6754 65.2725 72.7894C65.3865 72.9035 65.4506 73.0582 65.4506 73.2194V74.3669C65.4506 74.5282 65.3865 74.6829 65.2725 74.7969C65.1584 74.911 65.0038 74.975 64.8425 74.975Z" fill="#212D55"/>
<path d="M67.6159 78.8414C67.4546 78.8414 67.3 78.7774 67.1859 78.6633C67.0719 78.5493 67.0078 78.3946 67.0078 78.2333V77.0858C67.0078 76.9246 67.0719 76.7699 67.1859 76.6558C67.3 76.5418 67.4546 76.4777 67.6159 76.4777C67.7772 76.4777 67.9319 76.5418 68.0459 76.6558C68.16 76.7699 68.224 76.9246 68.224 77.0858V78.2333C68.224 78.3946 68.16 78.5493 68.0459 78.6633C67.9319 78.7774 67.7772 78.8414 67.6159 78.8414Z" fill="#212D55"/>
<path d="M64.8425 79.5486C64.6812 79.5486 64.5265 79.4846 64.4125 79.3705C64.2984 79.2565 64.2344 79.1018 64.2344 78.9405V77.793C64.2344 77.6318 64.2984 77.4771 64.4125 77.363C64.5265 77.249 64.6812 77.1849 64.8425 77.1849C65.0038 77.1849 65.1584 77.249 65.2725 77.363C65.3865 77.4771 65.4506 77.6318 65.4506 77.793V78.9405C65.4506 79.1018 65.3865 79.2565 65.2725 79.3705C65.1584 79.4846 65.0038 79.5486 64.8425 79.5486Z" fill="#212D55"/>
<path d="M67.6159 83.4156C67.4546 83.4156 67.3 83.3515 67.1859 83.2375C67.0719 83.1234 67.0078 82.9688 67.0078 82.8075V81.66C67.0078 81.4987 67.0719 81.344 67.1859 81.23C67.3 81.116 67.4546 81.0519 67.6159 81.0519C67.7772 81.0519 67.9319 81.116 68.0459 81.23C68.16 81.344 68.224 81.4987 68.224 81.66V82.8075C68.224 82.9688 68.16 83.1234 68.0459 83.2375C67.9319 83.3515 67.7772 83.4156 67.6159 83.4156Z" fill="#212D55"/>
<path d="M64.8425 84.1217C64.6812 84.1217 64.5265 84.0576 64.4125 83.9435C64.2984 83.8295 64.2344 83.6748 64.2344 83.5135V82.3673C64.2344 82.206 64.2984 82.0513 64.4125 81.9373C64.5265 81.8232 64.6812 81.7592 64.8425 81.7592C65.0038 81.7592 65.1584 81.8232 65.2725 81.9373C65.3865 82.0513 65.4506 82.206 65.4506 82.3673V83.5135C65.4506 83.6748 65.3865 83.8295 65.2725 83.9435C65.1584 84.0576 65.0038 84.1217 64.8425 84.1217Z" fill="#212D55"/>
<path d="M67.6159 87.9898C67.4546 87.9898 67.3 87.9257 67.1859 87.8117C67.0719 87.6977 67.0078 87.543 67.0078 87.3817V86.2342C67.0078 86.0729 67.0719 85.9183 67.1859 85.8042C67.3 85.6902 67.4546 85.6261 67.6159 85.6261C67.7772 85.6261 67.9319 85.6902 68.0459 85.8042C68.16 85.9183 68.224 86.0729 68.224 86.2342V87.3817C68.224 87.543 68.16 87.6977 68.0459 87.8117C67.9319 87.9257 67.7772 87.9898 67.6159 87.9898Z" fill="#212D55"/>
<path d="M64.8425 88.697C64.6812 88.697 64.5265 88.633 64.4125 88.5189C64.2984 88.4049 64.2344 88.2502 64.2344 88.0889V86.9414C64.2344 86.7801 64.2984 86.6255 64.4125 86.5114C64.5265 86.3974 64.6812 86.3333 64.8425 86.3333C65.0038 86.3333 65.1584 86.3974 65.2725 86.5114C65.3865 86.6255 65.4506 86.7801 65.4506 86.9414V88.0889C65.4506 88.2502 65.3865 88.4049 65.2725 88.5189C65.1584 88.633 65.0038 88.697 64.8425 88.697Z" fill="#212D55"/>
<path d="M67.6159 92.5634C67.4546 92.5634 67.3 92.4993 67.1859 92.3853C67.0719 92.2712 67.0078 92.1165 67.0078 91.9553V90.8108C67.0078 90.6495 67.0719 90.4949 67.1859 90.3808C67.3 90.2668 67.4546 90.2027 67.6159 90.2027C67.7772 90.2027 67.9319 90.2668 68.0459 90.3808C68.16 90.4949 68.224 90.6495 68.224 90.8108V91.9583C68.2232 92.1191 68.1588 92.273 68.0448 92.3863C67.9309 92.4997 67.7767 92.5634 67.6159 92.5634Z" fill="#212D55"/>
<path d="M64.8425 93.2713C64.6812 93.2713 64.5265 93.2072 64.4125 93.0931C64.2984 92.9791 64.2344 92.8244 64.2344 92.6631V91.515C64.2344 91.3538 64.2984 91.1991 64.4125 91.085C64.5265 90.971 64.6812 90.9069 64.8425 90.9069C65.0038 90.9069 65.1584 90.971 65.2725 91.085C65.3865 91.1991 65.4506 91.3538 65.4506 91.515V92.6625C65.4507 92.7424 65.435 92.8216 65.4045 92.8954C65.374 92.9693 65.3292 93.0364 65.2727 93.0929C65.2162 93.1495 65.1492 93.1943 65.0753 93.2249C65.0015 93.2555 64.9224 93.2713 64.8425 93.2713Z" fill="#212D55"/>
<path d="M71.8112 64.5405C71.65 64.5405 71.4953 64.4765 71.3812 64.3624C71.2672 64.2484 71.2031 64.0937 71.2031 63.9324V62.7861C71.2031 62.6249 71.2672 62.4702 71.3812 62.3561C71.4953 62.2421 71.65 62.178 71.8112 62.178C71.9725 62.178 72.1272 62.2421 72.2412 62.3561C72.3553 62.4702 72.4193 62.6249 72.4193 62.7861V63.9324C72.4193 64.0937 72.3553 64.2484 72.2412 64.3624C72.1272 64.4765 71.9725 64.5405 71.8112 64.5405Z" fill="#212D55"/>
<path d="M73.8659 65.3159C73.7046 65.3159 73.55 65.2518 73.4359 65.1378C73.3219 65.0237 73.2578 64.869 73.2578 64.7078V63.5609C73.2578 63.3996 73.3219 63.2449 73.4359 63.1309C73.55 63.0168 73.7046 62.9528 73.8659 62.9528C74.0272 62.9528 74.1819 63.0168 74.2959 63.1309C74.41 63.2449 74.474 63.3996 74.474 63.5609V64.7084C74.4739 64.8695 74.4097 65.0241 74.2957 65.138C74.1817 65.2519 74.0271 65.3159 73.8659 65.3159Z" fill="#212D55"/>
<path d="M75.9167 66.0906C75.7554 66.0906 75.6007 66.0265 75.4867 65.9125C75.3727 65.7984 75.3086 65.6438 75.3086 65.4825V64.3356C75.3086 64.1743 75.3727 64.0196 75.4867 63.9056C75.6007 63.7915 75.7554 63.7275 75.9167 63.7275C76.078 63.7275 76.2327 63.7915 76.3467 63.9056C76.4607 64.0196 76.5248 64.1743 76.5248 64.3356V65.4831C76.5247 65.6443 76.4605 65.7988 76.3465 65.9127C76.2325 66.0266 76.0779 66.0906 75.9167 66.0906Z" fill="#212D55"/>
<path d="M71.8112 69.1013C71.65 69.1013 71.4953 69.0373 71.3812 68.9232C71.2672 68.8092 71.2031 68.6545 71.2031 68.4932V67.3439C71.2031 67.1826 71.2672 67.0279 71.3812 66.9139C71.4953 66.7998 71.65 66.7358 71.8112 66.7358C71.9725 66.7358 72.1272 66.7998 72.2412 66.9139C72.3553 67.0279 72.4193 67.1826 72.4193 67.3439V68.4932C72.4193 68.6545 72.3553 68.8092 72.2412 68.9232C72.1272 69.0373 71.9725 69.1013 71.8112 69.1013Z" fill="#212D55"/>
<path d="M73.8659 69.8736C73.7046 69.8736 73.55 69.8095 73.4359 69.6955C73.3219 69.5815 73.2578 69.4268 73.2578 69.2655V68.1186C73.2578 67.9573 73.3219 67.8027 73.4359 67.6886C73.55 67.5746 73.7046 67.5105 73.8659 67.5105C74.0272 67.5105 74.1819 67.5746 74.2959 67.6886C74.41 67.8027 74.474 67.9573 74.474 68.1186V69.2655C74.474 69.4268 74.41 69.5815 74.2959 69.6955C74.1819 69.8095 74.0272 69.8736 73.8659 69.8736Z" fill="#212D55"/>
<path d="M75.9167 70.6484C75.7554 70.6484 75.6007 70.5843 75.4867 70.4703C75.3727 70.3562 75.3086 70.2016 75.3086 70.0403V68.8934C75.3086 68.7321 75.3727 68.5774 75.4867 68.4634C75.6007 68.3493 75.7554 68.2853 75.9167 68.2853C76.078 68.2853 76.2327 68.3493 76.3467 68.4634C76.4607 68.5774 76.5248 68.7321 76.5248 68.8934V70.0409C76.5247 70.2021 76.4605 70.3566 76.3465 70.4705C76.2325 70.5844 76.0779 70.6484 75.9167 70.6484Z" fill="#212D55"/>
<path d="M71.8112 73.6573C71.65 73.6573 71.4953 73.5932 71.3812 73.4792C71.2672 73.3651 71.2031 73.2105 71.2031 73.0492V71.8986C71.2031 71.7374 71.2672 71.5827 71.3812 71.4686C71.4953 71.3546 71.65 71.2905 71.8112 71.2905C71.9725 71.2905 72.1272 71.3546 72.2412 71.4686C72.3553 71.5827 72.4193 71.7374 72.4193 71.8986V73.0461C72.4197 73.1262 72.4043 73.2056 72.3739 73.2798C72.3436 73.3539 72.2988 73.4213 72.2423 73.4781C72.1858 73.5349 72.1186 73.58 72.0447 73.6107C71.9707 73.6415 71.8914 73.6573 71.8112 73.6573Z" fill="#212D55"/>
<path d="M73.8659 74.4321C73.7046 74.4321 73.55 74.368 73.4359 74.254C73.3219 74.1399 73.2578 73.9852 73.2578 73.824V72.6765C73.2578 72.5152 73.3219 72.3605 73.4359 72.2465C73.55 72.1324 73.7046 72.0684 73.8659 72.0684C74.0272 72.0684 74.1819 72.1324 74.2959 72.2465C74.41 72.3605 74.474 72.5152 74.474 72.6765V73.824C74.474 73.9852 74.41 74.1399 74.2959 74.254C74.1819 74.368 74.0272 74.4321 73.8659 74.4321Z" fill="#212D55"/>
<path d="M75.9167 75.2061C75.7554 75.2061 75.6007 75.1421 75.4867 75.028C75.3727 74.914 75.3086 74.7593 75.3086 74.598V73.4511C75.3086 73.2898 75.3727 73.1352 75.4867 73.0211C75.6007 72.9071 75.7554 72.843 75.9167 72.843C76.078 72.843 76.2327 72.9071 76.3467 73.0211C76.4607 73.1352 76.5248 73.2898 76.5248 73.4511V74.5986C76.5247 74.7598 76.4605 74.9143 76.3465 75.0282C76.2325 75.1421 76.0779 75.2061 75.9167 75.2061Z" fill="#212D55"/>
<path d="M71.8112 78.2151C71.65 78.2151 71.4953 78.151 71.3812 78.037C71.2672 77.9229 71.2031 77.7683 71.2031 77.607V76.4595C71.2031 76.2982 71.2672 76.1435 71.3812 76.0295C71.4953 75.9154 71.65 75.8514 71.8112 75.8514C71.9725 75.8514 72.1272 75.9154 72.2412 76.0295C72.3553 76.1435 72.4193 76.2982 72.4193 76.4595V77.607C72.4193 77.7683 72.3553 77.9229 72.2412 78.037C72.1272 78.151 71.9725 78.2151 71.8112 78.2151Z" fill="#212D55"/>
<path d="M73.8659 78.9898C73.7046 78.9898 73.55 78.9258 73.4359 78.8117C73.3219 78.6977 73.2578 78.543 73.2578 78.3817V77.2342C73.2578 77.0729 73.3219 76.9183 73.4359 76.8042C73.55 76.6902 73.7046 76.6261 73.8659 76.6261C74.0272 76.6261 74.1819 76.6902 74.2959 76.8042C74.41 76.9183 74.474 77.0729 74.474 77.2342V78.3817C74.474 78.543 74.41 78.6977 74.2959 78.8117C74.1819 78.9258 74.0272 78.9898 73.8659 78.9898Z" fill="#212D55"/>
<path d="M75.9167 79.7645C75.7554 79.7645 75.6007 79.7005 75.4867 79.5864C75.3727 79.4724 75.3086 79.3177 75.3086 79.1564V78.0089C75.3086 77.8476 75.3727 77.693 75.4867 77.5789C75.6007 77.4649 75.7554 77.4008 75.9167 77.4008C76.078 77.4008 76.2327 77.4649 76.3467 77.5789C76.4607 77.693 76.5248 77.8476 76.5248 78.0089V79.1564C76.5248 79.3177 76.4607 79.4724 76.3467 79.5864C76.2327 79.7005 76.078 79.7645 75.9167 79.7645Z" fill="#212D55"/>
<path d="M71.8112 82.7728C71.65 82.7728 71.4953 82.7087 71.3812 82.5947C71.2672 82.4806 71.2031 82.326 71.2031 82.1647V81.0202C71.2031 80.8589 71.2672 80.7043 71.3812 80.5902C71.4953 80.4762 71.65 80.4121 71.8112 80.4121C71.9725 80.4121 72.1272 80.4762 72.2412 80.5902C72.3553 80.7043 72.4193 80.8589 72.4193 81.0202V82.1677C72.4185 82.3285 72.3541 82.4824 72.2402 82.5957C72.1262 82.7091 71.972 82.7728 71.8112 82.7728Z" fill="#212D55"/>
<path d="M73.8659 83.5475C73.7046 83.5475 73.55 83.4835 73.4359 83.3694C73.3219 83.2554 73.2578 83.1007 73.2578 82.9394V81.7919C73.2578 81.6307 73.3219 81.476 73.4359 81.3619C73.55 81.2479 73.7046 81.1838 73.8659 81.1838C74.0272 81.1838 74.1819 81.2479 74.2959 81.3619C74.41 81.476 74.474 81.6307 74.474 81.7919V82.9394C74.474 83.1007 74.41 83.2554 74.2959 83.3694C74.1819 83.4835 74.0272 83.5475 73.8659 83.5475Z" fill="#212D55"/>
<path d="M75.9167 84.3223C75.7554 84.3223 75.6007 84.2582 75.4867 84.1442C75.3727 84.0301 75.3086 83.8754 75.3086 83.7142V82.5667C75.3086 82.4054 75.3727 82.2507 75.4867 82.1367C75.6007 82.0226 75.7554 81.9586 75.9167 81.9586C76.078 81.9586 76.2327 82.0226 76.3467 82.1367C76.4607 82.2507 76.5248 82.4054 76.5248 82.5667V83.7142C76.5248 83.8754 76.4607 84.0301 76.3467 84.1442C76.2327 84.2582 76.078 84.3223 75.9167 84.3223Z" fill="#212D55"/>
<path d="M71.8112 87.3306C71.65 87.3306 71.4953 87.2666 71.3812 87.1525C71.2672 87.0385 71.2031 86.8838 71.2031 86.7225V85.575C71.2031 85.4137 71.2672 85.2591 71.3812 85.145C71.4953 85.031 71.65 84.9669 71.8112 84.9669C71.9725 84.9669 72.1272 85.031 72.2412 85.145C72.3553 85.2591 72.4193 85.4137 72.4193 85.575V86.7225C72.4193 86.8838 72.3553 87.0385 72.2412 87.1525C72.1272 87.2666 71.9725 87.3306 71.8112 87.3306Z" fill="#212D55"/>
<path d="M73.8659 88.1054C73.7046 88.1054 73.55 88.0413 73.4359 87.9272C73.3219 87.8132 73.2578 87.6585 73.2578 87.4972V86.3497C73.2578 86.1885 73.3219 86.0338 73.4359 85.9197C73.55 85.8057 73.7046 85.7416 73.8659 85.7416C74.0272 85.7416 74.1819 85.8057 74.2959 85.9197C74.41 86.0338 74.474 86.1885 74.474 86.3497V87.4972C74.474 87.6585 74.41 87.8132 74.2959 87.9272C74.1819 88.0413 74.0272 88.1054 73.8659 88.1054Z" fill="#212D55"/>
<path d="M75.9167 88.8801C75.7554 88.8801 75.6007 88.816 75.4867 88.702C75.3727 88.5879 75.3086 88.4332 75.3086 88.272V87.1245C75.3086 86.9632 75.3727 86.8085 75.4867 86.6945C75.6007 86.5804 75.7554 86.5164 75.9167 86.5164C76.078 86.5164 76.2327 86.5804 76.3467 86.6945C76.4607 86.8085 76.5248 86.9632 76.5248 87.1245V88.272C76.5248 88.4332 76.4607 88.5879 76.3467 88.702C76.2327 88.816 76.078 88.8801 75.9167 88.8801Z" fill="#212D55"/>
<path d="M71.8112 91.8884C71.65 91.8884 71.4953 91.8243 71.3812 91.7103C71.2672 91.5962 71.2031 91.4415 71.2031 91.2803V90.1328C71.2031 89.9715 71.2672 89.8168 71.3812 89.7028C71.4953 89.5887 71.65 89.5247 71.8112 89.5247C71.9725 89.5247 72.1272 89.5887 72.2412 89.7028C72.3553 89.8168 72.4193 89.9715 72.4193 90.1328V91.2803C72.4193 91.4415 72.3553 91.5962 72.2412 91.7103C72.1272 91.8243 71.9725 91.8884 71.8112 91.8884Z" fill="#212D55"/>
<path d="M73.8659 92.6631C73.7046 92.6631 73.55 92.599 73.4359 92.485C73.3219 92.3709 73.2578 92.2163 73.2578 92.055V90.9075C73.2578 90.7462 73.3219 90.5915 73.4359 90.4775C73.55 90.3634 73.7046 90.2994 73.8659 90.2994C74.0272 90.2994 74.1819 90.3634 74.2959 90.4775C74.41 90.5915 74.474 90.7462 74.474 90.9075V92.055C74.474 92.2163 74.41 92.3709 74.2959 92.485C74.1819 92.599 74.0272 92.6631 73.8659 92.6631Z" fill="#212D55"/>
<path d="M75.9167 93.4378C75.7554 93.4378 75.6007 93.3737 75.4867 93.2597C75.3727 93.1457 75.3086 92.991 75.3086 92.8297V91.6822C75.3086 91.5209 75.3727 91.3662 75.4867 91.2522C75.6007 91.1382 75.7554 91.0741 75.9167 91.0741C76.078 91.0741 76.2327 91.1382 76.3467 91.2522C76.4607 91.3662 76.5248 91.5209 76.5248 91.6822V92.8297C76.5248 92.991 76.4607 93.1457 76.3467 93.2597C76.2327 93.3737 76.078 93.4378 75.9167 93.4378Z" fill="#212D55"/>
<path d="M83.6081 77.4629C83.4468 77.4629 83.2922 77.3988 83.1781 77.2847C83.0641 77.1707 83 77.016 83 76.8547V76.2399C83 76.0787 83.0641 75.924 83.1781 75.8099C83.2922 75.6959 83.4468 75.6318 83.6081 75.6318C83.7694 75.6318 83.9241 75.6959 84.0381 75.8099C84.1521 75.924 84.2162 76.0787 84.2162 76.2399V76.8547C84.2162 77.016 84.1521 77.1707 84.0381 77.2847C83.9241 77.3988 83.7694 77.4629 83.6081 77.4629Z" fill="#212D55"/>
<path d="M85.6589 78.7508C85.4976 78.7508 85.3429 78.6867 85.2289 78.5727C85.1148 78.4587 85.0508 78.304 85.0508 78.1427V77.5279C85.0508 77.3666 85.1148 77.212 85.2289 77.0979C85.3429 76.9839 85.4976 76.9198 85.6589 76.9198C85.8202 76.9198 85.9748 76.9839 86.0889 77.0979C86.2029 77.212 86.267 77.3666 86.267 77.5279V78.1427C86.267 78.304 86.2029 78.4587 86.0889 78.5727C85.9748 78.6867 85.8202 78.7508 85.6589 78.7508Z" fill="#212D55"/>
<path d="M83.6081 80.4657C83.4468 80.4657 83.2922 80.4017 83.1781 80.2876C83.0641 80.1736 83 80.0189 83 79.8576V79.2434C83 79.0821 83.0641 78.9275 83.1781 78.8134C83.2922 78.6994 83.4468 78.6353 83.6081 78.6353C83.7694 78.6353 83.9241 78.6994 84.0381 78.8134C84.1521 78.9275 84.2162 79.0821 84.2162 79.2434V79.8582C84.2161 80.0194 84.1519 80.1739 84.0379 80.2878C83.9239 80.4017 83.7693 80.4657 83.6081 80.4657Z" fill="#212D55"/>
<path d="M85.6589 81.7536C85.4976 81.7536 85.3429 81.6896 85.2289 81.5755C85.1148 81.4615 85.0508 81.3068 85.0508 81.1455V80.5338C85.0508 80.3725 85.1148 80.2178 85.2289 80.1038C85.3429 79.9897 85.4976 79.9257 85.6589 79.9257C85.8202 79.9257 85.9748 79.9897 86.0889 80.1038C86.2029 80.2178 86.267 80.3725 86.267 80.5338V81.1486C86.2662 81.3093 86.2018 81.4632 86.0878 81.5766C85.9739 81.69 85.8196 81.7536 85.6589 81.7536Z" fill="#212D55"/>
<path d="M83.6081 83.4691C83.4468 83.4691 83.2922 83.4051 83.1781 83.291C83.0641 83.177 83 83.0223 83 82.861V82.2462C83 82.0849 83.0641 81.9303 83.1781 81.8162C83.2922 81.7022 83.4468 81.6381 83.6081 81.6381C83.7694 81.6381 83.9241 81.7022 84.0381 81.8162C84.1521 81.9303 84.2162 82.0849 84.2162 82.2462V82.861C84.2162 83.0223 84.1521 83.177 84.0381 83.291C83.9241 83.4051 83.7694 83.4691 83.6081 83.4691Z" fill="#212D55"/>
<path d="M85.6589 84.7571C85.4976 84.7571 85.3429 84.693 85.2289 84.579C85.1148 84.4649 85.0508 84.3103 85.0508 84.149V83.5342C85.0508 83.3729 85.1148 83.2182 85.2289 83.1042C85.3429 82.9902 85.4976 82.9261 85.6589 82.9261C85.8202 82.9261 85.9748 82.9902 86.0889 83.1042C86.2029 83.2182 86.267 83.3729 86.267 83.5342V84.149C86.267 84.3103 86.2029 84.4649 86.0889 84.579C85.9748 84.693 85.8202 84.7571 85.6589 84.7571Z" fill="#212D55"/>
<path d="M83.6081 86.4725C83.4468 86.4725 83.2922 86.4085 83.1781 86.2944C83.0641 86.1804 83 86.0257 83 85.8644V85.2496C83 85.0884 83.0641 84.9337 83.1781 84.8197C83.2922 84.7056 83.4468 84.6415 83.6081 84.6415C83.7694 84.6415 83.9241 84.7056 84.0381 84.8197C84.1521 84.9337 84.2162 85.0884 84.2162 85.2496V85.8644C84.2162 86.0257 84.1521 86.1804 84.0381 86.2944C83.9241 86.4085 83.7694 86.4725 83.6081 86.4725Z" fill="#212D55"/>
<path d="M85.6589 87.7599C85.4976 87.7599 85.3429 87.6958 85.2289 87.5818C85.1148 87.4678 85.0508 87.3131 85.0508 87.1518V86.537C85.0508 86.3757 85.1148 86.221 85.2289 86.107C85.3429 85.993 85.4976 85.9289 85.6589 85.9289C85.8202 85.9289 85.9748 85.993 86.0889 86.107C86.2029 86.221 86.267 86.3757 86.267 86.537V87.1518C86.267 87.3131 86.2029 87.4678 86.0889 87.5818C85.9748 87.6958 85.8202 87.7599 85.6589 87.7599Z" fill="#212D55"/>
<path d="M83.6081 89.473C83.4468 89.473 83.2922 89.4089 83.1781 89.2949C83.0641 89.1808 83 89.0262 83 88.8649V88.2525C83 88.0912 83.0641 87.9366 83.1781 87.8225C83.2922 87.7085 83.4468 87.6444 83.6081 87.6444C83.7694 87.6444 83.9241 87.7085 84.0381 87.8225C84.1521 87.9366 84.2162 88.0912 84.2162 88.2525V88.8649C84.2162 89.0262 84.1521 89.1808 84.0381 89.2949C83.9241 89.4089 83.7694 89.473 83.6081 89.473Z" fill="#212D55"/>
<path d="M85.6589 90.7634C85.4976 90.7634 85.3429 90.6993 85.2289 90.5853C85.1148 90.4712 85.0508 90.3166 85.0508 90.1553V89.5405C85.0508 89.3792 85.1148 89.2245 85.2289 89.1105C85.3429 88.9964 85.4976 88.9324 85.6589 88.9324C85.8202 88.9324 85.9748 88.9964 86.0889 89.1105C86.2029 89.2245 86.267 89.3792 86.267 89.5405V90.1553C86.267 90.3166 86.2029 90.4712 86.0889 90.5853C85.9748 90.6993 85.8202 90.7634 85.6589 90.7634Z" fill="#212D55"/>
<path d="M83.6081 92.4788C83.4468 92.4788 83.2922 92.4148 83.1781 92.3007C83.0641 92.1867 83 92.032 83 91.8707V91.2559C83 91.0947 83.0641 90.94 83.1781 90.8259C83.2922 90.7119 83.4468 90.6478 83.6081 90.6478C83.7694 90.6478 83.9241 90.7119 84.0381 90.8259C84.1521 90.94 84.2162 91.0947 84.2162 91.2559V91.8707C84.2162 92.032 84.1521 92.1867 84.0381 92.3007C83.9241 92.4148 83.7694 92.4788 83.6081 92.4788Z" fill="#212D55"/>
<path d="M85.6589 93.7662C85.4976 93.7662 85.3429 93.7022 85.2289 93.5881C85.1148 93.4741 85.0508 93.3194 85.0508 93.1581V92.5433C85.0508 92.3821 85.1148 92.2274 85.2289 92.1134C85.3429 91.9993 85.4976 91.9352 85.6589 91.9352C85.8202 91.9352 85.9748 91.9993 86.0889 92.1134C86.2029 92.2274 86.267 92.3821 86.267 92.5433V93.1581C86.267 93.3194 86.2029 93.4741 86.0889 93.5881C85.9748 93.7022 85.8202 93.7662 85.6589 93.7662Z" fill="#212D55"/>
<path d="M89.7095 95.959H48.3581C48.1968 95.959 48.0422 95.8949 47.9281 95.7809C47.8141 95.6669 47.75 95.5122 47.75 95.3509C47.75 95.1896 47.8141 95.035 47.9281 94.9209C48.0422 94.8069 48.1968 94.7428 48.3581 94.7428H89.7095C89.8707 94.7428 90.0254 94.8069 90.1395 94.9209C90.2535 95.035 90.3176 95.1896 90.3176 95.3509C90.3176 95.5122 90.2535 95.6669 90.1395 95.7809C90.0254 95.8949 89.8707 95.959 89.7095 95.959Z" fill="#212D55"/>
<path d="M140.436 49.336C142.783 49.336 144.689 50.106 146.156 51.646C147.652 53.1713 148.4 55.056 148.4 57.3C148.4 59.544 147.652 61.436 146.156 62.976C144.675 64.5013 142.768 65.264 140.436 65.264C139.028 65.264 137.723 64.9193 136.52 64.23C135.317 63.5407 134.401 62.6167 133.77 61.458L135.134 60.688C135.618 61.6267 136.337 62.3747 137.29 62.932C138.243 63.4893 139.292 63.768 140.436 63.768C142.196 63.768 143.663 63.2253 144.836 62.14C145.995 61.0693 146.655 59.698 146.816 58.026H138.39V56.574H146.816C146.655 54.902 145.995 53.5307 144.836 52.46C143.663 51.3747 142.196 50.832 140.436 50.832C139.292 50.832 138.243 51.1107 137.29 51.668C136.337 52.2253 135.618 52.9733 135.134 53.912L133.77 53.12C134.43 51.9613 135.354 51.0447 136.542 50.37C137.73 49.6807 139.028 49.336 140.436 49.336ZM149.505 54H158.745V55.408H154.851V65H153.399V55.408H149.505V54ZM169.545 56.156V54H170.997V65H169.545V62.844C168.533 64.4573 167.052 65.264 165.101 65.264C163.532 65.264 162.19 64.7067 161.075 63.592C159.975 62.4773 159.425 61.1133 159.425 59.5C159.425 57.8867 159.975 56.5227 161.075 55.408C162.19 54.2933 163.532 53.736 165.101 53.736C167.052 53.736 168.533 54.5427 169.545 56.156ZM162.131 62.602C162.967 63.438 163.994 63.856 165.211 63.856C166.428 63.856 167.455 63.438 168.291 62.602C169.127 61.7367 169.545 60.7027 169.545 59.5C169.545 58.2827 169.127 57.256 168.291 56.42C167.455 55.5693 166.428 55.144 165.211 55.144C163.994 55.144 162.967 55.5693 162.131 56.42C161.295 57.256 160.877 58.2827 160.877 59.5C160.877 60.7027 161.295 61.7367 162.131 62.602ZM181.991 59.28L186.919 65H185.159L180.671 59.698V65H179.219V59.698L174.731 65H172.971L177.899 59.28L173.191 54H174.951L179.219 58.884V54H180.671V58.884L184.939 54H186.699L181.991 59.28ZM196.683 58.796V54H198.135V65H196.683V60.204H190.347V65H188.895V54H190.347V58.796H196.683ZM210.424 63.614C209.295 64.714 207.931 65.264 206.332 65.264C204.704 65.264 203.333 64.714 202.218 63.614C201.103 62.4993 200.546 61.128 200.546 59.5C200.546 57.872 201.103 56.508 202.218 55.408C203.333 54.2933 204.704 53.736 206.332 53.736C207.945 53.736 209.309 54.2933 210.424 55.408C211.553 56.508 212.118 57.872 212.118 59.5C212.118 61.1133 211.553 62.4847 210.424 63.614ZM203.252 62.602C204.088 63.438 205.115 63.856 206.332 63.856C207.549 63.856 208.576 63.438 209.412 62.602C210.248 61.7367 210.666 60.7027 210.666 59.5C210.666 58.2827 210.248 57.256 209.412 56.42C208.576 55.5693 207.549 55.144 206.332 55.144C205.115 55.144 204.088 55.5693 203.252 56.42C202.416 57.256 201.998 58.2827 201.998 59.5C201.998 60.7027 202.416 61.7367 203.252 62.602ZM219.674 65.264C218.016 65.264 216.638 64.714 215.538 63.614C214.438 62.4847 213.888 61.1133 213.888 59.5C213.888 57.872 214.438 56.508 215.538 55.408C216.638 54.2933 218.016 53.736 219.674 53.736C220.759 53.736 221.734 54 222.6 54.528C223.465 55.0413 224.096 55.738 224.492 56.618L223.304 57.3C223.01 56.64 222.534 56.1193 221.874 55.738C221.228 55.342 220.495 55.144 219.674 55.144C218.456 55.144 217.43 55.5693 216.594 56.42C215.758 57.256 215.34 58.2827 215.34 59.5C215.34 60.7027 215.758 61.7367 216.594 62.602C217.43 63.438 218.456 63.856 219.674 63.856C220.48 63.856 221.206 63.6653 221.852 63.284C222.512 62.9027 223.025 62.3747 223.392 61.7L224.602 62.404C224.147 63.284 223.48 63.9807 222.6 64.494C221.72 65.0073 220.744 65.264 219.674 65.264ZM225.152 54H234.392V55.408H230.498V65H229.046V55.408H225.152V54ZM237.613 58.18H240.627C241.639 58.18 242.504 58.5027 243.223 59.148C243.942 59.7787 244.301 60.5927 244.301 61.59C244.301 62.602 243.942 63.4233 243.223 64.054C242.534 64.6847 241.668 65 240.627 65H236.161V54H237.613V58.18ZM237.613 63.592H240.627C241.258 63.592 241.786 63.4087 242.211 63.042C242.636 62.6607 242.849 62.1767 242.849 61.59C242.849 61.0033 242.636 60.5267 242.211 60.16C241.786 59.7787 241.258 59.588 240.627 59.588H237.613V63.592Z" fill="#212D55"/>
<path d="M133.286 93.03L137.334 91.6H139.534V107H137.004V94.306L133.902 95.186L133.286 93.03ZM152.56 105.108C151.504 106.56 150.022 107.286 148.116 107.286C146.224 107.286 144.735 106.56 143.65 105.108C142.594 103.656 142.066 101.72 142.066 99.3C142.066 96.88 142.594 94.944 143.65 93.492C144.735 92.04 146.224 91.314 148.116 91.314C150.022 91.314 151.504 92.04 152.56 93.492C153.63 94.9293 154.166 96.8653 154.166 99.3C154.166 101.735 153.63 103.671 152.56 105.108ZM148.116 104.822C149.26 104.822 150.132 104.345 150.734 103.392C151.335 102.439 151.636 101.075 151.636 99.3C151.636 97.5253 151.335 96.1613 150.734 95.208C150.132 94.2547 149.26 93.778 148.116 93.778C146.986 93.778 146.114 94.2547 145.498 95.208C144.896 96.1613 144.596 97.5253 144.596 99.3C144.596 101.075 144.896 102.439 145.498 103.392C146.114 104.345 146.986 104.822 148.116 104.822Z" fill="#212D55"/>
<defs>
<filter id="filter0_d_360_322" x="0" y="0" width="292" height="169" filterUnits="userSpaceOnUse" color-interpolation-filters="sRGB">
<feFlood flood-opacity="0" result="BackgroundImageFix"/>
<feColorMatrix in="SourceAlpha" type="matrix" values="0 0 0 0 0 0 0 0 0 0 0 0 0 0 0 0 0 0 127 0" result="hardAlpha"/>
<feOffset dy="5"/>
<feGaussianBlur stdDeviation="7.5"/>
<feComposite in2="hardAlpha" operator="out"/>
<feColorMatrix type="matrix" values="0 0 0 0 0.129412 0 0 0 0 0.176471 0 0 0 0 0.333333 0 0 0 0.2 0"/>
<feBlend mode="normal" in2="BackgroundImageFix" result="effect1_dropShadow_360_322"/>
<feBlend mode="normal" in="SourceGraphic" in2="effect1_dropShadow_360_322" result="shape"/>
</filter>
<filter id="filter1_d_360_322" x="10" y="30" width="120" height="109" filterUnits="userSpaceOnUse" color-interpolation-filters="sRGB">
<feFlood flood-opacity="0" result="BackgroundImageFix"/>
<feColorMatrix in="SourceAlpha" type="matrix" values="0 0 0 0 0 0 0 0 0 0 0 0 0 0 0 0 0 0 127 0" result="hardAlpha"/>
<feOffset dy="5"/>
<feGaussianBlur stdDeviation="10"/>
<feComposite in2="hardAlpha" operator="out"/>
<feColorMatrix type="matrix" values="0 0 0 0 0.129412 0 0 0 0 0.176471 0 0 0 0 0.333333 0 0 0 0.2 0"/>
<feBlend mode="normal" in2="BackgroundImageFix" result="effect1_dropShadow_360_322"/>
<feBlend mode="normal" in="SourceGraphic" in2="effect1_dropShadow_360_322" result="shape"/>
</filter>
</defs>
</svg>
