<svg width="292" height="169" viewBox="0 0 292 169" fill="none" xmlns="http://www.w3.org/2000/svg">
<g filter="url(#filter0_d_360_4774)">
<rect x="15" y="10" width="262" height="139" rx="10" fill="#F9FCFD"/>
</g>
<path d="M153.76 50.6V66H152.22V52.052H144.3V66H142.76V50.6H153.76ZM166.523 55H167.975V66H166.523V63.844C165.511 65.4573 164.03 66.264 162.079 66.264C160.51 66.264 159.168 65.7067 158.053 64.592C156.953 63.4773 156.403 62.1133 156.403 60.5C156.403 58.8867 156.953 57.5227 158.053 56.408C159.168 55.2933 160.51 54.736 162.079 54.736C164.03 54.736 165.511 55.5427 166.523 57.156V55ZM159.109 63.602C159.945 64.438 160.972 64.856 162.189 64.856C163.407 64.856 164.433 64.438 165.269 63.602C166.105 62.7513 166.523 61.7173 166.523 60.5C166.523 59.2827 166.105 58.256 165.269 57.42C164.433 56.5693 163.407 56.144 162.189 56.144C160.972 56.144 159.945 56.5693 159.109 57.42C158.273 58.256 157.855 59.2827 157.855 60.5C157.855 61.7173 158.273 62.7513 159.109 63.602ZM176.946 54.736C178.515 54.736 179.85 55.2933 180.95 56.408C182.064 57.5227 182.622 58.8867 182.622 60.5C182.622 62.1133 182.064 63.4773 180.95 64.592C179.85 65.7067 178.515 66.264 176.946 66.264C174.995 66.264 173.514 65.4573 172.502 63.844V70.4H171.05V55H172.502V57.156C173.514 55.5427 174.995 54.736 176.946 54.736ZM173.756 63.602C174.592 64.438 175.618 64.856 176.836 64.856C178.053 64.856 179.08 64.438 179.916 63.602C180.752 62.7513 181.17 61.7173 181.17 60.5C181.17 59.2827 180.752 58.256 179.916 57.42C179.08 56.5693 178.053 56.144 176.836 56.144C175.618 56.144 174.592 56.5693 173.756 57.42C172.92 58.256 172.502 59.2827 172.502 60.5C172.502 61.7173 172.92 62.7513 173.756 63.602ZM193.924 66H191.988L186.488 60.698V66H185.036V55H186.488V59.862L191.724 55H193.704L188.028 60.28L193.924 66ZM204.029 64.614C202.915 65.714 201.551 66.264 199.937 66.264C198.324 66.264 196.953 65.714 195.823 64.614C194.709 63.4993 194.151 62.128 194.151 60.5C194.151 58.872 194.709 57.508 195.823 56.408C196.953 55.2933 198.324 54.736 199.937 54.736C201.551 54.736 202.915 55.2933 204.029 56.408C205.159 57.508 205.723 58.872 205.723 60.5C205.723 62.128 205.159 63.4993 204.029 64.614ZM196.857 63.602C197.693 64.438 198.72 64.856 199.937 64.856C201.155 64.856 202.181 64.438 203.017 63.602C203.853 62.7513 204.271 61.7173 204.271 60.5C204.271 59.2827 203.853 58.256 203.017 57.42C202.181 56.5693 201.155 56.144 199.937 56.144C198.72 56.144 197.693 56.5693 196.857 57.42C196.021 58.256 195.603 59.2827 195.603 60.5C195.603 61.7173 196.021 62.7513 196.857 63.602ZM215.149 60.346C216.352 60.786 216.953 61.644 216.953 62.92C216.953 63.8147 216.653 64.5553 216.051 65.142C215.465 65.714 214.614 66 213.499 66H208.153V55H213.059C214.13 55 214.959 55.2787 215.545 55.836C216.132 56.3787 216.425 57.0827 216.425 57.948C216.425 59.048 216 59.8473 215.149 60.346ZM213.059 56.408H209.605V59.752H213.059C214.335 59.752 214.973 59.18 214.973 58.036C214.973 57.5227 214.805 57.1267 214.467 56.848C214.145 56.5547 213.675 56.408 213.059 56.408ZM213.499 64.592C214.145 64.592 214.636 64.438 214.973 64.13C215.325 63.822 215.501 63.3893 215.501 62.832C215.501 62.3187 215.325 61.9153 214.973 61.622C214.636 61.314 214.145 61.16 213.499 61.16H209.605V64.592H213.499ZM228.041 66H226.105L220.605 60.698V66H219.153V55H220.605V59.862L225.841 55H227.821L222.145 60.28L228.041 66ZM238.389 55H239.841V66H238.389V63.844C237.377 65.4573 235.895 66.264 233.945 66.264C232.375 66.264 231.033 65.7067 229.919 64.592C228.819 63.4773 228.269 62.1133 228.269 60.5C228.269 58.8867 228.819 57.5227 229.919 56.408C231.033 55.2933 232.375 54.736 233.945 54.736C235.895 54.736 237.377 55.5427 238.389 57.156V55ZM230.975 63.602C231.811 64.438 232.837 64.856 234.055 64.856C235.272 64.856 236.299 64.438 237.135 63.602C237.971 62.7513 238.389 61.7173 238.389 60.5C238.389 59.2827 237.971 58.256 237.135 57.42C236.299 56.5693 235.272 56.144 234.055 56.144C232.837 56.144 231.811 56.5693 230.975 57.42C230.139 58.256 229.721 59.2827 229.721 60.5C229.721 61.7173 230.139 62.7513 230.975 63.602Z" fill="#212D55"/>
<path d="M142.54 91.6H151.23V94.02H145.07V107H142.54V91.6ZM160.071 105.614C158.956 106.729 157.585 107.286 155.957 107.286C154.329 107.286 152.958 106.729 151.843 105.614C150.714 104.485 150.149 103.113 150.149 101.5C150.149 99.8867 150.714 98.5153 151.843 97.386C152.958 96.2713 154.329 95.714 155.957 95.714C157.585 95.714 158.956 96.2713 160.071 97.386C161.2 98.5153 161.765 99.8867 161.765 101.5C161.765 103.113 161.2 104.485 160.071 105.614ZM152.525 101.5C152.525 102.497 152.855 103.326 153.515 103.986C154.175 104.646 154.989 104.976 155.957 104.976C156.925 104.976 157.739 104.646 158.399 103.986C159.059 103.326 159.389 102.497 159.389 101.5C159.389 100.503 159.059 99.674 158.399 99.014C157.739 98.354 156.925 98.024 155.957 98.024C154.989 98.024 154.175 98.354 153.515 99.014C152.855 99.674 152.525 100.503 152.525 101.5ZM169.105 107.286C167.448 107.286 166.062 106.729 164.947 105.614C163.847 104.485 163.297 103.113 163.297 101.5C163.297 99.8573 163.847 98.486 164.947 97.386C166.062 96.2713 167.448 95.714 169.105 95.714C170.176 95.714 171.151 95.9707 172.031 96.484C172.911 96.9973 173.571 97.6867 174.011 98.552L171.965 99.74C171.716 99.212 171.335 98.8013 170.821 98.508C170.323 98.2 169.743 98.046 169.083 98.046C168.115 98.046 167.301 98.376 166.641 99.036C165.996 99.7107 165.673 100.532 165.673 101.5C165.673 102.468 165.996 103.289 166.641 103.964C167.301 104.624 168.115 104.954 169.083 104.954C169.729 104.954 170.308 104.807 170.821 104.514C171.349 104.206 171.745 103.788 172.009 103.26L174.055 104.426C173.586 105.306 172.904 106.003 172.009 106.516C171.129 107.029 170.161 107.286 169.105 107.286ZM174.499 96H184.069V98.288H180.483V107H178.107V98.288H174.499V96ZM195.873 102.512H187.117C187.293 103.333 187.689 103.971 188.305 104.426C188.936 104.881 189.713 105.108 190.637 105.108C191.884 105.108 192.83 104.653 193.475 103.744L195.433 104.888C194.363 106.487 192.757 107.286 190.615 107.286C188.841 107.286 187.396 106.743 186.281 105.658C185.181 104.558 184.631 103.172 184.631 101.5C184.631 99.872 185.174 98.5007 186.259 97.386C187.33 96.2713 188.723 95.714 190.439 95.714C192.038 95.714 193.358 96.2787 194.399 97.408C195.441 98.5373 195.961 99.9087 195.961 101.522C195.961 101.815 195.932 102.145 195.873 102.512ZM187.095 100.576H193.563C193.402 99.7107 193.035 99.0433 192.463 98.574C191.906 98.1047 191.224 97.87 190.417 97.87C189.537 97.87 188.804 98.112 188.217 98.596C187.631 99.08 187.257 99.74 187.095 100.576ZM205.664 101.346C206.749 101.859 207.292 102.703 207.292 103.876C207.292 104.815 206.969 105.57 206.324 106.142C205.693 106.714 204.813 107 203.684 107H198.052V96H203.244C204.359 96 205.231 96.2787 205.862 96.836C206.493 97.3933 206.808 98.1267 206.808 99.036C206.808 100.077 206.427 100.847 205.664 101.346ZM203.068 98.024H200.318V100.466H203.068C204.036 100.466 204.52 100.055 204.52 99.234C204.52 98.4273 204.036 98.024 203.068 98.024ZM200.318 104.932H203.464C204.461 104.932 204.96 104.499 204.96 103.634C204.96 103.253 204.828 102.959 204.564 102.754C204.3 102.534 203.933 102.424 203.464 102.424H200.318V104.932ZM217.936 97.562V96H220.312V107H217.936V105.416C217.041 106.663 215.758 107.286 214.086 107.286C212.575 107.286 211.285 106.729 210.214 105.614C209.143 104.499 208.608 103.128 208.608 101.5C208.608 99.872 209.143 98.5007 210.214 97.386C211.285 96.2713 212.575 95.714 214.086 95.714C215.758 95.714 217.041 96.33 217.936 97.562ZM211.974 104.03C212.634 104.69 213.463 105.02 214.46 105.02C215.457 105.02 216.286 104.69 216.946 104.03C217.606 103.355 217.936 102.512 217.936 101.5C217.936 100.488 217.606 99.652 216.946 98.992C216.286 98.3173 215.457 97.98 214.46 97.98C213.463 97.98 212.634 98.3173 211.974 98.992C211.314 99.652 210.984 100.488 210.984 101.5C210.984 102.497 211.314 103.341 211.974 104.03ZM226.689 96H231.595V107H229.263V103.304H227.943L225.149 107H222.355L225.325 103.084C224.563 102.835 223.947 102.395 223.477 101.764C223.023 101.133 222.795 100.429 222.795 99.652C222.795 98.64 223.155 97.782 223.873 97.078C224.592 96.3593 225.531 96 226.689 96ZM226.821 101.258H229.263V98.156H226.821C226.323 98.156 225.912 98.3027 225.589 98.596C225.281 98.8747 225.127 99.2487 225.127 99.718C225.127 100.187 225.281 100.561 225.589 100.84C225.912 101.119 226.323 101.258 226.821 101.258Z" fill="#212D55"/>
<g filter="url(#filter1_d_360_4774)">
<path fill-rule="evenodd" clip-rule="evenodd" d="M40 45C34.4772 45 30 49.4772 30 55V72.3892C32.509 72.7842 34.4606 75.8171 34.4606 79.5C34.4606 83.1829 32.509 86.2159 30 86.6109V104C30 109.523 34.4772 114 40 114H100C105.523 114 110 109.523 110 104V55C110 49.4772 105.523 45 100 45H40Z" fill="white"/>
</g>
<g clip-path="url(#clip0_360_4774)">
<path d="M71.7447 67.9187H63.6992V91.0814H66.3359V83.7389H71.7447C76.0318 83.7389 79.5195 80.2512 79.5195 75.9642V75.6933C79.5195 71.4065 76.0318 67.9187 71.7447 67.9187ZM76.8828 75.9643C76.8828 78.7974 74.5779 81.1023 71.7447 81.1023H66.3359V70.5554H71.7447C74.5779 70.5554 76.8828 72.8604 76.8828 75.6934V75.9643Z" fill="#212D55"/>
<path d="M85.41 63.59C81.1602 59.3404 75.51 57 69.5 57C63.49 57 57.8398 59.3404 53.59 63.59C49.3404 67.8398 47 73.4901 47 79.5C47 85.5099 49.3404 91.1602 53.5901 95.4099C57.8398 99.6596 63.49 102 69.5 102C75.51 102 81.1602 99.6596 85.41 95.41C89.6596 91.1602 92 85.5099 92 79.5C92 73.4901 89.6596 67.8398 85.41 63.59ZM83.5455 93.5455C79.7938 97.2971 74.8056 99.3633 69.5 99.3633C64.1943 99.3633 59.2063 97.2971 55.4546 93.5454C51.7029 89.7938 49.6367 84.8056 49.6367 79.5C49.6367 74.1944 51.7029 69.2063 55.4546 65.4545C59.2063 61.7029 64.1943 59.6367 69.5 59.6367C74.8056 59.6367 79.7938 61.7029 83.5455 65.4545C87.2971 69.2063 89.3633 74.1944 89.3633 79.5C89.3633 84.8056 87.2971 89.7938 83.5455 93.5455Z" fill="#212D55"/>
</g>
<defs>
<filter id="filter0_d_360_4774" x="0" y="0" width="292" height="169" filterUnits="userSpaceOnUse" color-interpolation-filters="sRGB">
<feFlood flood-opacity="0" result="BackgroundImageFix"/>
<feColorMatrix in="SourceAlpha" type="matrix" values="0 0 0 0 0 0 0 0 0 0 0 0 0 0 0 0 0 0 127 0" result="hardAlpha"/>
<feOffset dy="5"/>
<feGaussianBlur stdDeviation="7.5"/>
<feComposite in2="hardAlpha" operator="out"/>
<feColorMatrix type="matrix" values="0 0 0 0 0.129412 0 0 0 0 0.176471 0 0 0 0 0.333333 0 0 0 0.2 0"/>
<feBlend mode="normal" in2="BackgroundImageFix" result="effect1_dropShadow_360_4774"/>
<feBlend mode="normal" in="SourceGraphic" in2="effect1_dropShadow_360_4774" result="shape"/>
</filter>
<filter id="filter1_d_360_4774" x="10" y="30" width="120" height="109" filterUnits="userSpaceOnUse" color-interpolation-filters="sRGB">
<feFlood flood-opacity="0" result="BackgroundImageFix"/>
<feColorMatrix in="SourceAlpha" type="matrix" values="0 0 0 0 0 0 0 0 0 0 0 0 0 0 0 0 0 0 127 0" result="hardAlpha"/>
<feOffset dy="5"/>
<feGaussianBlur stdDeviation="10"/>
<feComposite in2="hardAlpha" operator="out"/>
<feColorMatrix type="matrix" values="0 0 0 0 0.129412 0 0 0 0 0.176471 0 0 0 0 0.333333 0 0 0 0.2 0"/>
<feBlend mode="normal" in2="BackgroundImageFix" result="effect1_dropShadow_360_4774"/>
<feBlend mode="normal" in="SourceGraphic" in2="effect1_dropShadow_360_4774" result="shape"/>
</filter>
<clipPath id="clip0_360_4774">
<rect width="45" height="45" fill="white" transform="translate(47 57)"/>
</clipPath>
</defs>
</svg>
