<svg width="292" height="169" viewBox="0 0 292 169" fill="none" xmlns="http://www.w3.org/2000/svg">
<g filter="url(#filter0_d_360_4828)">
<rect x="15" y="10" width="262" height="139" rx="10" fill="#F9FCFD"/>
</g>
<path d="M154.54 66H152.516L145.3 58.542V66H143.76V50.6H145.3V57.64L152.296 50.6H154.32L146.928 58.08L154.54 66ZM164.531 64.614C163.417 65.714 162.053 66.264 160.439 66.264C158.826 66.264 157.455 65.714 156.325 64.614C155.211 63.4993 154.653 62.128 154.653 60.5C154.653 58.872 155.211 57.508 156.325 56.408C157.455 55.2933 158.826 54.736 160.439 54.736C162.053 54.736 163.417 55.2933 164.531 56.408C165.661 57.508 166.225 58.872 166.225 60.5C166.225 62.128 165.661 63.4993 164.531 64.614ZM157.359 63.602C158.195 64.438 159.222 64.856 160.439 64.856C161.657 64.856 162.683 64.438 163.519 63.602C164.355 62.7513 164.773 61.7173 164.773 60.5C164.773 59.2827 164.355 58.256 163.519 57.42C162.683 56.5693 161.657 56.144 160.439 56.144C159.222 56.144 158.195 56.5693 157.359 57.42C156.523 58.256 156.105 59.2827 156.105 60.5C156.105 61.7173 156.523 62.7513 157.359 63.602ZM174.551 54.736C176.121 54.736 177.455 55.2933 178.555 56.408C179.67 57.5227 180.227 58.8867 180.227 60.5C180.227 62.1133 179.67 63.4773 178.555 64.592C177.455 65.7067 176.121 66.264 174.551 66.264C172.601 66.264 171.119 65.4573 170.107 63.844V70.4H168.655V55H170.107V57.156C171.119 55.5427 172.601 54.736 174.551 54.736ZM171.361 63.602C172.197 64.438 173.224 64.856 174.441 64.856C175.659 64.856 176.685 64.438 177.521 63.602C178.357 62.7513 178.775 61.7173 178.775 60.5C178.775 59.2827 178.357 58.256 177.521 57.42C176.685 56.5693 175.659 56.144 174.441 56.144C173.224 56.144 172.197 56.5693 171.361 57.42C170.525 58.256 170.107 59.2827 170.107 60.5C170.107 61.7173 170.525 62.7513 171.361 63.602ZM191.882 55V66H190.43V56.408H184.094V66H182.642V55H191.882ZM202.872 55H204.412L199.704 67.012C199.279 68.0973 198.67 68.948 197.878 69.564C197.101 70.1947 196.228 70.4733 195.26 70.4V69.036C196.58 69.1827 197.585 68.42 198.274 66.748L198.56 66.066L193.632 55H195.172L199.308 64.218L202.872 55ZM210.863 66.264C209.206 66.264 207.827 65.714 206.727 64.614C205.627 63.4993 205.077 62.128 205.077 60.5C205.077 58.872 205.627 57.508 206.727 56.408C207.827 55.2933 209.206 54.736 210.863 54.736C211.949 54.736 212.924 55 213.789 55.528C214.655 56.0413 215.285 56.738 215.681 57.618L214.493 58.3C214.2 57.64 213.723 57.1193 213.063 56.738C212.418 56.342 211.685 56.144 210.863 56.144C209.646 56.144 208.619 56.5693 207.783 57.42C206.947 58.256 206.529 59.2827 206.529 60.5C206.529 61.7173 206.947 62.7513 207.783 63.602C208.619 64.438 209.646 64.856 210.863 64.856C211.685 64.856 212.418 64.6653 213.063 64.284C213.709 63.888 214.215 63.36 214.581 62.7L215.791 63.404C215.337 64.284 214.669 64.9807 213.789 65.494C212.909 66.0073 211.934 66.264 210.863 66.264ZM226.987 64.614C225.872 65.714 224.508 66.264 222.895 66.264C221.281 66.264 219.91 65.714 218.781 64.614C217.666 63.4993 217.109 62.128 217.109 60.5C217.109 58.872 217.666 57.508 218.781 56.408C219.91 55.2933 221.281 54.736 222.895 54.736C224.508 54.736 225.872 55.2933 226.987 56.408C228.116 57.508 228.681 58.872 228.681 60.5C228.681 62.128 228.116 63.4993 226.987 64.614ZM219.815 63.602C220.651 64.438 221.677 64.856 222.895 64.856C224.112 64.856 225.139 64.438 225.975 63.602C226.811 62.7513 227.229 61.7173 227.229 60.5C227.229 59.2827 226.811 58.256 225.975 57.42C225.139 56.5693 224.112 56.144 222.895 56.144C221.677 56.144 220.651 56.5693 219.815 57.42C218.979 58.256 218.561 59.2827 218.561 60.5C218.561 61.7173 218.979 62.7513 219.815 63.602ZM238.106 60.346C239.309 60.786 239.91 61.644 239.91 62.92C239.91 63.8147 239.61 64.5553 239.008 65.142C238.422 65.714 237.571 66 236.456 66H231.11V55H236.016C237.087 55 237.916 55.2787 238.502 55.836C239.089 56.3787 239.382 57.0827 239.382 57.948C239.382 59.048 238.957 59.8473 238.106 60.346ZM236.016 56.408H232.562V59.752H236.016C237.292 59.752 237.93 59.18 237.93 58.036C237.93 57.5227 237.762 57.1267 237.424 56.848C237.102 56.5547 236.632 56.408 236.016 56.408ZM236.456 64.592C237.102 64.592 237.593 64.438 237.93 64.13C238.282 63.822 238.458 63.3893 238.458 62.832C238.458 62.3187 238.282 61.9153 237.93 61.622C237.593 61.314 237.102 61.16 236.456 61.16H232.562V64.592H236.456Z" fill="#212D55"/>
<path d="M152.824 107H142.682V105.02L148.05 99.542C149.355 98.2367 150.008 97.1073 150.008 96.154C150.008 95.4207 149.788 94.8413 149.348 94.416C148.908 93.9907 148.336 93.778 147.632 93.778C146.341 93.778 145.388 94.416 144.772 95.692L142.638 94.438C143.107 93.426 143.782 92.656 144.662 92.128C145.542 91.5853 146.525 91.314 147.61 91.314C148.974 91.314 150.133 91.7393 151.086 92.59C152.054 93.4553 152.538 94.614 152.538 96.066C152.538 97.6207 151.665 99.2927 149.92 101.082L146.444 104.558H152.824V107ZM165.239 101.39L170.255 107H167.417L162.907 101.918V107H160.531V96H162.907V100.862L167.175 96H170.079L165.239 101.39ZM180.278 105.614C179.163 106.729 177.792 107.286 176.164 107.286C174.536 107.286 173.165 106.729 172.05 105.614C170.921 104.485 170.356 103.113 170.356 101.5C170.356 99.8867 170.921 98.5153 172.05 97.386C173.165 96.2713 174.536 95.714 176.164 95.714C177.792 95.714 179.163 96.2713 180.278 97.386C181.407 98.5153 181.972 99.8867 181.972 101.5C181.972 103.113 181.407 104.485 180.278 105.614ZM172.732 101.5C172.732 102.497 173.062 103.326 173.722 103.986C174.382 104.646 175.196 104.976 176.164 104.976C177.132 104.976 177.946 104.646 178.606 103.986C179.266 103.326 179.596 102.497 179.596 101.5C179.596 100.503 179.266 99.674 178.606 99.014C177.946 98.354 177.132 98.024 176.164 98.024C175.196 98.024 174.382 98.354 173.722 99.014C173.062 99.674 172.732 100.503 172.732 101.5ZM190.346 95.714C191.842 95.714 193.133 96.2787 194.218 97.408C195.289 98.5227 195.824 99.8867 195.824 101.5C195.824 103.128 195.289 104.499 194.218 105.614C193.148 106.729 191.857 107.286 190.346 107.286C188.689 107.286 187.406 106.67 186.496 105.438V111.4H184.12V96H186.496V97.584C187.391 96.3373 188.674 95.714 190.346 95.714ZM187.486 104.03C188.146 104.69 188.975 105.02 189.972 105.02C190.97 105.02 191.798 104.69 192.458 104.03C193.118 103.355 193.448 102.512 193.448 101.5C193.448 100.488 193.118 99.652 192.458 98.992C191.798 98.3173 190.97 97.98 189.972 97.98C188.975 97.98 188.146 98.3173 187.486 98.992C186.826 99.652 186.496 100.488 186.496 101.5C186.496 102.497 186.826 103.341 187.486 104.03ZM197.978 96H207.768V107H205.392V98.244H200.354V107H197.978V96ZM215.123 104.008L217.939 96H220.469L216.245 107.352C215.731 108.745 215.013 109.787 214.089 110.476C213.165 111.165 212.094 111.473 210.877 111.4V109.178C212.285 109.266 213.26 108.562 213.803 107.066L213.869 106.912L209.249 96H211.779L215.123 104.008ZM226.717 107.286C225.059 107.286 223.673 106.729 222.559 105.614C221.459 104.485 220.909 103.113 220.909 101.5C220.909 99.8573 221.459 98.486 222.559 97.386C223.673 96.2713 225.059 95.714 226.717 95.714C227.787 95.714 228.763 95.9707 229.643 96.484C230.523 96.9973 231.183 97.6867 231.623 98.552L229.577 99.74C229.327 99.212 228.946 98.8013 228.433 98.508C227.934 98.2 227.355 98.046 226.695 98.046C225.727 98.046 224.913 98.376 224.253 99.036C223.607 99.7107 223.285 100.532 223.285 101.5C223.285 102.468 223.607 103.289 224.253 103.964C224.913 104.624 225.727 104.954 226.695 104.954C227.34 104.954 227.919 104.807 228.433 104.514C228.961 104.206 229.357 103.788 229.621 103.26L231.667 104.426C231.197 105.306 230.515 106.003 229.621 106.516C228.741 107.029 227.773 107.286 226.717 107.286ZM241.924 97.562V96H244.3V107H241.924V105.416C241.03 106.663 239.746 107.286 238.074 107.286C236.564 107.286 235.273 106.729 234.202 105.614C233.132 104.499 232.596 103.128 232.596 101.5C232.596 99.872 233.132 98.5007 234.202 97.386C235.273 96.2713 236.564 95.714 238.074 95.714C239.746 95.714 241.03 96.33 241.924 97.562ZM235.962 104.03C236.622 104.69 237.451 105.02 238.448 105.02C239.446 105.02 240.274 104.69 240.934 104.03C241.594 103.355 241.924 102.512 241.924 101.5C241.924 100.488 241.594 99.652 240.934 98.992C240.274 98.3173 239.446 97.98 238.448 97.98C237.451 97.98 236.622 98.3173 235.962 98.992C235.302 99.652 234.972 100.488 234.972 101.5C234.972 102.497 235.302 103.341 235.962 104.03Z" fill="#212D55"/>
<g filter="url(#filter1_d_360_4828)">
<path fill-rule="evenodd" clip-rule="evenodd" d="M40 45C34.4772 45 30 49.4772 30 55V72.3892C32.509 72.7842 34.4606 75.8171 34.4606 79.5C34.4606 83.1829 32.509 86.2159 30 86.6109V104C30 109.523 34.4772 114 40 114H100C105.523 114 110 109.523 110 104V55C110 49.4772 105.523 45 100 45H40Z" fill="white"/>
</g>
<g clip-path="url(#clip0_360_4828)">
<path d="M91.25 100.5H86.75V75.75C86.75 75.3358 86.4142 75 86 75H75.5V57.75C75.5 57.3358 75.1642 57 74.75 57H55.25C54.8358 57 54.5 57.3358 54.5 57.75V100.5H47.75C47.3358 100.5 47 100.836 47 101.25C47 101.664 47.3358 102 47.75 102H91.25C91.6642 102 92 101.664 92 101.25C92 100.836 91.6642 100.5 91.25 100.5ZM62.75 100.5H59.75V93.75C59.75 93.3358 60.0858 93 60.5 93H62C62.4142 93 62.75 93.3358 62.75 93.75V100.5ZM65.75 75.75V100.5H64.25V93.75C64.25 92.5073 63.2427 91.5 62 91.5H60.5C59.2573 91.5 58.25 92.5073 58.25 93.75V100.5H56V58.5H74V75H66.5C66.0858 75 65.75 75.3358 65.75 75.75ZM85.25 100.5H67.25V76.5H85.25V100.5Z" fill="#212D55"/>
<path d="M71 67.5H66.5C66.0858 67.5 65.75 67.8358 65.75 68.25V72.75C65.75 73.1642 66.0858 73.5 66.5 73.5H71C71.4142 73.5 71.75 73.1642 71.75 72.75V68.25C71.75 67.8358 71.4142 67.5 71 67.5ZM70.25 72H67.25V69H70.25V72Z" fill="#212D55"/>
<path d="M71 60.0001H66.5C66.0858 60.0001 65.75 60.3359 65.75 60.7501V65.2501C65.75 65.6642 66.0858 66.0001 66.5 66.0001H71C71.4142 66.0001 71.75 65.6642 71.75 65.2501V60.7501C71.75 60.3359 71.4142 60.0001 71 60.0001ZM70.25 64.5001H67.25V61.5001H70.25V64.5001Z" fill="#212D55"/>
<path d="M63.5 67.5H59C58.5858 67.5 58.25 67.8358 58.25 68.25V72.75C58.25 73.1642 58.5858 73.5 59 73.5H63.5C63.9142 73.5 64.25 73.1642 64.25 72.75V68.25C64.25 67.8358 63.9142 67.5 63.5 67.5ZM62.75 72H59.75V69H62.75V72Z" fill="#212D55"/>
<path d="M63.5 60.0001H59C58.5858 60.0001 58.25 60.3359 58.25 60.7501V65.2501C58.25 65.6642 58.5858 66.0001 59 66.0001H63.5C63.9142 66.0001 64.25 65.6642 64.25 65.2501V60.7501C64.25 60.3359 63.9142 60.0001 63.5 60.0001ZM62.75 64.5001H59.75V61.5001H62.75V64.5001Z" fill="#212D55"/>
<path d="M63.5 75H59C58.5858 75 58.25 75.3358 58.25 75.75V80.25C58.25 80.6642 58.5858 81 59 81H63.5C63.9142 81 64.25 80.6642 64.25 80.25V75.75C64.25 75.3358 63.9142 75 63.5 75ZM62.75 79.5H59.75V76.5H62.75V79.5Z" fill="#212D55"/>
<path d="M63.5 82.5001H59C58.5858 82.5001 58.25 82.8359 58.25 83.2501V87.7501C58.25 88.1642 58.5858 88.5001 59 88.5001H63.5C63.9142 88.5001 64.25 88.1642 64.25 87.7501V83.2501C64.25 82.8359 63.9142 82.5001 63.5 82.5001ZM62.75 87.0001H59.75V84.0001H62.75V87.0001Z" fill="#212D55"/>
<path d="M77.75 91.5H82.25C82.6642 91.5 83 91.1642 83 90.75V86.25C83 85.8358 82.6642 85.5 82.25 85.5H77.75C77.3358 85.5 77 85.8358 77 86.25V90.75C77 91.1642 77.3358 91.5 77.75 91.5ZM78.5 87H81.5V90H78.5V87Z" fill="#212D55"/>
<path d="M77.75 84H82.25C82.6642 84 83 83.6642 83 83.25V78.75C83 78.3358 82.6642 78 82.25 78H77.75C77.3358 78 77 78.3358 77 78.75V83.25C77 83.6642 77.3358 84 77.75 84ZM78.5 79.5H81.5V82.5H78.5V79.5Z" fill="#212D55"/>
<path d="M77.75 99H82.25C82.6642 99 83 98.6642 83 98.25V93.75C83 93.3358 82.6642 93 82.25 93H77.75C77.3358 93 77 93.3358 77 93.75V98.25C77 98.6642 77.3358 99 77.75 99ZM78.5 94.5H81.5V97.5H78.5V94.5Z" fill="#212D55"/>
<path d="M70.25 91.5H74.75C75.1642 91.5 75.5 91.1642 75.5 90.75V86.25C75.5 85.8358 75.1642 85.5 74.75 85.5H70.25C69.8358 85.5 69.5 85.8358 69.5 86.25V90.75C69.5 91.1642 69.8358 91.5 70.25 91.5ZM71 87H74V90H71V87Z" fill="#212D55"/>
<path d="M70.25 84H74.75C75.1642 84 75.5 83.6642 75.5 83.25V78.75C75.5 78.3358 75.1642 78 74.75 78H70.25C69.8358 78 69.5 78.3358 69.5 78.75V83.25C69.5 83.6642 69.8358 84 70.25 84ZM71 79.5H74V82.5H71V79.5Z" fill="#212D55"/>
<path d="M70.25 99H74.75C75.1642 99 75.5 98.6642 75.5 98.25V93.75C75.5 93.3358 75.1642 93 74.75 93H70.25C69.8358 93 69.5 93.3358 69.5 93.75V98.25C69.5 98.6642 69.8358 99 70.25 99ZM71 94.5H74V97.5H71V94.5Z" fill="#212D55"/>
</g>
<defs>
<filter id="filter0_d_360_4828" x="0" y="0" width="292" height="169" filterUnits="userSpaceOnUse" color-interpolation-filters="sRGB">
<feFlood flood-opacity="0" result="BackgroundImageFix"/>
<feColorMatrix in="SourceAlpha" type="matrix" values="0 0 0 0 0 0 0 0 0 0 0 0 0 0 0 0 0 0 127 0" result="hardAlpha"/>
<feOffset dy="5"/>
<feGaussianBlur stdDeviation="7.5"/>
<feComposite in2="hardAlpha" operator="out"/>
<feColorMatrix type="matrix" values="0 0 0 0 0.129412 0 0 0 0 0.176471 0 0 0 0 0.333333 0 0 0 0.2 0"/>
<feBlend mode="normal" in2="BackgroundImageFix" result="effect1_dropShadow_360_4828"/>
<feBlend mode="normal" in="SourceGraphic" in2="effect1_dropShadow_360_4828" result="shape"/>
</filter>
<filter id="filter1_d_360_4828" x="10" y="30" width="120" height="109" filterUnits="userSpaceOnUse" color-interpolation-filters="sRGB">
<feFlood flood-opacity="0" result="BackgroundImageFix"/>
<feColorMatrix in="SourceAlpha" type="matrix" values="0 0 0 0 0 0 0 0 0 0 0 0 0 0 0 0 0 0 127 0" result="hardAlpha"/>
<feOffset dy="5"/>
<feGaussianBlur stdDeviation="10"/>
<feComposite in2="hardAlpha" operator="out"/>
<feColorMatrix type="matrix" values="0 0 0 0 0.129412 0 0 0 0 0.176471 0 0 0 0 0.333333 0 0 0 0.2 0"/>
<feBlend mode="normal" in2="BackgroundImageFix" result="effect1_dropShadow_360_4828"/>
<feBlend mode="normal" in="SourceGraphic" in2="effect1_dropShadow_360_4828" result="shape"/>
</filter>
<clipPath id="clip0_360_4828">
<rect width="45" height="45" fill="white" transform="translate(47 57)"/>
</clipPath>
</defs>
</svg>
