<svg width="292" height="169" viewBox="0 0 292 169" fill="none" xmlns="http://www.w3.org/2000/svg">
<g filter="url(#filter0_d_360_210)">
<rect x="15" y="10" width="262" height="139" rx="10" fill="#F9FCFD"/>
</g>
<g filter="url(#filter1_d_360_210)">
<path fill-rule="evenodd" clip-rule="evenodd" d="M40 45C34.4772 45 30 49.4772 30 55V72.3892C32.509 72.7842 34.4606 75.8171 34.4606 79.5C34.4606 83.1829 32.509 86.2159 30 86.6109V104C30 109.523 34.4772 114 40 114H100C105.523 114 110 109.523 110 104V55C110 49.4772 105.523 45 100 45H40Z" fill="white"/>
</g>
<path d="M76.0421 100.784C75.9589 100.784 75.8766 100.767 75.8002 100.734C75.7239 100.701 75.6551 100.652 75.5982 100.592L72.6793 97.4788C72.5735 97.3661 72.5146 97.2174 72.5145 97.0628V95.5869C72.5145 95.4989 72.5337 95.4119 72.5707 95.332C72.6076 95.2521 72.6615 95.1812 72.7285 95.1242L73.7623 94.2412L72.8106 93.2311C72.7065 93.1207 72.6474 92.9752 72.6451 92.8234C72.6427 92.6716 72.6972 92.5244 72.7979 92.4108L73.7994 91.2791L72.9547 90.37C72.853 90.2606 72.795 90.1175 72.792 89.9681C72.789 89.8187 72.8411 89.6734 72.9383 89.56L73.8402 88.5086L72.7352 87.5964C72.666 87.5393 72.6102 87.4676 72.5719 87.3865C72.5337 87.3053 72.5138 87.2167 72.5139 87.1269V83.4728C70.9768 82.6909 69.75 81.4113 69.0335 79.8427C68.317 78.2741 68.153 76.5091 68.5683 74.8353C68.9837 73.1616 69.9538 71.6779 71.3205 70.6263C72.6872 69.5746 74.3699 69.017 76.0942 69.0444C77.8185 69.0718 79.4827 69.6825 80.8153 70.7771C82.1479 71.8716 83.0705 73.3853 83.4324 75.0714C83.7944 76.7575 83.5745 78.5164 82.8085 80.0615C82.0425 81.6066 80.7757 82.8465 79.2146 83.5792V96.9157C79.2146 97.052 79.1687 97.1843 79.0845 97.2915L76.5201 100.552C76.4658 100.621 76.3971 100.677 76.3188 100.717C76.2404 100.758 76.1544 100.78 76.0664 100.784H76.0421ZM73.7313 96.822L76.0026 99.2435L77.9996 96.7052V83.1809C77.9996 83.0599 78.0357 82.9415 78.1033 82.8411C78.1709 82.7407 78.2669 82.6627 78.3791 82.6172C79.7529 82.0625 80.8926 81.05 81.6053 79.7511C82.318 78.4523 82.5598 76.947 82.2896 75.4903C82.0195 74.0336 81.254 72.7151 80.123 71.7582C78.992 70.8012 77.5649 70.2647 76.0836 70.2396C74.6023 70.2144 73.1578 70.7021 71.9949 71.6201C70.832 72.538 70.0222 73.8297 69.7027 75.2764C69.3832 76.7231 69.5737 78.2357 70.2418 79.5581C70.91 80.8804 72.0147 81.9311 73.3689 82.5321C73.4771 82.5793 73.5692 82.657 73.634 82.7557C73.6988 82.8544 73.7334 82.9698 73.7337 83.0879V86.8417L75.0935 87.9649C75.1558 88.0163 75.2073 88.0797 75.2448 88.1512C75.2824 88.2228 75.3053 88.3011 75.3123 88.3816C75.3193 88.4621 75.3101 88.5432 75.2854 88.6201C75.2607 88.697 75.2208 88.7683 75.1683 88.8296L74.2166 89.9394L75.0679 90.8552C75.1707 90.9658 75.2287 91.1106 75.2306 91.2616C75.2325 91.4125 75.1782 91.5588 75.0783 91.6719L74.0791 92.8012L75.0886 93.8727C75.145 93.9327 75.1886 94.0035 75.2168 94.0809C75.245 94.1582 75.2572 94.2405 75.2527 94.3228C75.2481 94.405 75.2269 94.4854 75.1904 94.5592C75.1538 94.633 75.1026 94.6986 75.0399 94.752L73.7325 95.8679L73.7313 96.822Z" fill="#212D55"/>
<path d="M78.6042 83.7854C78.4436 83.7854 78.2894 83.7218 78.1755 83.6085C78.0616 83.4953 77.9971 83.3416 77.9961 83.1809V83.1736C77.9968 83.0535 78.0331 82.9363 78.1003 82.8368C78.1676 82.7372 78.2628 82.6599 78.374 82.6144C78.4852 82.5689 78.6073 82.5574 78.7251 82.5813C78.8428 82.6052 78.9508 82.6634 79.0355 82.7486C79.1202 82.8337 79.1777 82.9421 79.2009 83.06C79.2241 83.1778 79.2118 83.2999 79.1657 83.4108C79.1195 83.5217 79.0416 83.6165 78.9417 83.6831C78.8417 83.7498 78.7243 83.7854 78.6042 83.7854Z" fill="#212D55"/>
<path d="M75.9697 77.8028C75.3816 77.8028 74.8067 77.6284 74.3177 77.3016C73.8287 76.9749 73.4475 76.5104 73.2224 75.9671C72.9974 75.4237 72.9385 74.8258 73.0532 74.249C73.168 73.6722 73.4512 73.1423 73.8671 72.7264C74.2829 72.3106 74.8128 72.0273 75.3896 71.9126C75.9664 71.7979 76.5643 71.8568 77.1077 72.0818C77.6511 72.3069 78.1155 72.688 78.4422 73.177C78.769 73.6661 78.9434 74.241 78.9434 74.8291C78.9426 75.6175 78.629 76.3734 78.0715 76.9309C77.514 77.4884 76.7582 77.802 75.9697 77.8028V77.8028ZM75.9697 73.0717C75.6222 73.0717 75.2824 73.1748 74.9934 73.3679C74.7044 73.561 74.4791 73.8354 74.3461 74.1566C74.2131 74.4777 74.1783 74.8311 74.2461 75.172C74.3139 75.5129 74.4813 75.826 74.7271 76.0718C74.9728 76.3176 75.286 76.485 75.6269 76.5528C75.9678 76.6206 76.3212 76.5858 76.6423 76.4528C76.9634 76.3198 77.2379 76.0945 77.431 75.8055C77.6241 75.5165 77.7272 75.1767 77.7272 74.8291C77.7267 74.3632 77.5414 73.9164 77.2119 73.587C76.8824 73.2575 76.4357 73.0722 75.9697 73.0717Z" fill="#212D55"/>
<path d="M56.9068 96.9831C56.7678 96.9832 56.633 96.9357 56.5248 96.8485C56.4166 96.7613 56.3415 96.6397 56.3121 96.5039L55.4084 92.3311C55.3754 92.1793 55.4018 92.0207 55.482 91.8877L56.247 90.6211C56.2925 90.5457 56.3537 90.4811 56.4266 90.4318C56.4995 90.3825 56.5822 90.3495 56.669 90.3352L58.0068 90.1145L57.7156 88.7529C57.6839 88.605 57.7085 88.4505 57.7847 88.3197C57.8608 88.1889 57.9829 88.0912 58.1273 88.0457L59.5654 87.5933L59.3137 86.3771C59.2833 86.2308 59.3079 86.0785 59.3827 85.9491C59.4576 85.8198 59.5774 85.7226 59.7193 85.6759L61.0304 85.2442L60.556 83.8905C60.5264 83.8062 60.5157 83.7164 60.5248 83.6275C60.5338 83.5385 60.5623 83.4527 60.6083 83.3761L62.4886 80.2443C61.5768 78.7895 61.1821 77.0697 61.3684 75.3628C61.5546 73.656 62.311 72.0618 63.5152 70.8379C64.7194 69.6141 66.3011 68.832 68.0047 68.618C69.7083 68.4041 71.4342 68.7708 72.9037 69.659L72.9906 69.7125C73.066 69.7581 73.1384 69.8025 73.2114 69.8505C73.278 69.8947 73.3352 69.9515 73.3799 70.0178C73.4245 70.0841 73.4556 70.1585 73.4715 70.2369C73.4874 70.3152 73.4877 70.3959 73.4723 70.4743C73.457 70.5527 73.4264 70.6274 73.3823 70.694C73.3381 70.7606 73.2812 70.8178 73.215 70.8624C73.1487 70.9071 73.0742 70.9382 72.9959 70.9541C72.9176 70.97 72.8369 70.9702 72.7585 70.9549C72.6801 70.9396 72.6054 70.909 72.5388 70.8648C72.478 70.8259 72.4208 70.79 72.3564 70.7529L72.267 70.6982C71.0067 69.9401 69.5242 69.6379 68.0677 69.8423C66.6112 70.0467 65.2691 70.7452 64.2662 71.8209C63.2632 72.8966 62.6602 74.2843 62.5581 75.7515C62.456 77.2187 62.8611 78.6764 63.7054 79.8807C63.773 79.9769 63.8112 80.0907 63.8154 80.2083C63.8196 80.3258 63.7897 80.442 63.7291 80.5429L61.8002 83.7567L62.3858 85.426C62.4126 85.5023 62.4239 85.5832 62.419 85.6639C62.4142 85.7446 62.3933 85.8235 62.3575 85.8961C62.3218 85.9686 62.272 86.0333 62.2109 86.0863C62.1499 86.1394 62.0789 86.1797 62.0021 86.205L60.6175 86.6611L60.8704 87.8834C60.9009 88.0309 60.8755 88.1844 60.7992 88.3143C60.7229 88.4442 60.6012 88.5411 60.4575 88.5863L59.0224 89.0382L59.3319 90.4824C59.3495 90.563 59.3505 90.6464 59.3349 90.7274C59.3192 90.8085 59.2872 90.8855 59.2408 90.9537C59.1945 91.022 59.1347 91.0801 59.0652 91.1245C58.9956 91.169 58.9177 91.1988 58.8363 91.2121L57.1433 91.4913L56.6483 92.311L57.3513 95.554L60.3718 94.4108L67.3389 82.8215C67.4008 82.7174 67.4926 82.6343 67.6024 82.583C67.7121 82.5317 67.8347 82.5146 67.9543 82.5338C69.2611 82.7427 70.6004 82.5381 71.7854 81.9488C71.857 81.9126 71.935 81.8909 72.015 81.8849C72.095 81.879 72.1754 81.889 72.2516 81.9142C72.3277 81.9395 72.3981 81.9796 72.4587 82.0322C72.5193 82.0848 72.5689 82.1489 72.6046 82.2208C72.6403 82.2926 72.6614 82.3708 72.6668 82.4509C72.6721 82.531 72.6615 82.6113 72.6357 82.6872C72.6099 82.7632 72.5692 82.8333 72.5162 82.8935C72.4631 82.9537 72.3987 83.0028 72.3266 83.038C71.0427 83.6767 69.6037 83.9369 68.1775 83.7884L61.3058 95.2208C61.2358 95.3373 61.1288 95.427 61.0018 95.4756L57.1239 96.9436C57.0546 96.9702 56.981 96.9836 56.9068 96.9831V96.9831Z" fill="#212D55"/>
<path d="M67.863 83.7416C67.7557 83.7411 67.6504 83.7122 67.5578 83.6578C67.4653 83.6034 67.3888 83.5255 67.3361 83.432C67.2834 83.3385 67.2564 83.2327 67.2579 83.1254C67.2593 83.018 67.2891 82.913 67.3443 82.8209L67.3486 82.8142C67.3901 82.746 67.4446 82.6866 67.5091 82.6394C67.5736 82.5923 67.6467 82.5583 67.7243 82.5394C67.802 82.5205 67.8825 82.5171 67.9615 82.5294C68.0404 82.5416 68.1162 82.5693 68.1844 82.6108C68.2526 82.6523 68.312 82.7069 68.3592 82.7714C68.4063 82.8359 68.4403 82.909 68.4592 82.9866C68.4781 83.0642 68.4815 83.1448 68.4693 83.2237C68.457 83.3027 68.4293 83.3784 68.3878 83.4467C68.3329 83.5367 68.2558 83.611 68.1639 83.6627C68.072 83.7143 67.9684 83.7415 67.863 83.7416V83.7416Z" fill="#212D55"/>
<path d="M78.2425 74.7817C78.1058 74.7832 77.9725 74.7386 77.8643 74.6551C77.756 74.5716 77.679 74.4541 77.6458 74.3214C77.6125 74.1888 77.6249 74.0488 77.681 73.9241C77.7371 73.7994 77.8336 73.6973 77.9549 73.6342C79.1538 72.8201 80.1008 71.6867 80.6887 70.3622C81.2766 69.0377 81.482 67.5751 81.2815 66.1399C81.081 64.7047 80.4827 63.3544 79.5543 62.2417C78.6259 61.129 77.4046 60.2985 76.0285 59.8442C74.6525 59.3899 73.1767 59.3299 71.7683 59.6711C70.36 60.0123 69.0752 60.7409 68.0596 61.7746C67.044 62.8083 66.3381 64.1057 66.0219 65.5198C65.7056 66.934 65.7916 68.4085 66.2701 69.7763C66.3003 69.8523 66.3148 69.9336 66.3128 70.0154C66.3108 70.0972 66.2924 70.1777 66.2586 70.2521C66.2248 70.3266 66.1763 70.3935 66.116 70.4488C66.0557 70.5041 65.9849 70.5466 65.9078 70.5739C65.8308 70.6012 65.7489 70.6127 65.6673 70.6076C65.5857 70.6026 65.5059 70.5811 65.4328 70.5445C65.3596 70.5079 65.2946 70.4569 65.2417 70.3946C65.1887 70.3323 65.1488 70.26 65.1244 70.1819C64.5675 68.5957 64.4669 66.8851 64.834 65.2445C65.2011 63.6039 66.0212 62.0993 67.201 60.9017C68.3808 59.7042 69.873 58.8617 71.5079 58.4701C73.1428 58.0786 74.8548 58.1537 76.4491 58.6868C78.0435 59.22 79.4562 60.1899 80.5267 61.4862C81.5971 62.7824 82.2824 64.3531 82.5044 66.0195C82.7265 67.6859 82.4765 69.3812 81.7828 70.9125C81.0892 72.4439 79.9797 73.7498 78.5806 74.6819C78.4804 74.748 78.3626 74.7827 78.2425 74.7817V74.7817Z" fill="#212D55"/>
<path d="M136.954 64.264C134.607 64.264 132.679 63.494 131.168 61.954C129.643 60.3993 128.88 58.5147 128.88 56.3C128.88 54.0853 129.643 52.2007 131.168 50.646C132.679 49.106 134.607 48.336 136.954 48.336C138.362 48.336 139.66 48.6807 140.848 49.37C142.036 50.0447 142.96 50.9613 143.62 52.12L142.256 52.912C141.772 51.9733 141.053 51.2253 140.1 50.668C139.147 50.1107 138.098 49.832 136.954 49.832C135.018 49.832 133.449 50.4553 132.246 51.702C131.029 52.9633 130.42 54.496 130.42 56.3C130.42 58.104 131.029 59.6367 132.246 60.898C133.449 62.1447 135.018 62.768 136.954 62.768C138.098 62.768 139.147 62.4893 140.1 61.932C141.053 61.3747 141.772 60.6267 142.256 59.688L143.62 60.458C142.989 61.6167 142.073 62.5407 140.87 63.23C139.667 63.9193 138.362 64.264 136.954 64.264ZM151.829 52.736C153.398 52.736 154.733 53.2933 155.833 54.408C156.947 55.5227 157.505 56.8867 157.505 58.5C157.505 60.1133 156.947 61.4773 155.833 62.592C154.733 63.7067 153.398 64.264 151.829 64.264C149.878 64.264 148.397 63.4573 147.385 61.844V68.4H145.933V53H147.385V55.156C148.397 53.5427 149.878 52.736 151.829 52.736ZM148.639 61.602C149.475 62.438 150.501 62.856 151.719 62.856C152.936 62.856 153.963 62.438 154.799 61.602C155.635 60.7367 156.053 59.7027 156.053 58.5C156.053 57.2827 155.635 56.256 154.799 55.42C153.963 54.5693 152.936 54.144 151.719 54.144C150.501 54.144 149.475 54.5693 148.639 55.42C147.803 56.256 147.385 57.2827 147.385 58.5C147.385 59.7027 147.803 60.7367 148.639 61.602ZM169.137 62.614C168.008 63.714 166.644 64.264 165.045 64.264C163.417 64.264 162.046 63.714 160.931 62.614C159.816 61.4993 159.259 60.128 159.259 58.5C159.259 56.872 159.816 55.508 160.931 54.408C162.046 53.2933 163.417 52.736 165.045 52.736C166.658 52.736 168.022 53.2933 169.137 54.408C170.266 55.508 170.831 56.872 170.831 58.5C170.831 60.1133 170.266 61.4847 169.137 62.614ZM161.965 61.602C162.801 62.438 163.828 62.856 165.045 62.856C166.262 62.856 167.289 62.438 168.125 61.602C168.961 60.7367 169.379 59.7027 169.379 58.5C169.379 57.2827 168.961 56.256 168.125 55.42C167.289 54.5693 166.262 54.144 165.045 54.144C163.828 54.144 162.801 54.5693 161.965 55.42C161.129 56.256 160.711 57.2827 160.711 58.5C160.711 59.7027 161.129 60.7367 161.965 61.602ZM176.253 58.28L182.149 64H180.213L174.713 58.698V64H173.261V53H174.713V57.862L179.949 53H181.929L176.253 58.28ZM194.758 64.264C193.1 64.264 191.722 63.714 190.622 62.614C189.522 61.4847 188.972 60.1133 188.972 58.5C188.972 56.872 189.522 55.508 190.622 54.408C191.722 53.2933 193.1 52.736 194.758 52.736C195.843 52.736 196.818 53 197.684 53.528C198.549 54.0413 199.18 54.738 199.576 55.618L198.388 56.3C198.094 55.64 197.618 55.1193 196.958 54.738C196.312 54.342 195.579 54.144 194.758 54.144C193.54 54.144 192.514 54.5693 191.678 55.42C190.842 56.256 190.424 57.2827 190.424 58.5C190.424 59.7027 190.842 60.7367 191.678 61.602C192.514 62.438 193.54 62.856 194.758 62.856C195.564 62.856 196.29 62.6653 196.936 62.284C197.596 61.9027 198.109 61.3747 198.476 60.7L199.686 61.404C199.231 62.284 198.564 62.9807 197.684 63.494C196.804 64.0073 195.828 64.264 194.758 64.264ZM210.796 53V62.592H212.336V66.948H210.884V64H201.908V66.948H200.456V62.592H201.798C202.546 61.5947 202.92 60.2087 202.92 58.434V53H210.796ZM203.558 62.592H209.344V54.408H204.372V58.434C204.372 60.1353 204.1 61.5213 203.558 62.592ZM223.562 55.156V53H225.015V64H223.562V61.844C222.551 63.4573 221.069 64.264 219.119 64.264C217.549 64.264 216.207 63.7067 215.093 62.592C213.993 61.4773 213.443 60.1133 213.443 58.5C213.443 56.8867 213.993 55.5227 215.093 54.408C216.207 53.2933 217.549 52.736 219.119 52.736C221.069 52.736 222.551 53.5427 223.562 55.156ZM216.149 61.602C216.985 62.438 218.011 62.856 219.229 62.856C220.446 62.856 221.473 62.438 222.309 61.602C223.145 60.7367 223.562 59.7027 223.562 58.5C223.562 57.2827 223.145 56.256 222.309 55.42C221.473 54.5693 220.446 54.144 219.229 54.144C218.011 54.144 216.985 54.5693 216.149 55.42C215.313 56.256 214.895 57.2827 214.895 58.5C214.895 59.7027 215.313 60.7367 216.149 61.602ZM235.217 58.478V53H236.669V64H235.217V59.82C234.366 60.26 233.317 60.48 232.071 60.48C230.619 60.48 229.519 60.15 228.771 59.49C228.023 58.8153 227.649 57.8253 227.649 56.52V53H229.101V56.52C229.101 57.4293 229.335 58.0893 229.805 58.5C230.289 58.9107 231.029 59.116 232.027 59.116C233.141 59.116 234.205 58.9033 235.217 58.478ZM241.207 61.47L247.763 53H248.995V64H247.543V55.53L240.987 64H239.755V53H241.207V61.47Z" fill="#212D55"/>
<path d="M138.824 108H128.682V106.02L134.05 100.542C135.355 99.2367 136.008 98.1073 136.008 97.154C136.008 96.4207 135.788 95.8413 135.348 95.416C134.908 94.9907 134.336 94.778 133.632 94.778C132.341 94.778 131.388 95.416 130.772 96.692L128.638 95.438C129.107 94.426 129.782 93.656 130.662 93.128C131.542 92.5853 132.525 92.314 133.61 92.314C134.974 92.314 136.133 92.7393 137.086 93.59C138.054 94.4553 138.538 95.614 138.538 97.066C138.538 98.6207 137.665 100.293 135.92 102.082L132.444 105.558H138.824V108ZM150.804 106.108C149.748 107.56 148.266 108.286 146.36 108.286C144.468 108.286 142.979 107.56 141.894 106.108C140.838 104.656 140.31 102.72 140.31 100.3C140.31 97.88 140.838 95.944 141.894 94.492C142.979 93.04 144.468 92.314 146.36 92.314C148.266 92.314 149.748 93.04 150.804 94.492C151.874 95.9293 152.41 97.8653 152.41 100.3C152.41 102.735 151.874 104.671 150.804 106.108ZM146.36 105.822C147.504 105.822 148.376 105.345 148.978 104.392C149.579 103.439 149.88 102.075 149.88 100.3C149.88 98.5253 149.579 97.1613 148.978 96.208C148.376 95.2547 147.504 94.778 146.36 94.778C145.23 94.778 144.358 95.2547 143.742 96.208C143.14 97.1613 142.84 98.5253 142.84 100.3C142.84 102.075 143.14 103.439 143.742 104.392C144.358 105.345 145.23 105.822 146.36 105.822ZM153.143 94.03L157.191 92.6H159.391V108H156.861V95.306L153.759 96.186L153.143 94.03ZM165.157 98.408H167.093C168.56 98.408 169.799 98.848 170.811 99.728C171.823 100.593 172.329 101.796 172.329 103.336C172.329 104.876 171.808 106.086 170.767 106.966C169.74 107.846 168.464 108.286 166.939 108.286C165.692 108.286 164.607 108 163.683 107.428C162.759 106.856 162.099 106.042 161.703 104.986L163.881 103.732C164.306 105.125 165.326 105.822 166.939 105.822C167.804 105.822 168.494 105.602 169.007 105.162C169.535 104.707 169.799 104.099 169.799 103.336C169.799 102.588 169.542 101.994 169.029 101.554C168.516 101.099 167.834 100.872 166.983 100.872H162.495L163.089 92.6H171.669V94.976H165.421L165.157 98.408Z" fill="#212D55"/>
<defs>
<filter id="filter0_d_360_210" x="0" y="0" width="292" height="169" filterUnits="userSpaceOnUse" color-interpolation-filters="sRGB">
<feFlood flood-opacity="0" result="BackgroundImageFix"/>
<feColorMatrix in="SourceAlpha" type="matrix" values="0 0 0 0 0 0 0 0 0 0 0 0 0 0 0 0 0 0 127 0" result="hardAlpha"/>
<feOffset dy="5"/>
<feGaussianBlur stdDeviation="7.5"/>
<feComposite in2="hardAlpha" operator="out"/>
<feColorMatrix type="matrix" values="0 0 0 0 0.129412 0 0 0 0 0.176471 0 0 0 0 0.333333 0 0 0 0.2 0"/>
<feBlend mode="normal" in2="BackgroundImageFix" result="effect1_dropShadow_360_210"/>
<feBlend mode="normal" in="SourceGraphic" in2="effect1_dropShadow_360_210" result="shape"/>
</filter>
<filter id="filter1_d_360_210" x="10" y="30" width="120" height="109" filterUnits="userSpaceOnUse" color-interpolation-filters="sRGB">
<feFlood flood-opacity="0" result="BackgroundImageFix"/>
<feColorMatrix in="SourceAlpha" type="matrix" values="0 0 0 0 0 0 0 0 0 0 0 0 0 0 0 0 0 0 127 0" result="hardAlpha"/>
<feOffset dy="5"/>
<feGaussianBlur stdDeviation="10"/>
<feComposite in2="hardAlpha" operator="out"/>
<feColorMatrix type="matrix" values="0 0 0 0 0.129412 0 0 0 0 0.176471 0 0 0 0 0.333333 0 0 0 0.2 0"/>
<feBlend mode="normal" in2="BackgroundImageFix" result="effect1_dropShadow_360_210"/>
<feBlend mode="normal" in="SourceGraphic" in2="effect1_dropShadow_360_210" result="shape"/>
</filter>
</defs>
</svg>
